<?xml version="1.0" encoding="UTF-8" standalone="no"?>
<!DOCTYPE svg PUBLIC "-//W3C//DTD SVG 1.1//EN"
 "http://www.w3.org/Graphics/SVG/1.1/DTD/svg11.dtd">
<!-- Generated by graphviz version 12.2.1 (20241206.2353)
 -->
<!-- Title: dpb_arch Pages: 1 -->
<svg width="379pt" height="391pt"
 viewBox="0.00 0.00 379.25 391.00" xmlns="http://www.w3.org/2000/svg" xmlns:xlink="http://www.w3.org/1999/xlink">
<g id="graph0" class="graph" transform="scale(1 1) rotate(0) translate(4 387)">
<title>dpb_arch</title>
<g id="clust1" class="cluster">
<title>cluster_L0</title>
<polygon fill="#fef3c7" stroke="#d97706" points="237.5,-165 237.5,-375 371.25,-375 371.25,-165 237.5,-165"/>
<text text-anchor="middle" x="304.38" y="-357.7" font-family="Times,serif" font-size="14.00">List 0 (过去帧 DPB)</text>
</g>
<g id="clust2" class="cluster">
<title>cluster_L1</title>
<polygon fill="#fce7f3" stroke="#db2777" points="237.5,-8 237.5,-157 371.25,-157 371.25,-8 237.5,-8"/>
<text text-anchor="middle" x="304.38" y="-139.7" font-family="Times,serif" font-size="14.00">List 1 (未来帧 DPB)</text>
</g>
<!-- L0_0 -->
<g id="node1" class="node">
<title>L0_0</title>
<path fill="white" stroke="black" d="M331.75,-277.62C331.75,-277.62 276,-277.62 276,-277.62 270,-277.62 264,-271.62 264,-265.62 264,-265.62 264,-246.38 264,-246.38 264,-240.38 270,-234.38 276,-234.38 276,-234.38 331.75,-234.38 331.75,-234.38 337.75,-234.38 343.75,-240.38 343.75,-246.38 343.75,-246.38 343.75,-265.62 343.75,-265.62 343.75,-271.62 337.75,-277.62 331.75,-277.62"/>
<text text-anchor="middle" x="303.88" y="-260.32" font-family="sans-serif" font-size="14.00">ref_idx = 0</text>
<text text-anchor="middle" x="303.88" y="-245.32" font-family="sans-serif" font-size="14.00">(t&#45;1 帧)</text>
</g>
<!-- L0_1 -->
<g id="node2" class="node">
<title>L0_1</title>
<path fill="white" stroke="black" d="M331.75,-216.62C331.75,-216.62 276,-216.62 276,-216.62 270,-216.62 264,-210.62 264,-204.62 264,-204.62 264,-185.38 264,-185.38 264,-179.38 270,-173.38 276,-173.38 276,-173.38 331.75,-173.38 331.75,-173.38 337.75,-173.38 343.75,-179.38 343.75,-185.38 343.75,-185.38 343.75,-204.62 343.75,-204.62 343.75,-210.62 337.75,-216.62 331.75,-216.62"/>
<text text-anchor="middle" x="303.88" y="-199.32" font-family="sans-serif" font-size="14.00">ref_idx = 1</text>
<text text-anchor="middle" x="303.88" y="-184.32" font-family="sans-serif" font-size="14.00">(t&#45;2 帧)</text>
</g>
<!-- L0_2 -->
<g id="node3" class="node">
<title>L0_2</title>
<path fill="white" stroke="black" d="M331.75,-338.62C331.75,-338.62 276,-338.62 276,-338.62 270,-338.62 264,-332.62 264,-326.62 264,-326.62 264,-307.38 264,-307.38 264,-301.38 270,-295.38 276,-295.38 276,-295.38 331.75,-295.38 331.75,-295.38 337.75,-295.38 343.75,-301.38 343.75,-307.38 343.75,-307.38 343.75,-326.62 343.75,-326.62 343.75,-332.62 337.75,-338.62 331.75,-338.62"/>
<text text-anchor="middle" x="303.88" y="-321.32" font-family="sans-serif" font-size="14.00">ref_idx = 2</text>
<text text-anchor="middle" x="303.88" y="-306.32" font-family="sans-serif" font-size="14.00">(t&#45;3 帧)</text>
</g>
<!-- L1_0 -->
<g id="node4" class="node">
<title>L1_0</title>
<path fill="white" stroke="black" d="M331.75,-59.62C331.75,-59.62 276,-59.62 276,-59.62 270,-59.62 264,-53.62 264,-47.62 264,-47.62 264,-28.38 264,-28.38 264,-22.37 270,-16.38 276,-16.38 276,-16.38 331.75,-16.38 331.75,-16.38 337.75,-16.38 343.75,-22.38 343.75,-28.38 343.75,-28.38 343.75,-47.62 343.75,-47.62 343.75,-53.62 337.75,-59.62 331.75,-59.62"/>
<text text-anchor="middle" x="303.88" y="-42.33" font-family="sans-serif" font-size="14.00">ref_idx = 0</text>
<text text-anchor="middle" x="303.88" y="-27.32" font-family="sans-serif" font-size="14.00">(t+1 帧)</text>
</g>
<!-- L1_1 -->
<g id="node5" class="node">
<title>L1_1</title>
<path fill="white" stroke="black" d="M331.75,-120.62C331.75,-120.62 276,-120.62 276,-120.62 270,-120.62 264,-114.62 264,-108.62 264,-108.62 264,-89.38 264,-89.38 264,-83.38 270,-77.38 276,-77.38 276,-77.38 331.75,-77.38 331.75,-77.38 337.75,-77.38 343.75,-83.38 343.75,-89.38 343.75,-89.38 343.75,-108.62 343.75,-108.62 343.75,-114.62 337.75,-120.62 331.75,-120.62"/>
<text text-anchor="middle" x="303.88" y="-103.33" font-family="sans-serif" font-size="14.00">ref_idx = 1</text>
<text text-anchor="middle" x="303.88" y="-88.33" font-family="sans-serif" font-size="14.00">(t+2 帧)</text>
</g>
<!-- Current -->
<g id="node6" class="node">
<title>Current</title>
<path fill="#dbeafe" stroke="#3b82f6" stroke-width="2" d="M107.5,-213C107.5,-213 12,-213 12,-213 6,-213 0,-207 0,-201 0,-201 0,-189 0,-189 0,-183 6,-177 12,-177 12,-177 107.5,-177 107.5,-177 113.5,-177 119.5,-183 119.5,-189 119.5,-189 119.5,-201 119.5,-201 119.5,-207 113.5,-213 107.5,-213"/>
<text text-anchor="middle" x="59.75" y="-191.82" font-family="sans-serif" font-size="14.00">当前预测块 (CU)</text>
</g>
<!-- Current&#45;&gt;L0_0 -->
<g id="edge2" class="edge">
<title>Current&#45;&gt;L0_0</title>
<path fill="none" stroke="black" stroke-dasharray="5,2" d="M104.91,-213.89C115.46,-217.94 126.77,-221.93 137.5,-225 175.43,-235.86 219.37,-243.89 252.43,-249.06"/>
<polygon fill="black" stroke="black" points="251.73,-252.49 262.14,-250.53 252.78,-245.57 251.73,-252.49"/>
<text text-anchor="middle" x="182.5" y="-261.56" font-family="sans-serif" font-size="10.00">inter_pred_idc = 2</text>
<text text-anchor="middle" x="182.5" y="-250.31" font-family="sans-serif" font-size="10.00">双向 (Bi) 查 L0 和 L1</text>
</g>
<!-- Current&#45;&gt;L0_1 -->
<g id="edge1" class="edge">
<title>Current&#45;&gt;L0_1</title>
<path fill="none" stroke="black" d="M120.29,-195C160.77,-195 213.75,-195 252.2,-195"/>
<polygon fill="black" stroke="black" points="252.13,-198.5 262.13,-195 252.13,-191.5 252.13,-198.5"/>
<text text-anchor="middle" x="182.5" y="-211.75" font-family="sans-serif" font-size="10.00">inter_pred_idc = 0</text>
<text text-anchor="middle" x="182.5" y="-200.5" font-family="sans-serif" font-size="10.00">仅查 L0</text>
</g>
<!-- Current&#45;&gt;L1_0 -->
<g id="edge3" class="edge">
<title>Current&#45;&gt;L1_0</title>
<path fill="none" stroke="black" stroke-dasharray="5,2" d="M84.06,-176.01C116.97,-149.73 179.52,-101.71 237.5,-68 242.5,-65.09 247.83,-62.26 253.21,-59.56"/>
<polygon fill="black" stroke="black" points="254.69,-62.73 262.17,-55.22 251.64,-56.43 254.69,-62.73"/>
<text text-anchor="middle" x="182.5" y="-139.21" font-family="sans-serif" font-size="10.00">双向</text>
</g>
</g>
</svg>
