<?xml version="1.0" encoding="UTF-8" standalone="no"?>
<!DOCTYPE svg PUBLIC "-//W3C//DTD SVG 1.1//EN"
 "http://www.w3.org/Graphics/SVG/1.1/DTD/svg11.dtd">
<!-- Generated by graphviz version 12.2.1 (20241206.2353)
 -->
<!-- Title: inter_mode_tree Pages: 1 -->
<svg width="504pt" height="681pt"
 viewBox="0.00 0.00 503.56 681.09" xmlns="http://www.w3.org/2000/svg" xmlns:xlink="http://www.w3.org/1999/xlink">
<g id="graph0" class="graph" transform="scale(1 1) rotate(0) translate(4 677.09)">
<title>inter_mode_tree</title>
<!-- Start -->
<g id="node1" class="node">
<title>Start</title>
<path fill="#dbeafe" stroke="black" d="M216.31,-673.09C216.31,-673.09 117.81,-673.09 117.81,-673.09 111.81,-673.09 105.81,-667.09 105.81,-661.09 105.81,-661.09 105.81,-649.09 105.81,-649.09 105.81,-643.09 111.81,-637.09 117.81,-637.09 117.81,-637.09 216.31,-637.09 216.31,-637.09 222.31,-637.09 228.31,-643.09 228.31,-649.09 228.31,-649.09 228.31,-661.09 228.31,-661.09 228.31,-667.09 222.31,-673.09 216.31,-673.09"/>
<text text-anchor="middle" x="167.06" y="-651.91" font-family="sans-serif" font-size="14.00">进入 Inter 预测块</text>
</g>
<!-- SkipFlag -->
<g id="node2" class="node">
<title>SkipFlag</title>
<path fill="#fef3c7" stroke="black" d="M155.86,-595.79C155.86,-595.79 65.51,-561.14 65.51,-561.14 59.91,-558.99 59.91,-554.69 65.51,-552.54 65.51,-552.54 155.86,-517.89 155.86,-517.89 161.46,-515.74 172.66,-515.74 178.26,-517.89 178.26,-517.89 268.61,-552.54 268.61,-552.54 274.21,-554.69 274.21,-558.99 268.61,-561.14 268.61,-561.14 178.26,-595.79 178.26,-595.79 172.66,-597.94 161.46,-597.94 155.86,-595.79"/>
<text text-anchor="middle" x="167.06" y="-561.16" font-family="sans-serif" font-size="14.00">cu_skip_flag ?</text>
<text text-anchor="middle" x="167.06" y="-546.16" font-family="sans-serif" font-size="14.00">(是否启用 Skip)</text>
</g>
<!-- Start&#45;&gt;SkipFlag -->
<g id="edge1" class="edge">
<title>Start&#45;&gt;SkipFlag</title>
<path fill="none" stroke="black" d="M167.06,-636.88C167.06,-629.73 167.06,-621.01 167.06,-612"/>
<polygon fill="black" stroke="black" points="170.56,-612.04 167.06,-602.04 163.56,-612.04 170.56,-612.04"/>
</g>
<!-- SkipMergeIdx -->
<g id="node3" class="node">
<title>SkipMergeIdx</title>
<path fill="#f1f5f9" stroke="black" d="M111.31,-443.59C111.31,-443.59 24.81,-443.59 24.81,-443.59 18.81,-443.59 12.81,-437.59 12.81,-431.59 12.81,-431.59 12.81,-407.09 12.81,-407.09 12.81,-401.09 18.81,-395.09 24.81,-395.09 24.81,-395.09 111.31,-395.09 111.31,-395.09 117.31,-395.09 123.31,-401.09 123.31,-407.09 123.31,-407.09 123.31,-431.59 123.31,-431.59 123.31,-437.59 117.31,-443.59 111.31,-443.59"/>
<text text-anchor="middle" x="68.06" y="-426.29" font-family="sans-serif" font-size="14.00">发 merge_idx</text>
<text text-anchor="middle" x="68.06" y="-406.04" font-family="sans-serif" font-size="14.00">(选择哪个邻居)</text>
</g>
<!-- SkipFlag&#45;&gt;SkipMergeIdx -->
<g id="edge2" class="edge">
<title>SkipFlag&#45;&gt;SkipMergeIdx</title>
<path fill="none" stroke="black" d="M142.84,-522.69C127.35,-501.49 107.35,-474.12 91.93,-453.01"/>
<polygon fill="black" stroke="black" points="94.82,-451.03 86.09,-445.02 89.17,-455.16 94.82,-451.03"/>
<text text-anchor="middle" x="148.65" y="-486.09" font-family="sans-serif" font-size="10.00">1 (Skip 模式)</text>
</g>
<!-- MergeFlag -->
<g id="node5" class="node">
<title>MergeFlag</title>
<path fill="#fef3c7" stroke="black" d="M255.71,-458.68C255.71,-458.68 152.9,-423.25 152.9,-423.25 147.23,-421.29 147.23,-417.38 152.9,-415.43 152.9,-415.43 255.71,-380 255.71,-380 261.39,-378.04 272.73,-378.04 278.4,-380 278.4,-380 381.21,-415.43 381.21,-415.43 386.89,-417.38 386.89,-421.29 381.21,-423.25 381.21,-423.25 278.4,-458.68 278.4,-458.68 272.73,-460.63 261.39,-460.63 255.71,-458.68"/>
<text text-anchor="middle" x="267.06" y="-423.66" font-family="sans-serif" font-size="14.00">merge_flag ?</text>
<text text-anchor="middle" x="267.06" y="-408.66" font-family="sans-serif" font-size="14.00">(是否启用 Merge)</text>
</g>
<!-- SkipFlag&#45;&gt;MergeFlag -->
<g id="edge4" class="edge">
<title>SkipFlag&#45;&gt;MergeFlag</title>
<path fill="none" stroke="black" d="M191.52,-522.69C204.74,-504.78 221.21,-482.46 235.4,-463.24"/>
<polygon fill="black" stroke="black" points="238.13,-465.43 241.26,-455.3 232.5,-461.27 238.13,-465.43"/>
<text text-anchor="middle" x="248.18" y="-486.09" font-family="sans-serif" font-size="10.00">0 (常规 Inter)</text>
</g>
<!-- SkipEnd -->
<g id="node4" class="node">
<title>SkipEnd</title>
<ellipse fill="#fce7f3" stroke="black" cx="68.06" cy="-290.79" rx="68.06" ry="34.29"/>
<text text-anchor="middle" x="68.06" y="-297.74" font-family="sans-serif" font-size="14.00">结束</text>
<text text-anchor="middle" x="68.06" y="-277.49" font-family="sans-serif" font-size="14.00">(无纹理残差)</text>
</g>
<!-- SkipMergeIdx&#45;&gt;SkipEnd -->
<g id="edge3" class="edge">
<title>SkipMergeIdx&#45;&gt;SkipEnd</title>
<path fill="none" stroke="black" d="M68.06,-394.83C68.06,-378.54 68.06,-356.33 68.06,-336.7"/>
<polygon fill="black" stroke="black" points="71.56,-336.71 68.06,-326.71 64.56,-336.71 71.56,-336.71"/>
</g>
<!-- MergeIdx -->
<g id="node6" class="node">
<title>MergeIdx</title>
<path fill="#f1f5f9" stroke="black" d="M281.31,-315.04C281.31,-315.04 194.81,-315.04 194.81,-315.04 188.81,-315.04 182.81,-309.04 182.81,-303.04 182.81,-303.04 182.81,-278.54 182.81,-278.54 182.81,-272.54 188.81,-266.54 194.81,-266.54 194.81,-266.54 281.31,-266.54 281.31,-266.54 287.31,-266.54 293.31,-272.54 293.31,-278.54 293.31,-278.54 293.31,-303.04 293.31,-303.04 293.31,-309.04 287.31,-315.04 281.31,-315.04"/>
<text text-anchor="middle" x="238.06" y="-297.74" font-family="sans-serif" font-size="14.00">发 merge_idx</text>
<text text-anchor="middle" x="238.06" y="-277.49" font-family="sans-serif" font-size="14.00">(选择哪个邻居)</text>
</g>
<!-- MergeFlag&#45;&gt;MergeIdx -->
<g id="edge5" class="edge">
<title>MergeFlag&#45;&gt;MergeIdx</title>
<path fill="none" stroke="black" d="M258.04,-378.99C254.19,-362.18 249.73,-342.72 246,-326.46"/>
<polygon fill="black" stroke="black" points="249.42,-325.7 243.78,-316.74 242.6,-327.27 249.42,-325.7"/>
<text text-anchor="middle" x="284.43" y="-348.59" font-family="sans-serif" font-size="10.00">1 (Merge 模式)</text>
</g>
<!-- InterDir -->
<g id="node8" class="node">
<title>InterDir</title>
<path fill="#f1f5f9" stroke="black" d="M466.18,-315.04C466.18,-315.04 327.93,-315.04 327.93,-315.04 321.93,-315.04 315.93,-309.04 315.93,-303.04 315.93,-303.04 315.93,-278.54 315.93,-278.54 315.93,-272.54 321.93,-266.54 327.93,-266.54 327.93,-266.54 466.18,-266.54 466.18,-266.54 472.18,-266.54 478.18,-272.54 478.18,-278.54 478.18,-278.54 478.18,-303.04 478.18,-303.04 478.18,-309.04 472.18,-315.04 466.18,-315.04"/>
<text text-anchor="middle" x="397.06" y="-297.74" font-family="sans-serif" font-size="14.00">发 inter_pred_idc</text>
<text text-anchor="middle" x="397.06" y="-277.49" font-family="sans-serif" font-size="14.00">(仅 B&#45;Slice: 选 L0/L1/Bi)</text>
</g>
<!-- MergeFlag&#45;&gt;InterDir -->
<g id="edge7" class="edge">
<title>MergeFlag&#45;&gt;InterDir</title>
<path fill="none" stroke="black" d="M299.19,-387.06C319.19,-367.59 344.83,-342.64 364.84,-323.15"/>
<polygon fill="black" stroke="black" points="367.24,-325.71 371.96,-316.23 362.35,-320.69 367.24,-325.71"/>
<text text-anchor="middle" x="376.33" y="-348.59" font-family="sans-serif" font-size="10.00">0 (AMVP 模式)</text>
</g>
<!-- Residual -->
<g id="node7" class="node">
<title>Residual</title>
<path fill="#f1f5f9" stroke="black" d="M278.43,-219.5C278.43,-219.5 195.68,-219.5 195.68,-219.5 189.68,-219.5 183.68,-213.5 183.68,-207.5 183.68,-207.5 183.68,-183 183.68,-183 183.68,-177 189.68,-171 195.68,-171 195.68,-171 278.43,-171 278.43,-171 284.43,-171 290.43,-177 290.43,-183 290.43,-183 290.43,-207.5 290.43,-207.5 290.43,-213.5 284.43,-219.5 278.43,-219.5"/>
<text text-anchor="middle" x="237.06" y="-202.2" font-family="sans-serif" font-size="14.00">发纹理残差</text>
<text text-anchor="middle" x="237.06" y="-181.95" font-family="sans-serif" font-size="14.00">(CBF 和 Coeff)</text>
</g>
<!-- MergeIdx&#45;&gt;Residual -->
<g id="edge6" class="edge">
<title>MergeIdx&#45;&gt;Residual</title>
<path fill="none" stroke="black" d="M237.81,-266.19C237.69,-255.55 237.56,-242.78 237.43,-231.08"/>
<polygon fill="black" stroke="black" points="240.93,-231.32 237.33,-221.36 233.93,-231.4 240.93,-231.32"/>
</g>
<!-- L0_L1_Loop -->
<g id="node9" class="node">
<title>L0_L1_Loop</title>
<path fill="#f1f5f9" stroke="black" d="M483.56,-213.25C483.56,-213.25 320.56,-213.25 320.56,-213.25 314.56,-213.25 308.56,-207.25 308.56,-201.25 308.56,-201.25 308.56,-189.25 308.56,-189.25 308.56,-183.25 314.56,-177.25 320.56,-177.25 320.56,-177.25 483.56,-177.25 483.56,-177.25 489.56,-177.25 495.56,-183.25 495.56,-189.25 495.56,-189.25 495.56,-201.25 495.56,-201.25 495.56,-207.25 489.56,-213.25 483.56,-213.25"/>
<text text-anchor="middle" x="402.06" y="-192.07" font-family="sans-serif" font-size="14.00">对激活的参考方向 (L0或L1)</text>
</g>
<!-- InterDir&#45;&gt;L0_L1_Loop -->
<g id="edge8" class="edge">
<title>InterDir&#45;&gt;L0_L1_Loop</title>
<path fill="none" stroke="black" d="M398.32,-266.19C398.99,-253.67 399.82,-238.2 400.52,-224.99"/>
<polygon fill="black" stroke="black" points="404.01,-225.33 401.05,-215.16 397.02,-224.96 404.01,-225.33"/>
</g>
<!-- RefIdx -->
<g id="node10" class="node">
<title>RefIdx</title>
<path fill="#f1f5f9" stroke="black" d="M438.18,-134C438.18,-134 365.93,-134 365.93,-134 359.93,-134 353.93,-128 353.93,-122 353.93,-122 353.93,-97.5 353.93,-97.5 353.93,-91.5 359.93,-85.5 365.93,-85.5 365.93,-85.5 438.18,-85.5 438.18,-85.5 444.18,-85.5 450.18,-91.5 450.18,-97.5 450.18,-97.5 450.18,-122 450.18,-122 450.18,-128 444.18,-134 438.18,-134"/>
<text text-anchor="middle" x="402.06" y="-116.7" font-family="sans-serif" font-size="14.00">发 ref_idx</text>
<text text-anchor="middle" x="402.06" y="-96.45" font-family="sans-serif" font-size="14.00">(参考帧索引)</text>
</g>
<!-- L0_L1_Loop&#45;&gt;RefIdx -->
<g id="edge9" class="edge">
<title>L0_L1_Loop&#45;&gt;RefIdx</title>
<path fill="none" stroke="black" d="M402.06,-176.95C402.06,-167.9 402.06,-156.48 402.06,-145.69"/>
<polygon fill="black" stroke="black" points="405.56,-145.88 402.06,-135.88 398.56,-145.88 405.56,-145.88"/>
</g>
<!-- MVD -->
<g id="node11" class="node">
<title>MVD</title>
<path fill="#f1f5f9" stroke="black" d="M445.31,-48.5C445.31,-48.5 358.81,-48.5 358.81,-48.5 352.81,-48.5 346.81,-42.5 346.81,-36.5 346.81,-36.5 346.81,-12 346.81,-12 346.81,-6 352.81,0 358.81,0 358.81,0 445.31,0 445.31,0 451.31,0 457.31,-6 457.31,-12 457.31,-12 457.31,-36.5 457.31,-36.5 457.31,-42.5 451.31,-48.5 445.31,-48.5"/>
<text text-anchor="middle" x="402.06" y="-31.2" font-family="sans-serif" font-size="14.00">发 MVD</text>
<text text-anchor="middle" x="402.06" y="-10.95" font-family="sans-serif" font-size="14.00">(运动矢量差分)</text>
</g>
<!-- RefIdx&#45;&gt;MVD -->
<g id="edge10" class="edge">
<title>RefIdx&#45;&gt;MVD</title>
<path fill="none" stroke="black" d="M402.06,-85.05C402.06,-77.31 402.06,-68.55 402.06,-60.17"/>
<polygon fill="black" stroke="black" points="405.56,-60.24 402.06,-50.24 398.56,-60.24 405.56,-60.24"/>
</g>
</g>
</svg>
