<?xml version="1.0" encoding="UTF-8" standalone="no"?>
<!DOCTYPE svg PUBLIC "-//W3C//DTD SVG 1.1//EN"
 "http://www.w3.org/Graphics/SVG/1.1/DTD/svg11.dtd">
<!-- Generated by graphviz version 12.2.1 (20241206.2353)
 -->
<!-- Title: intra_flow Pages: 1 -->
<svg width="888pt" height="164pt"
 viewBox="0.00 0.00 887.69 163.59" xmlns="http://www.w3.org/2000/svg" xmlns:xlink="http://www.w3.org/1999/xlink">
<g id="graph0" class="graph" transform="scale(1 1) rotate(0) translate(4 159.59)">
<title>intra_flow</title>
<!-- A -->
<g id="node1" class="node">
<title>A</title>
<path fill="white" stroke="black" d="M110.5,-87.29C110.5,-87.29 12,-87.29 12,-87.29 6,-87.29 0,-81.29 0,-75.29 0,-75.29 0,-63.29 0,-63.29 0,-57.29 6,-51.29 12,-51.29 12,-51.29 110.5,-51.29 110.5,-51.29 116.5,-51.29 122.5,-57.29 122.5,-63.29 122.5,-63.29 122.5,-75.29 122.5,-75.29 122.5,-81.29 116.5,-87.29 110.5,-87.29"/>
<text text-anchor="middle" x="61.25" y="-66.12" font-family="sans-serif" font-size="14.00">当前块 Intra 模式</text>
</g>
<!-- B -->
<g id="node2" class="node">
<title>B</title>
<path fill="#fdf4ff" stroke="#d946ef" d="M297.96,-95.33C297.96,-95.33 171.29,-71.51 171.29,-71.51 165.4,-70.4 165.4,-68.19 171.29,-67.08 171.29,-67.08 297.96,-43.26 297.96,-43.26 303.85,-42.15 315.65,-42.15 321.54,-43.26 321.54,-43.26 448.21,-67.08 448.21,-67.08 454.1,-68.19 454.1,-70.4 448.21,-71.51 448.21,-71.51 321.54,-95.33 321.54,-95.33 315.65,-96.44 303.85,-96.44 297.96,-95.33"/>
<text text-anchor="middle" x="309.75" y="-66.12" font-family="sans-serif" font-size="14.00">是否在 MPM 列表中?</text>
</g>
<!-- A&#45;&gt;B -->
<g id="edge1" class="edge">
<title>A&#45;&gt;B</title>
<path fill="none" stroke="black" d="M122.87,-69.29C130.13,-69.29 137.8,-69.29 145.7,-69.29"/>
<polygon fill="black" stroke="black" points="145.52,-72.79 155.52,-69.29 145.52,-65.79 145.52,-72.79"/>
</g>
<!-- C -->
<g id="node3" class="node">
<title>C</title>
<path fill="white" stroke="black" d="M657.88,-131.29C657.88,-131.29 576.62,-131.29 576.62,-131.29 570.62,-131.29 564.62,-125.29 564.62,-119.29 564.62,-119.29 564.62,-107.29 564.62,-107.29 564.62,-101.29 570.62,-95.29 576.62,-95.29 576.62,-95.29 657.88,-95.29 657.88,-95.29 663.88,-95.29 669.88,-101.29 669.88,-107.29 669.88,-107.29 669.88,-119.29 669.88,-119.29 669.88,-125.29 663.88,-131.29 657.88,-131.29"/>
<text text-anchor="middle" x="617.25" y="-110.12" font-family="sans-serif" font-size="14.00">传输 mpm_idx</text>
</g>
<!-- B&#45;&gt;C -->
<g id="edge2" class="edge">
<title>B&#45;&gt;C</title>
<path fill="none" stroke="black" d="M396.66,-81.67C446.45,-88.84 508.03,-97.71 553.3,-104.23"/>
<polygon fill="black" stroke="black" points="552.54,-107.66 562.94,-105.62 553.54,-100.73 552.54,-107.66"/>
<text text-anchor="middle" x="509.87" y="-121.99" font-family="sans-serif" font-size="10.00">是 (flag = 1)</text>
<text text-anchor="middle" x="509.87" y="-106.99" font-family="sans-serif" font-size="10.00">[CABAC 查表]</text>
</g>
<!-- E -->
<g id="node5" class="node">
<title>E</title>
<path fill="white" stroke="black" d="M662.75,-61.29C662.75,-61.29 571.75,-61.29 571.75,-61.29 565.75,-61.29 559.75,-55.29 559.75,-49.29 559.75,-49.29 559.75,-37.29 559.75,-37.29 559.75,-31.29 565.75,-25.29 571.75,-25.29 571.75,-25.29 662.75,-25.29 662.75,-25.29 668.75,-25.29 674.75,-31.29 674.75,-37.29 674.75,-37.29 674.75,-49.29 674.75,-49.29 674.75,-55.29 668.75,-61.29 662.75,-61.29"/>
<text text-anchor="middle" x="617.25" y="-40.12" font-family="sans-serif" font-size="14.00">传输 rem_mode</text>
</g>
<!-- B&#45;&gt;E -->
<g id="edge4" class="edge">
<title>B&#45;&gt;E</title>
<path fill="none" stroke="black" d="M388.35,-55.37C416.49,-50.93 448.58,-46.59 478,-44.29 500.72,-42.52 525.61,-41.93 547.92,-41.88"/>
<polygon fill="black" stroke="black" points="547.82,-45.38 557.82,-41.9 547.83,-38.38 547.82,-45.38"/>
<text text-anchor="middle" x="509.87" y="-64.79" font-family="sans-serif" font-size="10.00">否 (flag = 0)</text>
<text text-anchor="middle" x="509.87" y="-49.79" font-family="sans-serif" font-size="10.00">[CABAC 查表]</text>
</g>
<!-- D -->
<g id="node4" class="node">
<title>D</title>
<ellipse fill="#f8fafc" stroke="#64748b" cx="795.72" cy="-121.29" rx="83.97" ry="34.29"/>
<text text-anchor="middle" x="795.72" y="-128.24" font-family="sans-serif" font-size="14.00">截断一元码</text>
<text text-anchor="middle" x="795.72" y="-107.99" font-family="sans-serif" font-size="14.00">[纯 Bypass 引擎]</text>
</g>
<!-- C&#45;&gt;D -->
<g id="edge3" class="edge">
<title>C&#45;&gt;D</title>
<path fill="none" stroke="black" d="M670.24,-115.65C679.87,-116.09 690.2,-116.56 700.64,-117.03"/>
<polygon fill="black" stroke="black" points="700.32,-120.52 710.47,-117.48 700.64,-113.53 700.32,-120.52"/>
</g>
<!-- F -->
<g id="node6" class="node">
<title>F</title>
<ellipse fill="#f8fafc" stroke="#64748b" cx="795.72" cy="-34.29" rx="83.97" ry="34.29"/>
<text text-anchor="middle" x="795.72" y="-41.24" font-family="sans-serif" font-size="14.00">固定 5&#45;bit</text>
<text text-anchor="middle" x="795.72" y="-20.99" font-family="sans-serif" font-size="14.00">[纯 Bypass 引擎]</text>
</g>
<!-- E&#45;&gt;F -->
<g id="edge5" class="edge">
<title>E&#45;&gt;F</title>
<path fill="none" stroke="black" d="M675.06,-40.4C683.25,-39.98 691.87,-39.54 700.56,-39.1"/>
<polygon fill="black" stroke="black" points="700.68,-42.6 710.49,-38.59 700.32,-35.6 700.68,-42.6"/>
</g>
</g>
</svg>
