<?xml version="1.0" encoding="UTF-8" standalone="no"?>
<!DOCTYPE svg PUBLIC "-//W3C//DTD SVG 1.1//EN"
 "http://www.w3.org/Graphics/SVG/1.1/DTD/svg11.dtd">
<!-- Generated by graphviz version 12.2.1 (20241206.2353)
 -->
<!-- Title: RC_State_Machine Pages: 1 -->
<svg width="503pt" height="853pt"
 viewBox="0.00 0.00 502.69 853.50" xmlns="http://www.w3.org/2000/svg" xmlns:xlink="http://www.w3.org/1999/xlink">
<g id="graph0" class="graph" transform="scale(1 1) rotate(0) translate(21.6 831.9)">
<title>RC_State_Machine</title>
<polygon fill="white" stroke="none" points="-21.6,21.6 -21.6,-831.9 481.09,-831.9 481.09,21.6 -21.6,21.6"/>
<g id="clust1" class="cluster">
<title>cluster_hw</title>
<path fill="#fdf2f8" stroke="#f472b6" stroke-dasharray="5,2" d="M20,-126.8C20,-126.8 272,-126.8 272,-126.8 278,-126.8 284,-132.8 284,-138.8 284,-138.8 284,-390.9 284,-390.9 284,-396.9 278,-402.9 272,-402.9 272,-402.9 20,-402.9 20,-402.9 14,-402.9 8,-396.9 8,-390.9 8,-390.9 8,-138.8 8,-138.8 8,-132.8 14,-126.8 20,-126.8"/>
<text text-anchor="middle" x="146" y="-385.6" font-family="Helvetica,sans-Serif" font-weight="bold" font-size="14.00" fill="#be185d">Hardware Execution (硬件控制区)</text>
</g>
<!-- Buf -->
<g id="node1" class="node">
<title>Buf</title>
<path fill="#bae6fd" stroke="#0284c7" stroke-width="2" d="M194.22,-810.3C194.22,-810.3 97.78,-810.3 97.78,-810.3 91.78,-810.3 85.78,-804.3 85.78,-798.3 85.78,-798.3 85.78,-761.25 85.78,-761.25 85.78,-755.25 91.78,-749.25 97.78,-749.25 97.78,-749.25 194.22,-749.25 194.22,-749.25 200.22,-749.25 206.22,-755.25 206.22,-761.25 206.22,-761.25 206.22,-798.3 206.22,-798.3 206.22,-804.3 200.22,-810.3 194.22,-810.3"/>
<text text-anchor="middle" x="146" y="-783.55" font-family="Helvetica,sans-Serif" font-size="13.00">Virtual Buffer</text>
<text text-anchor="middle" x="146" y="-770.05" font-family="Helvetica,sans-Serif" font-size="13.00">(虚拟蓄水池)</text>
</g>
<!-- Before -->
<g id="node2" class="node">
<title>Before</title>
<path fill="#fed7aa" stroke="#ea580c" stroke-width="2" d="M198.35,-675.5C198.35,-675.5 93.65,-675.5 93.65,-675.5 87.65,-675.5 81.65,-669.5 81.65,-663.5 81.65,-663.5 81.65,-626.45 81.65,-626.45 81.65,-620.45 87.65,-614.45 93.65,-614.45 93.65,-614.45 198.35,-614.45 198.35,-614.45 204.35,-614.45 210.35,-620.45 210.35,-626.45 210.35,-626.45 210.35,-663.5 210.35,-663.5 210.35,-669.5 204.35,-675.5 198.35,-675.5"/>
<text text-anchor="middle" x="146" y="-648.75" font-family="Helvetica,sans-Serif" font-size="13.00">BeforePicRc</text>
<text text-anchor="middle" x="146" y="-635.25" font-family="Helvetica,sans-Serif" font-size="13.00">(帧级预算分配)</text>
</g>
<!-- Buf&#45;&gt;Before -->
<g id="edge2" class="edge">
<title>Buf&#45;&gt;Before</title>
<path fill="none" stroke="#475569" stroke-width="1.5" d="M146,-748.31C146,-730.59 146,-708 146,-688.55"/>
<polygon fill="#475569" stroke="#475569" stroke-width="1.5" points="149.5,-688.57 146,-678.57 142.5,-688.57 149.5,-688.57"/>
<text text-anchor="middle" x="183.5" y="-709.8" font-family="Helvetica,sans-Serif" font-size="11.00" fill="#1e293b"> 提供剩余水位 </text>
</g>
<!-- Quant -->
<g id="node3" class="node">
<title>Quant</title>
<path fill="#fef08a" stroke="#ca8a04" stroke-width="2" d="M198.72,-528.7C198.72,-528.7 93.28,-528.7 93.28,-528.7 87.27,-528.7 81.28,-522.7 81.28,-516.7 81.28,-516.7 81.28,-479.65 81.28,-479.65 81.28,-473.65 87.28,-467.65 93.28,-467.65 93.28,-467.65 198.72,-467.65 198.72,-467.65 204.72,-467.65 210.72,-473.65 210.72,-479.65 210.72,-479.65 210.72,-516.7 210.72,-516.7 210.72,-522.7 204.72,-528.7 198.72,-528.7"/>
<text text-anchor="middle" x="146" y="-501.95" font-family="Helvetica,sans-Serif" font-size="13.00">PicQuant</text>
<text text-anchor="middle" x="146" y="-488.45" font-family="Helvetica,sans-Serif" font-size="13.00">(初始 QP 推演)</text>
</g>
<!-- Before&#45;&gt;Quant -->
<g id="edge3" class="edge">
<title>Before&#45;&gt;Quant</title>
<path fill="none" stroke="#475569" stroke-width="1.5" d="M146,-613.62C146,-592.77 146,-564.8 146,-541.73"/>
<polygon fill="#475569" stroke="#475569" stroke-width="1.5" points="149.5,-541.76 146,-531.76 142.5,-541.76 149.5,-541.76"/>
<text text-anchor="middle" x="183.12" y="-575" font-family="Helvetica,sans-Serif" font-size="11.00" fill="#1e293b"> 下达预算</text>
<text text-anchor="middle" x="183.12" y="-559.25" font-family="Helvetica,sans-Serif" font-size="11.00" fill="#1e293b">(targetPicSize) </text>
</g>
<!-- HW -->
<g id="node4" class="node">
<title>HW</title>
<polygon fill="#fbcfe8" stroke="#db2777" stroke-width="2" points="264.35,-354.65 27.65,-354.65 27.65,-350.65 23.65,-350.65 23.65,-346.65 27.65,-346.65 27.65,-301.6 23.65,-301.6 23.65,-297.6 27.65,-297.6 27.65,-293.6 264.35,-293.6 264.35,-354.65"/>
<polyline fill="none" stroke="#db2777" stroke-width="2" points="27.65,-350.65 31.65,-350.65 31.65,-346.65 27.65,-346.65"/>
<polyline fill="none" stroke="#db2777" stroke-width="2" points="27.65,-301.6 31.65,-301.6 31.65,-297.6 27.65,-297.6"/>
<text text-anchor="middle" x="146" y="-327.9" font-family="Helvetica,sans-Serif" font-size="13.00">HW Encode</text>
<text text-anchor="middle" x="146" y="-314.4" font-family="Helvetica,sans-Serif" font-size="13.00">(AQ自适应 CU 级 Delta QP 微调)</text>
</g>
<!-- Quant&#45;&gt;HW -->
<g id="edge4" class="edge">
<title>Quant&#45;&gt;HW</title>
<path fill="none" stroke="#475569" stroke-width="1.5" d="M146,-466.81C146,-439.26 146,-398.35 146,-367.56"/>
<polygon fill="#475569" stroke="#475569" stroke-width="1.5" points="149.5,-367.74 146,-357.74 142.5,-367.74 149.5,-367.74"/>
<text text-anchor="middle" x="202.62" y="-428.2" font-family="Helvetica,sans-Serif" font-size="11.00" fill="#1e293b"> 下发基准与边界约束</text>
<text text-anchor="middle" x="202.62" y="-412.45" font-family="Helvetica,sans-Serif" font-size="11.00" fill="#1e293b">(qpHdr, qpMin, qpMax) </text>
</g>
<!-- Actual -->
<g id="node5" class="node">
<title>Actual</title>
<path fill="#e9d5ff" stroke="#9333ea" stroke-width="2" d="M198.35,-207.85C198.35,-207.85 93.65,-207.85 93.65,-207.85 87.65,-207.85 81.65,-201.85 81.65,-195.85 81.65,-195.85 81.65,-158.8 81.65,-158.8 81.65,-152.8 87.65,-146.8 93.65,-146.8 93.65,-146.8 198.35,-146.8 198.35,-146.8 204.35,-146.8 210.35,-152.8 210.35,-158.8 210.35,-158.8 210.35,-195.85 210.35,-195.85 210.35,-201.85 204.35,-207.85 198.35,-207.85"/>
<text text-anchor="middle" x="146" y="-181.1" font-family="Helvetica,sans-Serif" font-size="13.00">Actual BitCnt</text>
<text text-anchor="middle" x="146" y="-167.6" font-family="Helvetica,sans-Serif" font-size="13.00">(物理真实消耗)</text>
</g>
<!-- HW&#45;&gt;Actual -->
<g id="edge1" class="edge">
<title>HW&#45;&gt;Actual</title>
<path fill="none" stroke="#475569" stroke-width="1.5" d="M146,-292.77C146,-271.92 146,-243.95 146,-220.88"/>
<polygon fill="#475569" stroke="#475569" stroke-width="1.5" points="149.5,-220.91 146,-210.91 142.5,-220.91 149.5,-220.91"/>
<text text-anchor="middle" x="183.5" y="-248.15" font-family="Helvetica,sans-Serif" font-size="11.00" fill="#1e293b"> 输出物理码流 </text>
</g>
<!-- After -->
<g id="node6" class="node">
<title>After</title>
<path fill="#bbf7d0" stroke="#16a34a" stroke-width="2" d="M217.47,-61.05C217.47,-61.05 74.53,-61.05 74.53,-61.05 68.53,-61.05 62.53,-55.05 62.53,-49.05 62.53,-49.05 62.53,-12 62.53,-12 62.53,-6 68.53,0 74.53,0 74.53,0 217.47,0 217.47,0 223.47,0 229.47,-6 229.47,-12 229.47,-12 229.47,-49.05 229.47,-49.05 229.47,-55.05 223.47,-61.05 217.47,-61.05"/>
<text text-anchor="middle" x="146" y="-34.3" font-family="Helvetica,sans-Serif" font-size="13.00">AfterPicRc</text>
<text text-anchor="middle" x="146" y="-20.8" font-family="Helvetica,sans-Serif" font-size="13.00">(反馈对账与模型校准)</text>
</g>
<!-- Actual&#45;&gt;After -->
<g id="edge5" class="edge">
<title>Actual&#45;&gt;After</title>
<path fill="none" stroke="#475569" stroke-width="1.5" d="M146,-145.97C146,-125.12 146,-97.15 146,-74.08"/>
<polygon fill="#475569" stroke="#475569" stroke-width="1.5" points="149.5,-74.11 146,-64.11 142.5,-74.11 149.5,-74.11"/>
<text text-anchor="middle" x="181.62" y="-107.35" font-family="Helvetica,sans-Serif" font-size="11.00" fill="#1e293b"> 汇报执行结果</text>
<text text-anchor="middle" x="181.62" y="-91.6" font-family="Helvetica,sans-Serif" font-size="11.00" fill="#1e293b">(actualBitCnt) </text>
</g>
<!-- After&#45;&gt;Buf -->
<g id="edge6" class="edge">
<title>After&#45;&gt;Buf</title>
<path fill="none" stroke="#ef4444" stroke-width="1.5" stroke-dasharray="5,2" d="M220.95,-61.99C255.94,-76.21 290,-90.05 290,-90.05 290,-90.05 326,-126.8 326,-126.8 326,-126.8 425,-236.85 425,-236.85 425,-236.85 425,-264.6 425,-264.6 425,-264.6 231,-720.25 231,-720.25 231,-720.25 216.84,-730 200.08,-741.54"/>
<polygon fill="#ef4444" stroke="#ef4444" stroke-width="1.5" points="198.12,-738.64 191.86,-747.2 202.09,-744.41 198.12,-738.64"/>
<text text-anchor="middle" x="410.74" y="-422.2" font-family="Helvetica,sans-Serif" font-size="11.00" fill="#ef4444"> 真实扣账水位更新 </text>
</g>
<!-- After&#45;&gt;Quant -->
<g id="edge7" class="edge">
<title>After&#45;&gt;Quant</title>
<path fill="none" stroke="#ef4444" stroke-width="1.5" stroke-dasharray="5,2" d="M193.24,-61.93C236.55,-89.82 294,-126.8 294,-126.8 294,-126.8 294,-402.9 294,-402.9 294,-402.9 269,-438.65 269,-438.65 269,-438.65 246.53,-449.34 220.79,-461.59"/>
<polygon fill="#ef4444" stroke="#ef4444" stroke-width="1.5" points="219.6,-458.28 212.07,-465.74 222.61,-464.6 219.6,-458.28"/>
<text text-anchor="middle" x="354.38" y="-254.15" font-family="Helvetica,sans-Serif" font-size="11.00" fill="#ef4444"> 修正 R&#45;Q 线性模型斜率</text>
<text text-anchor="middle" x="354.38" y="-238.4" font-family="Helvetica,sans-Serif" font-size="11.00" fill="#ef4444">(linReg.weight) </text>
</g>
</g>
</svg>
