<?xml version="1.0" encoding="UTF-8" standalone="no"?>
<!DOCTYPE svg PUBLIC "-//W3C//DTD SVG 1.1//EN"
 "http://www.w3.org/Graphics/SVG/1.1/DTD/svg11.dtd">
<!-- Generated by graphviz version 12.2.1 (20241206.2353)
 -->
<!-- Title: G Pages: 1 -->
<svg width="659pt" height="625pt"
 viewBox="0.00 0.00 658.83 624.50" xmlns="http://www.w3.org/2000/svg" xmlns:xlink="http://www.w3.org/1999/xlink">
<g id="graph0" class="graph" transform="scale(1 1) rotate(0) translate(4 620.5)">
<title>G</title>
<polygon fill="white" stroke="none" points="-4,4 -4,-620.5 654.83,-620.5 654.83,4 -4,4"/>
<g id="clust1" class="cluster">
<title>cluster_sw</title>
<polygon fill="#f0f9ff" stroke="#0288d1" stroke-dasharray="5,2" points="132,-376 132,-608.5 463,-608.5 463,-376 132,-376"/>
</g>
<g id="clust3" class="cluster">
<title>cluster_hw</title>
<polygon fill="#fffbeb" stroke="#d97706" stroke-dasharray="5,2" points="8,-8 8,-334 230,-334 230,-8 8,-8"/>
</g>
<g id="clust4" class="cluster">
<title>cluster_fb</title>
<polygon fill="#f7fee7" stroke="#65a30d" stroke-dasharray="5,2" points="272,-10.62 272,-308.38 628,-308.38 628,-10.62 272,-10.62"/>
</g>
<!-- State1 -->
<g id="node1" class="node">
<title>State1</title>
<g id="a_node1"><a xlink:href="#section-6" xlink:title="&lt;TABLE&gt;" target="_parent">
<path fill="#f3e8ff" stroke="none" d="M151.62,-521.25C151.62,-521.25 264.38,-521.25 264.38,-521.25 270.38,-521.25 276.38,-527.25 276.38,-533.25 276.38,-533.25 276.38,-588.5 276.38,-588.5 276.38,-594.5 270.38,-600.5 264.38,-600.5 264.38,-600.5 151.62,-600.5 151.62,-600.5 145.62,-600.5 139.62,-594.5 139.62,-588.5 139.62,-588.5 139.62,-533.25 139.62,-533.25 139.62,-527.25 145.62,-521.25 151.62,-521.25"/>
<polygon fill="none" stroke="#7e22ce" points="139.62,-558.25 139.62,-600.5 276.38,-600.5 276.38,-558.25 139.62,-558.25"/>
<text text-anchor="start" x="150.62" y="-577.2" font-family="sans-serif" font-weight="bold" font-size="14.00">历史状态基准 (t&#45;1)</text>
<polygon fill="none" stroke="#7e22ce" points="139.62,-521.25 139.62,-558.25 276.38,-558.25 276.38,-521.25 139.62,-521.25"/>
<text text-anchor="start" x="151.38" y="-534.95" font-family="sans-serif" font-size="14.00">ω</text>
<text text-anchor="start" x="161.88" y="-534.95" font-family="sans-serif" baseline-shift="sub" font-size="14.00">reg</text>
<text text-anchor="start" x="179.12" y="-534.95" font-family="sans-serif" baseline-shift="super" font-size="14.00">(t&#45;1)</text>
<text text-anchor="start" x="200.12" y="-534.95" font-family="sans-serif" font-size="14.00"> = 170,620</text>
</a>
</g>
</g>
<!-- S2 -->
<g id="node3" class="node">
<title>S2</title>
<g id="a_node3"><a xlink:href="#section-5" xlink:title="&lt;TABLE&gt;" target="_parent">
<path fill="#e0f2fe" stroke="none" d="M183.25,-384C183.25,-384 266.75,-384 266.75,-384 272.75,-384 278.75,-390 278.75,-396 278.75,-396 278.75,-451.25 278.75,-451.25 278.75,-457.25 272.75,-463.25 266.75,-463.25 266.75,-463.25 183.25,-463.25 183.25,-463.25 177.25,-463.25 171.25,-457.25 171.25,-451.25 171.25,-451.25 171.25,-396 171.25,-396 171.25,-390 177.25,-384 183.25,-384"/>
<polygon fill="none" stroke="#0288d1" points="171.25,-421 171.25,-463.25 278.75,-463.25 278.75,-421 171.25,-421"/>
<text text-anchor="start" x="182.25" y="-439.95" font-family="sans-serif" font-weight="bold" font-size="14.00">初始 QP 推演</text>
<polygon fill="none" stroke="#0288d1" points="171.25,-384 171.25,-421 278.75,-421 278.75,-384 171.25,-384"/>
<text text-anchor="start" x="190.88" y="-397.7" font-family="sans-serif" font-size="14.00">QP</text>
<text text-anchor="start" x="211.12" y="-397.7" font-family="sans-serif" baseline-shift="sub" font-size="14.00">hdr</text>
<text text-anchor="start" x="228.38" y="-397.7" font-family="sans-serif" font-size="14.00"> = </text>
<text text-anchor="start" x="244.12" y="-397.7" font-family="sans-serif" font-size="14.00" fill="#0288d1">25</text>
</a>
</g>
</g>
<!-- State1&#45;&gt;S2 -->
<g id="edge2" class="edge">
<title>State1&#45;&gt;S2</title>
<path fill="none" stroke="#475569" stroke-width="1.5" stroke-dasharray="5,2" d="M212.83,-521.48C214.64,-507.06 216.73,-490.44 218.66,-475.09"/>
<polygon fill="#475569" stroke="#475569" stroke-width="1.5" points="222.1,-475.73 219.88,-465.37 215.16,-474.85 222.1,-475.73"/>
</g>
<!-- S1 -->
<g id="node2" class="node">
<title>S1</title>
<g id="a_node2"><a xlink:href="#section-2" xlink:title="&lt;TABLE&gt;" target="_parent">
<path fill="#e0f2fe" stroke="none" d="M346.88,-521.25C346.88,-521.25 443.12,-521.25 443.12,-521.25 449.12,-521.25 455.12,-527.25 455.12,-533.25 455.12,-533.25 455.12,-588.5 455.12,-588.5 455.12,-594.5 449.12,-600.5 443.12,-600.5 443.12,-600.5 346.88,-600.5 346.88,-600.5 340.88,-600.5 334.88,-594.5 334.88,-588.5 334.88,-588.5 334.88,-533.25 334.88,-533.25 334.88,-527.25 340.88,-521.25 346.88,-521.25"/>
<polygon fill="none" stroke="#0288d1" points="334.88,-558.25 334.88,-600.5 455.12,-600.5 455.12,-558.25 334.88,-558.25"/>
<text text-anchor="start" x="366.5" y="-577.2" font-family="sans-serif" font-weight="bold" font-size="14.00">目标分配</text>
<polygon fill="none" stroke="#0288d1" points="334.88,-521.25 334.88,-558.25 455.12,-558.25 455.12,-521.25 334.88,-521.25"/>
<text text-anchor="start" x="345.88" y="-534.95" font-family="sans-serif" font-size="14.00">T</text>
<text text-anchor="start" x="354.12" y="-534.95" font-family="sans-serif" baseline-shift="sub" font-size="14.00">pic</text>
<text text-anchor="start" x="369.12" y="-534.95" font-family="sans-serif" font-size="14.00"> = </text>
<text text-anchor="start" x="384.88" y="-534.95" font-family="sans-serif" font-size="14.00" fill="#0288d1">38,000 bit</text>
</a>
</g>
</g>
<!-- S1&#45;&gt;S2 -->
<g id="edge1" class="edge">
<title>S1&#45;&gt;S2</title>
<path fill="none" stroke="#64748b" stroke-width="1.5" d="M346.74,-521.48C326.82,-505.63 303.57,-487.13 282.75,-470.57"/>
<polygon fill="#64748b" stroke="#64748b" stroke-width="1.5" points="285.16,-468.02 275.16,-464.53 280.8,-473.49 285.16,-468.02"/>
</g>
<!-- S3 -->
<g id="node4" class="node">
<title>S3</title>
<g id="a_node4"><a xlink:href="#section-7" xlink:title="&lt;TABLE&gt;" target="_parent">
<path fill="#fef3c7" stroke="none" d="M27.75,-158.5C27.75,-158.5 210.25,-158.5 210.25,-158.5 216.25,-158.5 222.25,-164.5 222.25,-170.5 222.25,-170.5 222.25,-314 222.25,-314 222.25,-320 216.25,-326 210.25,-326 210.25,-326 27.75,-326 27.75,-326 21.75,-326 15.75,-320 15.75,-314 15.75,-314 15.75,-170.5 15.75,-170.5 15.75,-164.5 21.75,-158.5 27.75,-158.5"/>
<polygon fill="none" stroke="#d97706" points="15.75,-283.75 15.75,-326 222.25,-326 222.25,-283.75 15.75,-283.75"/>
<text text-anchor="start" x="68.75" y="-302.7" font-family="sans-serif" font-weight="bold" font-size="14.00">像素级 AQ 解算</text>
<polygon fill="none" stroke="#d97706" points="15.75,-241.5 15.75,-283.75 222.25,-283.75 222.25,-241.5 15.75,-241.5"/>
<text text-anchor="start" x="28.62" y="-260.45" font-family="sans-serif" font-size="14.00">示例1 (平滑区 CU): ΔQP = </text>
<text text-anchor="start" x="197.38" y="-260.45" font-family="sans-serif" font-weight="bold" font-size="14.00">&#45;6</text>
<polygon fill="none" stroke="#d97706" points="15.75,-199.25 15.75,-241.5 222.25,-241.5 222.25,-199.25 15.75,-199.25"/>
<text text-anchor="start" x="26.75" y="-218.2" font-family="sans-serif" font-size="14.00">示例2 (爆炸区 CU): ΔQP = </text>
<text text-anchor="start" x="195.5" y="-218.2" font-family="sans-serif" font-weight="bold" font-size="14.00">+8</text>
<polygon fill="none" stroke="#d97706" points="15.75,-158.5 15.75,-199.25 222.25,-199.25 222.25,-158.5 15.75,-158.5"/>
<text text-anchor="start" x="33.12" y="-175.9" font-family="sans-serif" font-size="13.00" fill="#b45309">(注: 全图所有 CU 均独立推导)</text>
</a>
</g>
</g>
<!-- S2&#45;&gt;S3 -->
<g id="edge7" class="edge">
<title>S2&#45;&gt;S3</title>
<path fill="none" stroke="#64748b" stroke-width="1.5" d="M202.26,-384.14C193.9,-369.99 184.02,-353.28 174.05,-336.41"/>
<polygon fill="#64748b" stroke="#64748b" stroke-width="1.5" points="177.1,-334.69 169,-327.86 171.07,-338.25 177.1,-334.69"/>
</g>
<!-- OutCABAC -->
<g id="node6" class="node">
<title>OutCABAC</title>
<g id="a_node6"><a xlink:href="#section-hw-rdo" xlink:title="&lt;TABLE&gt;" target="_parent">
<path fill="#ecfccb" stroke="none" d="M292.5,-184.12C292.5,-184.12 413.5,-184.12 413.5,-184.12 419.5,-184.12 425.5,-190.12 425.5,-196.12 425.5,-196.12 425.5,-288.38 425.5,-288.38 425.5,-294.38 419.5,-300.38 413.5,-300.38 413.5,-300.38 292.5,-300.38 292.5,-300.38 286.5,-300.38 280.5,-294.38 280.5,-288.38 280.5,-288.38 280.5,-196.12 280.5,-196.12 280.5,-190.12 286.5,-184.12 292.5,-184.12"/>
<polygon fill="none" stroke="#65a30d" points="280.5,-258.12 280.5,-300.38 425.5,-300.38 425.5,-258.12 280.5,-258.12"/>
<text text-anchor="start" x="298.25" y="-277.07" font-family="sans-serif" font-weight="bold" font-size="14.00">CABAC 物理统计</text>
<polygon fill="none" stroke="#65a30d" points="280.5,-221.12 280.5,-258.12 425.5,-258.12 425.5,-221.12 280.5,-221.12"/>
<text text-anchor="start" x="291.5" y="-234.82" font-family="sans-serif" font-size="14.00">B</text>
<text text-anchor="start" x="300.5" y="-234.82" font-family="sans-serif" baseline-shift="sub" font-size="14.00">actual</text>
<text text-anchor="start" x="332" y="-234.82" font-family="sans-serif" font-size="14.00"> = </text>
<text text-anchor="start" x="347.75" y="-234.82" font-family="sans-serif" font-size="14.00" fill="#65a30d">300,000 bit</text>
<polygon fill="none" stroke="#65a30d" points="280.5,-184.12 280.5,-221.12 425.5,-221.12 425.5,-184.12 280.5,-184.12"/>
<text text-anchor="start" x="317.75" y="-197.82" font-family="sans-serif" font-size="14.00">QP</text>
<text text-anchor="start" x="338" y="-197.82" font-family="sans-serif" baseline-shift="sub" font-size="14.00">avg</text>
<text text-anchor="start" x="357.5" y="-197.82" font-family="sans-serif" font-size="14.00"> = </text>
<text text-anchor="start" x="373.25" y="-197.82" font-family="sans-serif" font-size="14.00" fill="#65a30d">20</text>
</a>
</g>
</g>
<!-- S2&#45;&gt;OutCABAC -->
<!-- S4 -->
<g id="node5" class="node">
<title>S4</title>
<g id="a_node5"><a xlink:href="#section-hw-rdo" xlink:title="&lt;TABLE&gt;" target="_parent">
<path fill="#fef3c7" stroke="none" d="M70.12,-16C70.12,-16 167.88,-16 167.88,-16 173.88,-16 179.88,-22 179.88,-28 179.88,-28 179.88,-88.5 179.88,-88.5 179.88,-94.5 173.88,-100.5 167.88,-100.5 167.88,-100.5 70.12,-100.5 70.12,-100.5 64.12,-100.5 58.12,-94.5 58.12,-88.5 58.12,-88.5 58.12,-28 58.12,-28 58.12,-22 64.12,-16 70.12,-16"/>
<polygon fill="none" stroke="#d97706" points="58.12,-58.25 58.12,-100.5 179.88,-100.5 179.88,-58.25 58.12,-58.25"/>
<text text-anchor="start" x="76.25" y="-77.2" font-family="sans-serif" font-weight="bold" font-size="14.00">硬件物理执行</text>
<polygon fill="none" stroke="#d97706" points="58.12,-16 58.12,-58.25 179.88,-58.25 179.88,-16 58.12,-16"/>
<text text-anchor="start" x="69.12" y="-34.95" font-family="sans-serif" font-size="14.00">QP</text>
<text text-anchor="start" x="89.38" y="-34.95" font-family="sans-serif" baseline-shift="sub" font-size="14.00">cu</text>
<text text-anchor="start" x="102.12" y="-34.95" font-family="sans-serif" font-size="14.00"> ∈ </text>
<text text-anchor="start" x="122.38" y="-34.95" font-family="sans-serif" font-weight="bold" font-size="14.00" fill="#d97706">[19, 33]</text>
</a>
</g>
</g>
<!-- S3&#45;&gt;S4 -->
<g id="edge3" class="edge">
<title>S3&#45;&gt;S4</title>
<path fill="none" stroke="#64748b" stroke-width="1.5" d="M119,-158.5C119,-142.82 119,-126.8 119,-112.34"/>
<polygon fill="#64748b" stroke="#64748b" stroke-width="1.5" points="122.5,-112.35 119,-102.35 115.5,-112.35 122.5,-112.35"/>
</g>
<!-- S4&#45;&gt;OutCABAC -->
<g id="edge9" class="edge">
<title>S4&#45;&gt;OutCABAC</title>
<path fill="none" stroke="#64748b" stroke-width="1.5" d="M171.79,-100.31C201.03,-123.05 238.02,-151.82 270.94,-177.43"/>
<polygon fill="#64748b" stroke="#64748b" stroke-width="1.5" points="268.73,-180.14 278.77,-183.52 273.03,-174.61 268.73,-180.14"/>
</g>
<!-- S5 -->
<g id="node7" class="node">
<title>S5</title>
<g id="a_node7"><a xlink:href="#section-9" xlink:title="&lt;TABLE&gt;" target="_parent">
<path fill="#e0f2fe" stroke="none" d="M495.25,-202.62C495.25,-202.62 584.75,-202.62 584.75,-202.62 590.75,-202.62 596.75,-208.62 596.75,-214.62 596.75,-214.62 596.75,-269.88 596.75,-269.88 596.75,-275.88 590.75,-281.88 584.75,-281.88 584.75,-281.88 495.25,-281.88 495.25,-281.88 489.25,-281.88 483.25,-275.88 483.25,-269.88 483.25,-269.88 483.25,-214.62 483.25,-214.62 483.25,-208.62 489.25,-202.62 495.25,-202.62"/>
<polygon fill="none" stroke="#0288d1" points="483.25,-239.62 483.25,-281.88 596.75,-281.88 596.75,-239.62 483.25,-239.62"/>
<text text-anchor="start" x="504.38" y="-258.57" font-family="sans-serif" font-weight="bold" font-size="14.00">状态机校准</text>
<polygon fill="none" stroke="#0288d1" points="483.25,-202.62 483.25,-239.62 596.75,-239.62 596.75,-202.62 483.25,-202.62"/>
<text text-anchor="start" x="494.25" y="-216.32" font-family="sans-serif" font-size="14.00">ω</text>
<text text-anchor="start" x="504.75" y="-216.32" font-family="sans-serif" baseline-shift="sub" font-size="14.00">cur</text>
<text text-anchor="start" x="521.25" y="-216.32" font-family="sans-serif" font-size="14.00"> = 756,000</text>
</a>
</g>
</g>
<!-- OutCABAC&#45;&gt;S5 -->
<g id="edge4" class="edge">
<title>OutCABAC&#45;&gt;S5</title>
<path fill="none" stroke="#64748b" stroke-width="1.5" d="M425.32,-242.25C440.79,-242.25 456.26,-242.25 471.72,-242.25"/>
<polygon fill="#64748b" stroke="#64748b" stroke-width="1.5" points="471.28,-245.75 481.28,-242.25 471.28,-238.75 471.28,-245.75"/>
</g>
<!-- EMA -->
<g id="node8" class="node">
<title>EMA</title>
<g id="a_node8"><a xlink:href="#param-alpha" xlink:title="&lt;TABLE&gt;" target="_parent">
<path fill="#e0f2fe" stroke="none" d="M292,-18.62C292,-18.62 410,-18.62 410,-18.62 416,-18.62 422,-24.62 422,-30.62 422,-30.62 422,-85.88 422,-85.88 422,-91.88 416,-97.88 410,-97.88 410,-97.88 292,-97.88 292,-97.88 286,-97.88 280,-91.88 280,-85.88 280,-85.88 280,-30.62 280,-30.62 280,-24.62 286,-18.62 292,-18.62"/>
<polygon fill="none" stroke="#0288d1" points="280,-55.62 280,-97.88 422,-97.88 422,-55.62 280,-55.62"/>
<text text-anchor="start" x="291" y="-74.58" font-family="sans-serif" font-weight="bold" font-size="14.00">EMA 滤波平滑更新</text>
<polygon fill="none" stroke="#0288d1" points="280,-18.62 280,-55.62 422,-55.62 422,-18.62 280,-18.62"/>
<text text-anchor="start" x="322.12" y="-32.33" font-family="sans-serif" text-decoration="underline" font-size="14.00" fill="#7c3aed">α = 0.125</text>
</a>
</g>
</g>
<!-- S5&#45;&gt;EMA -->
<g id="edge5" class="edge">
<title>S5&#45;&gt;EMA</title>
<path fill="none" stroke="#64748b" stroke-width="1.5" d="M500.72,-202.85C486.37,-188.86 469.98,-172.94 455,-158.5 437.25,-141.39 417.71,-122.71 400.41,-106.21"/>
<polygon fill="#64748b" stroke="#64748b" stroke-width="1.5" points="402.89,-103.74 393.23,-99.37 398.06,-108.8 402.89,-103.74"/>
</g>
<!-- State2 -->
<g id="node9" class="node">
<title>State2</title>
<g id="a_node9"><a xlink:href="#section-10" xlink:title="&lt;TABLE&gt;" target="_parent">
<path fill="#f3e8ff" stroke="none" d="M492.5,-18.62C492.5,-18.62 607.5,-18.62 607.5,-18.62 613.5,-18.62 619.5,-24.62 619.5,-30.62 619.5,-30.62 619.5,-85.88 619.5,-85.88 619.5,-91.88 613.5,-97.88 607.5,-97.88 607.5,-97.88 492.5,-97.88 492.5,-97.88 486.5,-97.88 480.5,-91.88 480.5,-85.88 480.5,-85.88 480.5,-30.62 480.5,-30.62 480.5,-24.62 486.5,-18.62 492.5,-18.62"/>
<polygon fill="none" stroke="#7e22ce" points="480.5,-55.62 480.5,-97.88 619.5,-97.88 619.5,-55.62 480.5,-55.62"/>
<text text-anchor="start" x="491.5" y="-74.58" font-family="sans-serif" font-weight="bold" font-size="14.00">新历史状态基准 (t)</text>
<polygon fill="none" stroke="#7e22ce" points="480.5,-18.62 480.5,-55.62 619.5,-55.62 619.5,-18.62 480.5,-18.62"/>
<text text-anchor="start" x="498.62" y="-32.33" font-family="sans-serif" font-size="14.00">ω</text>
<text text-anchor="start" x="509.12" y="-32.33" font-family="sans-serif" baseline-shift="sub" font-size="14.00">reg</text>
<text text-anchor="start" x="526.38" y="-32.33" font-family="sans-serif" baseline-shift="super" font-size="14.00">(t)</text>
<text text-anchor="start" x="536.88" y="-32.33" font-family="sans-serif" font-size="14.00"> = </text>
<text text-anchor="start" x="552.62" y="-32.33" font-family="sans-serif" font-size="14.00" fill="#7e22ce">243,793</text>
</a>
</g>
</g>
<!-- EMA&#45;&gt;State2 -->
<g id="edge6" class="edge">
<title>EMA&#45;&gt;State2</title>
<path fill="none" stroke="#64748b" stroke-width="1.5" d="M421.74,-58.25C437.38,-58.25 453.01,-58.25 468.65,-58.25"/>
<polygon fill="#64748b" stroke="#64748b" stroke-width="1.5" points="468.34,-61.75 478.34,-58.25 468.34,-54.75 468.34,-61.75"/>
</g>
<!-- State2&#45;&gt;State1 -->
<g id="edge10" class="edge">
<title>State2&#45;&gt;State1</title>
<path fill="none" stroke="#7e22ce" stroke-width="1.5" stroke-dasharray="5,2" d="M588.89,-97.68C603.5,-114.78 618.41,-136.1 626,-158.5 651.04,-232.37 665.95,-267.01 626,-334 588.07,-397.61 397.66,-483.13 287.36,-528.52"/>
<polygon fill="#7e22ce" stroke="#7e22ce" stroke-width="1.5" points="286.32,-525.16 278.39,-532.19 288.97,-531.64 286.32,-525.16"/>
</g>
</g>
</svg>
