<?xml version="1.0" encoding="UTF-8" standalone="no"?>
<!DOCTYPE svg PUBLIC "-//W3C//DTD SVG 1.1//EN"
 "http://www.w3.org/Graphics/SVG/1.1/DTD/svg11.dtd">
<!-- Generated by graphviz version 12.2.1 (20241206.2353)
 -->
<!-- Title: G Pages: 1 -->
<svg width="938pt" height="124pt"
 viewBox="0.00 0.00 938.25 123.50" xmlns="http://www.w3.org/2000/svg" xmlns:xlink="http://www.w3.org/1999/xlink">
<g id="graph0" class="graph" transform="scale(1 1) rotate(0) translate(4 119.5)">
<title>G</title>
<polygon fill="white" stroke="none" points="-4,4 -4,-119.5 934.25,-119.5 934.25,4 -4,4"/>
<!-- History -->
<g id="node1" class="node">
<title>History</title>
<path fill="#f8fafc" stroke="#64748b" stroke-width="1.5" d="M137.12,-115.5C137.12,-115.5 19.12,-115.5 19.12,-115.5 13.12,-115.5 7.12,-109.5 7.12,-103.5 7.12,-103.5 7.12,-79 7.12,-79 7.12,-73 13.12,-67 19.12,-67 19.12,-67 137.12,-67 137.12,-67 143.12,-67 149.12,-73 149.12,-79 149.12,-79 149.12,-103.5 149.12,-103.5 149.12,-109.5 143.12,-115.5 137.12,-115.5"/>
<text text-anchor="middle" x="78.12" y="-98.2" font-family="Helvetica,sans-Serif" font-size="14.00" fill="#334155">历史低复杂度积累</text>
<text text-anchor="middle" x="78.12" y="-77.95" font-family="Helvetica,sans-Serif" font-size="14.00" fill="#334155">(T&#45;3 ~ T&#45;1 连续静止)</text>
</g>
<!-- EMA -->
<g id="node3" class="node">
<title>EMA</title>
<path fill="#f0f9ff" stroke="#0ea5e9" stroke-width="1.5" d="M385.25,-81.5C385.25,-81.5 256,-81.5 256,-81.5 250,-81.5 244,-75.5 244,-69.5 244,-69.5 244,-45 244,-45 244,-39 250,-33 256,-33 256,-33 385.25,-33 385.25,-33 391.25,-33 397.25,-39 397.25,-45 397.25,-45 397.25,-69.5 397.25,-69.5 397.25,-75.5 391.25,-81.5 385.25,-81.5"/>
<text text-anchor="middle" x="320.62" y="-64.2" font-family="Helvetica,sans-Serif" font-size="14.00" fill="#0284c7">Step 1: EMA 低通滤波</text>
<text text-anchor="middle" x="320.62" y="-43.95" font-family="Helvetica,sans-Serif" font-size="14.00" fill="#0284c7">(拖影平滑)</text>
</g>
<!-- History&#45;&gt;EMA -->
<g id="edge1" class="edge">
<title>History&#45;&gt;EMA</title>
<path fill="none" stroke="#64748b" stroke-width="1.2" d="M149.33,-81.32C175.88,-77.57 206.37,-73.26 234.16,-69.33"/>
<polygon fill="#64748b" stroke="#64748b" stroke-width="1.2" points="234.54,-72.11 242.07,-68.21 233.76,-66.56 234.54,-72.11"/>
<text text-anchor="middle" x="200.12" y="-83.15" font-family="Helvetica,sans-Serif" font-size="12.00"> 长期记忆</text>
</g>
<!-- T0 -->
<g id="node2" class="node">
<title>T0</title>
<path fill="#fef2f2" stroke="#ef4444" stroke-width="1.5" d="M144.25,-48.5C144.25,-48.5 12,-48.5 12,-48.5 6,-48.5 0,-42.5 0,-36.5 0,-36.5 0,-12 0,-12 0,-6 6,0 12,0 12,0 144.25,0 144.25,0 150.25,0 156.25,-6 156.25,-12 156.25,-12 156.25,-36.5 156.25,-36.5 156.25,-42.5 150.25,-48.5 144.25,-48.5"/>
<text text-anchor="middle" x="78.12" y="-31.2" font-family="Helvetica,sans-Serif" font-size="14.00" fill="#b91c1c">当前瞬间爆炸帧</text>
<text text-anchor="middle" x="78.12" y="-10.95" font-family="Helvetica,sans-Serif" font-size="14.00" fill="#b91c1c">(T0: 复杂度暴涨 10 倍)</text>
</g>
<!-- T0&#45;&gt;EMA -->
<g id="edge2" class="edge">
<title>T0&#45;&gt;EMA</title>
<path fill="none" stroke="#ef4444" stroke-width="1.2" d="M156.54,-34.87C181.26,-38.26 208.76,-42.04 234.02,-45.5"/>
<polygon fill="#ef4444" stroke="#ef4444" stroke-width="1.2" points="233.48,-48.26 241.78,-46.57 234.24,-42.71 233.48,-48.26"/>
<text text-anchor="middle" x="200.12" y="-49.56" font-family="Helvetica,sans-Serif" font-size="12.00" fill="#ef4444"> 突发噪声</text>
</g>
<!-- qCompress -->
<g id="node4" class="node">
<title>qCompress</title>
<path fill="#f5f3ff" stroke="#8b5cf6" stroke-width="1.5" d="M641.25,-78.88C641.25,-78.88 533,-78.88 533,-78.88 527,-78.88 521,-72.88 521,-66.88 521,-66.88 521,-47.62 521,-47.62 521,-41.62 527,-35.62 533,-35.62 533,-35.62 641.25,-35.62 641.25,-35.62 647.25,-35.62 653.25,-41.62 653.25,-47.62 653.25,-47.62 653.25,-66.88 653.25,-66.88 653.25,-72.88 647.25,-78.88 641.25,-78.88"/>
<text text-anchor="middle" x="587.12" y="-61.58" font-family="Helvetica,sans-Serif" font-size="14.00" fill="#6d28d9">Step 2: qCompress</text>
<text text-anchor="middle" x="587.12" y="-46.58" font-family="Helvetica,sans-Serif" font-size="14.00" fill="#6d28d9">(非线性空间折叠)</text>
</g>
<!-- EMA&#45;&gt;qCompress -->
<g id="edge3" class="edge">
<title>EMA&#45;&gt;qCompress</title>
<path fill="none" stroke="#64748b" stroke-width="1.2" d="M397.42,-57.25C433.15,-57.25 475.66,-57.25 511.27,-57.25"/>
<polygon fill="#64748b" stroke="#64748b" stroke-width="1.2" points="510.83,-60.05 518.83,-57.25 510.83,-54.45 510.83,-60.05"/>
<text text-anchor="middle" x="459.12" y="-63.1" font-family="Helvetica,sans-Serif" font-size="12.00"> 滤后平滑复杂度</text>
</g>
<!-- Result -->
<g id="node5" class="node">
<title>Result</title>
<path fill="#ecfdf5" stroke="#10b981" stroke-width="1.5" d="M918.25,-81.5C918.25,-81.5 789,-81.5 789,-81.5 783,-81.5 777,-75.5 777,-69.5 777,-69.5 777,-45 777,-45 777,-39 783,-33 789,-33 789,-33 918.25,-33 918.25,-33 924.25,-33 930.25,-39 930.25,-45 930.25,-45 930.25,-69.5 930.25,-69.5 930.25,-75.5 924.25,-81.5 918.25,-81.5"/>
<text text-anchor="middle" x="853.62" y="-64.2" font-family="Helvetica,sans-Serif" font-size="14.00" fill="#047857">最终 QP 分配</text>
<text text-anchor="middle" x="853.62" y="-43.95" font-family="Helvetica,sans-Serif" font-size="14.00" fill="#047857">(温和调整，避免崩溃)</text>
</g>
<!-- qCompress&#45;&gt;Result -->
<g id="edge4" class="edge">
<title>qCompress&#45;&gt;Result</title>
<path fill="none" stroke="#64748b" stroke-width="1.2" d="M653.51,-57.25C687.77,-57.25 730.16,-57.25 767.02,-57.25"/>
<polygon fill="#64748b" stroke="#64748b" stroke-width="1.2" points="766.94,-60.05 774.94,-57.25 766.94,-54.45 766.94,-60.05"/>
<text text-anchor="middle" x="715.12" y="-63.1" font-family="Helvetica,sans-Serif" font-size="12.00"> 折叠后目标系数</text>
</g>
</g>
</svg>
