<?xml version="1.0" encoding="UTF-8" standalone="no"?>
<!DOCTYPE svg PUBLIC "-//W3C//DTD SVG 1.1//EN"
 "http://www.w3.org/Graphics/SVG/1.1/DTD/svg11.dtd">
<!-- Generated by graphviz version 12.2.1 (20241206.2353)
 -->
<!-- Pages: 1 -->
<svg width="1102pt" height="257pt"
 viewBox="0.00 0.00 1102.05 256.80" xmlns="http://www.w3.org/2000/svg" xmlns:xlink="http://www.w3.org/1999/xlink">
<g id="graph0" class="graph" transform="scale(1 1) rotate(0) translate(14.4 242.4)">
<polygon fill="white" stroke="none" points="-14.4,14.4 -14.4,-242.4 1087.65,-242.4 1087.65,14.4 -14.4,14.4"/>
<g id="clust1" class="cluster">
<title>cluster_Update</title>
<path fill="#f8fafc" stroke="#cbd5e1" stroke-width="2" d="M20,-8C20,-8 1053.25,-8 1053.25,-8 1059.25,-8 1065.25,-14 1065.25,-20 1065.25,-20 1065.25,-208 1065.25,-208 1065.25,-214 1059.25,-220 1053.25,-220 1053.25,-220 20,-220 20,-220 14,-220 8,-214 8,-208 8,-208 8,-20 8,-20 8,-14 14,-8 20,-8"/>
<text text-anchor="middle" x="536.62" y="-195.1" font-family="Helvetica, Arial, sans-serif" font-size="22.00">线性模型更新与容错 (LinReg Model Refresh)</text>
</g>
<!-- HW -->
<g id="node1" class="node">
<title>HW</title>
<path fill="#e1f5fe" stroke="#0288d1" d="M161.3,-168.45C161.3,-168.45 32,-168.45 32,-168.45 26,-168.45 20,-162.45 20,-156.45 20,-156.45 20,-113.55 20,-113.55 20,-107.55 26,-101.55 32,-101.55 32,-101.55 161.3,-101.55 161.3,-101.55 167.3,-101.55 173.3,-107.55 173.3,-113.55 173.3,-113.55 173.3,-156.45 173.3,-156.45 173.3,-162.45 167.3,-168.45 161.3,-168.45"/>
<text text-anchor="middle" x="96.65" y="-144.15" font-family="Helvetica, Arial, sans-serif" font-size="18.00">编码结束</text>
<text text-anchor="middle" x="96.65" y="-117.9" font-family="Helvetica, Arial, sans-serif" font-size="18.00">获取实际 bitCnt</text>
</g>
<!-- Scene -->
<g id="node2" class="node">
<title>Scene</title>
<path fill="#fff3e0" stroke="#f57c00" d="M409.1,-164.7C409.1,-164.7 230.3,-164.7 230.3,-164.7 224.3,-164.7 218.3,-158.7 218.3,-152.7 218.3,-152.7 218.3,-117.3 218.3,-117.3 218.3,-111.3 224.3,-105.3 230.3,-105.3 230.3,-105.3 409.1,-105.3 409.1,-105.3 415.1,-105.3 421.1,-111.3 421.1,-117.3 421.1,-117.3 421.1,-152.7 421.1,-152.7 421.1,-158.7 415.1,-164.7 409.1,-164.7"/>
<text text-anchor="middle" x="319.7" y="-140.4" font-family="Helvetica, Arial, sans-serif" font-size="18.00">场景切换检测</text>
<text text-anchor="middle" x="319.7" y="-114.15" font-family="Helvetica, Arial, sans-serif" font-size="18.00">(SceneChangeCheck)</text>
</g>
<!-- HW&#45;&gt;Scene -->
<g id="edge1" class="edge">
<title>HW&#45;&gt;Scene</title>
<path fill="none" stroke="black" stroke-width="1.8" d="M173.72,-135C183.96,-135 194.63,-135 205.33,-135"/>
<polygon fill="black" stroke="black" stroke-width="1.8" points="205.17,-138.5 215.17,-135 205.17,-131.5 205.17,-138.5"/>
</g>
<!-- Clear -->
<g id="node3" class="node">
<title>Clear</title>
<path fill="#fce4ec" stroke="#c2185b" d="M631.9,-79.7C631.9,-79.7 512.35,-79.7 512.35,-79.7 506.35,-79.7 500.35,-73.7 500.35,-67.7 500.35,-67.7 500.35,-32.3 500.35,-32.3 500.35,-26.3 506.35,-20.3 512.35,-20.3 512.35,-20.3 631.9,-20.3 631.9,-20.3 637.9,-20.3 643.9,-26.3 643.9,-32.3 643.9,-32.3 643.9,-67.7 643.9,-67.7 643.9,-73.7 637.9,-79.7 631.9,-79.7"/>
<text text-anchor="middle" x="572.12" y="-55.4" font-family="Helvetica, Arial, sans-serif" font-size="18.00">清空历史模型</text>
<text text-anchor="middle" x="572.12" y="-29.15" font-family="Helvetica, Arial, sans-serif" font-size="18.00">(EWLmemset)</text>
</g>
<!-- Scene&#45;&gt;Clear -->
<g id="edge2" class="edge">
<title>Scene&#45;&gt;Clear</title>
<path fill="none" stroke="#c2185b" stroke-width="1.8" d="M409.34,-104.91C434.97,-96.21 462.84,-86.75 488.11,-78.18"/>
<polygon fill="#c2185b" stroke="#c2185b" stroke-width="1.8" points="488.98,-81.58 497.33,-75.05 486.73,-74.95 488.98,-81.58"/>
<text text-anchor="middle" x="460.73" y="-93.8" font-family="Helvetica, Arial, sans-serif" font-size="16.00" fill="#c2185b"> Yes </text>
</g>
<!-- ErrRec -->
<g id="node4" class="node">
<title>ErrRec</title>
<path fill="#ede7f6" stroke="#7e57c2" d="M843.7,-168.7C843.7,-168.7 700.9,-168.7 700.9,-168.7 694.9,-168.7 688.9,-162.7 688.9,-156.7 688.9,-156.7 688.9,-121.3 688.9,-121.3 688.9,-115.3 694.9,-109.3 700.9,-109.3 700.9,-109.3 843.7,-109.3 843.7,-109.3 849.7,-109.3 855.7,-115.3 855.7,-121.3 855.7,-121.3 855.7,-156.7 855.7,-156.7 855.7,-162.7 849.7,-168.7 843.7,-168.7"/>
<text text-anchor="middle" x="772.3" y="-144.4" font-family="Helvetica, Arial, sans-serif" font-size="18.00">记录预测误差</text>
<text text-anchor="middle" x="772.3" y="-118.15" font-family="Helvetica, Arial, sans-serif" font-size="18.00">(update_rc_error)</text>
</g>
<!-- Scene&#45;&gt;ErrRec -->
<g id="edge4" class="edge">
<title>Scene&#45;&gt;ErrRec</title>
<path fill="none" stroke="black" stroke-width="1.8" d="M421.54,-135.9C497.57,-136.57 601.14,-137.49 675.83,-138.15"/>
<polygon fill="black" stroke="black" stroke-width="1.8" points="675.73,-141.65 685.76,-138.24 675.8,-134.65 675.73,-141.65"/>
<text text-anchor="middle" x="572.12" y="-139.16" font-family="Helvetica, Arial, sans-serif" font-size="16.00"> No </text>
</g>
<!-- Clear&#45;&gt;ErrRec -->
<g id="edge3" class="edge">
<title>Clear&#45;&gt;ErrRec</title>
<path fill="none" stroke="black" stroke-width="1.8" d="M640.22,-80.13C657.17,-87.74 675.51,-95.98 692.96,-103.82"/>
<polygon fill="black" stroke="black" stroke-width="1.8" points="691.23,-106.88 701.79,-107.78 694.1,-100.49 691.23,-106.88"/>
</g>
<!-- ModelUp -->
<g id="node5" class="node">
<title>ModelUp</title>
<path fill="#e8f5e9" stroke="#2e7d32" d="M1041.25,-168.7C1041.25,-168.7 912.7,-168.7 912.7,-168.7 906.7,-168.7 900.7,-162.7 900.7,-156.7 900.7,-156.7 900.7,-121.3 900.7,-121.3 900.7,-115.3 906.7,-109.3 912.7,-109.3 912.7,-109.3 1041.25,-109.3 1041.25,-109.3 1047.25,-109.3 1053.25,-115.3 1053.25,-121.3 1053.25,-121.3 1053.25,-156.7 1053.25,-156.7 1053.25,-162.7 1047.25,-168.7 1041.25,-168.7"/>
<text text-anchor="middle" x="976.98" y="-144.4" font-family="Helvetica, Arial, sans-serif" font-size="18.00">更新R&#45;Q参数</text>
<text text-anchor="middle" x="976.98" y="-118.15" font-family="Helvetica, Arial, sans-serif" font-size="18.00">(update_model)</text>
</g>
<!-- ErrRec&#45;&gt;ModelUp -->
<g id="edge5" class="edge">
<title>ErrRec&#45;&gt;ModelUp</title>
<path fill="none" stroke="black" stroke-width="1.8" d="M856.03,-139C866.46,-139 877.16,-139 887.66,-139"/>
<polygon fill="black" stroke="black" stroke-width="1.8" points="887.63,-142.5 897.63,-139 887.63,-135.5 887.63,-142.5"/>
</g>
</g>
</svg>
