<?xml version="1.0" encoding="UTF-8" standalone="no"?>
<!DOCTYPE svg PUBLIC "-//W3C//DTD SVG 1.1//EN"
 "http://www.w3.org/Graphics/SVG/1.1/DTD/svg11.dtd">
<!-- Generated by graphviz version 12.2.1 (20241206.2353)
 -->
<!-- Title: soc_ddr_arch Pages: 1 -->
<svg width="939pt" height="238pt"
 viewBox="0.00 0.00 938.75 238.00" xmlns="http://www.w3.org/2000/svg" xmlns:xlink="http://www.w3.org/1999/xlink">
<g id="graph0" class="graph" transform="scale(1 1) rotate(0) translate(4 234)">
<title>soc_ddr_arch</title>
<g id="clust1" class="cluster">
<title>cluster_External</title>
<polygon fill="none" stroke="#94a3b8" stroke-dasharray="5,2" points="8,-129 8,-222 457.25,-222 457.25,-129 8,-129"/>
<text text-anchor="middle" x="232.62" y="-204.7" font-family="Times,serif" font-size="14.00">外部存储 (片外 DDR / LPDDR)</text>
</g>
<g id="clust2" class="cluster">
<title>cluster_SoC</title>
<polygon fill="none" stroke="#22c55e" stroke-width="2" points="284.25,-8 284.25,-121 922.75,-121 922.75,-8 284.25,-8"/>
<text text-anchor="middle" x="603.5" y="-103.7" font-family="Times,serif" font-size="14.00">视频编码芯片 (片内 ASIC/SoC)</text>
</g>
<!-- DPB -->
<g id="node1" class="node">
<title>DPB</title>
<path fill="#cbd5e1" stroke="#64748b" d="M184.25,-185.25C184.25,-185.25 28,-185.25 28,-185.25 22,-185.25 16,-179.25 16,-173.25 16,-173.25 16,-148.75 16,-148.75 16,-142.75 22,-136.75 28,-136.75 28,-136.75 184.25,-136.75 184.25,-136.75 190.25,-136.75 196.25,-142.75 196.25,-148.75 196.25,-148.75 196.25,-173.25 196.25,-173.25 196.25,-179.25 190.25,-185.25 184.25,-185.25"/>
<text text-anchor="middle" x="106.12" y="-167.95" font-family="sans-serif" font-size="14.00">完整 DPB 缓存区</text>
<text text-anchor="middle" x="106.12" y="-147.7" font-family="sans-serif" font-size="14.00">(最高 15 帧, 动辄上百 MB)</text>
</g>
<!-- Ignored -->
<g id="node2" class="node">
<title>Ignored</title>
<path fill="#fee2e2" stroke="#ef4444" d="M437.25,-185.25C437.25,-185.25 302.75,-185.25 302.75,-185.25 296.75,-185.25 290.75,-179.25 290.75,-173.25 290.75,-173.25 290.75,-148.75 290.75,-148.75 290.75,-142.75 296.75,-136.75 302.75,-136.75 302.75,-136.75 437.25,-136.75 437.25,-136.75 443.25,-136.75 449.25,-142.75 449.25,-148.75 449.25,-148.75 449.25,-173.25 449.25,-173.25 449.25,-179.25 443.25,-185.25 437.25,-185.25"/>
<text text-anchor="middle" x="370" y="-167.95" font-family="sans-serif" font-size="14.00" fill="#b91c1c">被算法强行抛弃的老帧</text>
<text text-anchor="middle" x="370" y="-147.7" font-family="sans-serif" font-size="14.00" fill="#b91c1c">(拒绝访问以保带宽)</text>
</g>
<!-- DPB&#45;&gt;Ignored -->
<g id="edge1" class="edge">
<title>DPB&#45;&gt;Ignored</title>
<path fill="none" stroke="black" stroke-dasharray="1,5" d="M196.52,-161C227.04,-161 260.92,-161 290.52,-161"/>
</g>
<!-- DMA -->
<g id="node3" class="node">
<title>DMA</title>
<path fill="#fef08a" stroke="#eab308" d="M435.75,-81.25C435.75,-81.25 304.25,-81.25 304.25,-81.25 298.25,-81.25 292.25,-75.25 292.25,-69.25 292.25,-69.25 292.25,-44.75 292.25,-44.75 292.25,-38.75 298.25,-32.75 304.25,-32.75 304.25,-32.75 435.75,-32.75 435.75,-32.75 441.75,-32.75 447.75,-38.75 447.75,-44.75 447.75,-44.75 447.75,-69.25 447.75,-69.25 447.75,-75.25 441.75,-81.25 435.75,-81.25"/>
<text text-anchor="middle" x="370" y="-63.95" font-family="sans-serif" font-size="14.00">DMA 引擎</text>
<text text-anchor="middle" x="370" y="-43.7" font-family="sans-serif" font-size="14.00">(突发读取 Burst Fetch)</text>
</g>
<!-- DPB&#45;&gt;DMA -->
<g id="edge4" class="edge">
<title>DPB&#45;&gt;DMA</title>
<path fill="none" stroke="black" stroke-width="2" d="M169.19,-136.35C206.88,-121.38 255.22,-102.19 294.91,-86.42"/>
<polygon fill="black" stroke="black" stroke-width="2" points="296.12,-89.71 304.12,-82.77 293.53,-83.21 296.12,-89.71"/>
<text text-anchor="middle" x="243.5" y="-138.82" font-family="sans-serif" font-size="10.00">仅按需加载</text>
<text text-anchor="middle" x="243.5" y="-123.82" font-family="sans-serif" font-size="10.00">当前块搜索窗</text>
</g>
<!-- SRAM -->
<g id="node4" class="node">
<title>SRAM</title>
<path fill="#bbf7d0" stroke="#22c55e" d="M687.25,-84.38C687.25,-84.38 555.75,-84.38 555.75,-84.38 549.75,-84.38 543.75,-78.38 543.75,-72.38 543.75,-72.38 543.75,-27.62 543.75,-27.62 543.75,-21.62 549.75,-15.62 555.75,-15.62 555.75,-15.62 687.25,-15.62 687.25,-15.62 693.25,-15.62 699.25,-21.62 699.25,-27.62 699.25,-27.62 699.25,-72.38 699.25,-72.38 699.25,-78.38 693.25,-84.38 687.25,-84.38"/>
<text text-anchor="middle" x="621.5" y="-67.08" font-family="sans-serif" font-size="14.00">片内 SRAM</text>
<text text-anchor="middle" x="621.5" y="-46.83" font-family="sans-serif" font-size="14.00">参考像素缓存</text>
<text text-anchor="middle" x="621.5" y="-26.57" font-family="sans-serif" font-size="14.00">(例如 128x128 搜索窗)</text>
</g>
<!-- DMA&#45;&gt;SRAM -->
<g id="edge2" class="edge">
<title>DMA&#45;&gt;SRAM</title>
<path fill="none" stroke="black" d="M448.23,-54.83C474.9,-54.08 504.97,-53.24 532.44,-52.47"/>
<polygon fill="black" stroke="black" points="532.22,-55.98 542.12,-52.2 532.02,-48.98 532.22,-55.98"/>
<text text-anchor="middle" x="496.5" y="-59.63" font-family="sans-serif" font-size="10.00">片内高速总线</text>
</g>
<!-- MEMC -->
<g id="node5" class="node">
<title>MEMC</title>
<path fill="#bfdbfe" stroke="#3b82f6" d="M902.75,-74.25C902.75,-74.25 796,-74.25 796,-74.25 790,-74.25 784,-68.25 784,-62.25 784,-62.25 784,-37.75 784,-37.75 784,-31.75 790,-25.75 796,-25.75 796,-25.75 902.75,-25.75 902.75,-25.75 908.75,-25.75 914.75,-31.75 914.75,-37.75 914.75,-37.75 914.75,-62.25 914.75,-62.25 914.75,-68.25 908.75,-74.25 902.75,-74.25"/>
<text text-anchor="middle" x="849.38" y="-56.95" font-family="sans-serif" font-size="14.00">ME / MC 硬件核心</text>
<text text-anchor="middle" x="849.38" y="-36.7" font-family="sans-serif" font-size="14.00">(运动估计与补偿)</text>
</g>
<!-- SRAM&#45;&gt;MEMC -->
<g id="edge3" class="edge">
<title>SRAM&#45;&gt;MEMC</title>
<path fill="none" stroke="black" d="M699.6,-50C723.11,-50 748.92,-50 772.35,-50"/>
<polygon fill="black" stroke="black" points="772.13,-53.5 782.13,-50 772.13,-46.5 772.13,-53.5"/>
<text text-anchor="middle" x="741.62" y="-55.5" font-family="sans-serif" font-size="10.00">低延迟供给</text>
</g>
</g>
</svg>
