<?xml version="1.0" encoding="UTF-8" standalone="no"?>
<!DOCTYPE svg PUBLIC "-//W3C//DTD SVG 1.1//EN"
 "http://www.w3.org/Graphics/SVG/1.1/DTD/svg11.dtd">
<!-- Generated by graphviz version 12.2.1 (20241206.2353)
 -->
<!-- Title: mpm_tree Pages: 1 -->
<svg width="901pt" height="650pt"
 viewBox="0.00 0.00 901.00 650.00" xmlns="http://www.w3.org/2000/svg" xmlns:xlink="http://www.w3.org/1999/xlink">
<g id="graph0" class="graph" transform="scale(1 1) rotate(0) translate(4 646)">
<title>mpm_tree</title>
<!-- Start -->
<g id="node1" class="node">
<title>Start</title>
<path fill="#f8fafc" stroke="#cbd5e1" d="M570.12,-642C570.12,-642 390.62,-642 390.62,-642 384.62,-642 378.62,-636 378.62,-630 378.62,-630 378.62,-605.5 378.62,-605.5 378.62,-599.5 384.62,-593.5 390.62,-593.5 390.62,-593.5 570.12,-593.5 570.12,-593.5 576.12,-593.5 582.12,-599.5 582.12,-605.5 582.12,-605.5 582.12,-630 582.12,-630 582.12,-636 576.12,-642 570.12,-642"/>
<text text-anchor="middle" x="480.38" y="-624.7" font-family="sans-serif" font-size="14.00">获取左侧模式 A 和上方模式 B</text>
<text text-anchor="middle" x="480.38" y="-604.45" font-family="sans-serif" font-size="14.00">注：不可用或非 Intra 置为 DC</text>
</g>
<!-- CondEqual -->
<g id="node2" class="node">
<title>CondEqual</title>
<path fill="#fdf4ff" stroke="#d946ef" d="M468.83,-553.23C468.83,-553.23 428.27,-541.77 428.27,-541.77 422.5,-540.13 422.5,-536.87 428.27,-535.23 428.27,-535.23 468.83,-523.77 468.83,-523.77 474.6,-522.13 486.15,-522.13 491.92,-523.77 491.92,-523.77 532.48,-535.23 532.48,-535.23 538.25,-536.87 538.25,-540.13 532.48,-541.77 532.48,-541.77 491.92,-553.23 491.92,-553.23 486.15,-554.87 474.6,-554.87 468.83,-553.23"/>
<text text-anchor="middle" x="480.38" y="-532.7" font-family="sans-serif" font-size="14.00">A == B ?</text>
</g>
<!-- Start&#45;&gt;CondEqual -->
<g id="edge1" class="edge">
<title>Start&#45;&gt;CondEqual</title>
<path fill="none" stroke="black" d="M480.38,-593.15C480.38,-585.28 480.38,-576.43 480.38,-568.21"/>
<polygon fill="black" stroke="black" points="483.88,-568.34 480.38,-558.34 476.88,-568.34 483.88,-568.34"/>
</g>
<!-- CondAngular -->
<g id="node3" class="node">
<title>CondAngular</title>
<path fill="#fdf4ff" stroke="#d946ef" d="M385.24,-465.02C385.24,-465.02 300.01,-430.73 300.01,-430.73 294.44,-428.49 294.44,-424.01 300.01,-421.77 300.01,-421.77 385.24,-387.48 385.24,-387.48 390.81,-385.24 401.94,-385.24 407.51,-387.48 407.51,-387.48 492.74,-421.77 492.74,-421.77 498.31,-424.01 498.31,-428.49 492.74,-430.73 492.74,-430.73 407.51,-465.02 407.51,-465.02 401.94,-467.26 390.81,-467.26 385.24,-465.02"/>
<text text-anchor="middle" x="396.38" y="-430.57" font-family="sans-serif" font-size="14.00">A 是角度模式?</text>
<text text-anchor="middle" x="396.38" y="-410.32" font-family="sans-serif" font-size="14.00">(Mode &gt; 1)</text>
</g>
<!-- CondEqual&#45;&gt;CondAngular -->
<g id="edge2" class="edge">
<title>CondEqual&#45;&gt;CondAngular</title>
<path fill="none" stroke="black" d="M469.39,-523.09C458.92,-509.34 442.64,-487.97 428.1,-468.89"/>
<polygon fill="black" stroke="black" points="430.9,-466.79 422.06,-460.96 425.33,-471.03 430.9,-466.79"/>
<text text-anchor="middle" x="477.95" y="-493" font-family="sans-serif" font-size="10.00">是 (A == B)</text>
</g>
<!-- BaseMpm -->
<g id="node6" class="node">
<title>BaseMpm</title>
<path fill="#f8fafc" stroke="#cbd5e1" d="M640.75,-445.25C640.75,-445.25 576,-445.25 576,-445.25 570,-445.25 564,-439.25 564,-433.25 564,-433.25 564,-419.25 564,-419.25 564,-413.25 570,-407.25 576,-407.25 576,-407.25 640.75,-407.25 640.75,-407.25 646.75,-407.25 652.75,-413.25 652.75,-419.25 652.75,-419.25 652.75,-433.25 652.75,-433.25 652.75,-439.25 646.75,-445.25 640.75,-445.25"/>
<text text-anchor="middle" x="608.38" y="-427.95" font-family="sans-serif" font-size="14.00">MPM[0] = A</text>
<text text-anchor="middle" x="608.38" y="-412.95" font-family="sans-serif" font-size="14.00">MPM[1] = B</text>
</g>
<!-- CondEqual&#45;&gt;BaseMpm -->
<g id="edge5" class="edge">
<title>CondEqual&#45;&gt;BaseMpm</title>
<path fill="none" stroke="black" d="M495.56,-524.42C515.94,-506.87 552.57,-475.31 578.56,-452.93"/>
<polygon fill="black" stroke="black" points="580.83,-455.6 586.12,-446.42 576.26,-450.29 580.83,-455.6"/>
<text text-anchor="middle" x="559.96" y="-493" font-family="sans-serif" font-size="10.00">否 (A != B)</text>
</g>
<!-- MpmAng -->
<g id="node4" class="node">
<title>MpmAng</title>
<path fill="#f0fdf4" stroke="#22c55e" d="M244.75,-301.5C244.75,-301.5 12,-301.5 12,-301.5 6,-301.5 0,-295.5 0,-289.5 0,-289.5 0,-277.5 0,-277.5 0,-271.5 6,-265.5 12,-265.5 12,-265.5 244.75,-265.5 244.75,-265.5 250.75,-265.5 256.75,-271.5 256.75,-277.5 256.75,-277.5 256.75,-289.5 256.75,-289.5 256.75,-295.5 250.75,-301.5 244.75,-301.5"/>
<text text-anchor="middle" x="128.38" y="-280.32" font-family="sans-serif bold" font-size="14.00">MPM = [ A, 逆时针(A&#45;1), 顺时针(A+1) ]</text>
</g>
<!-- CondAngular&#45;&gt;MpmAng -->
<g id="edge3" class="edge">
<title>CondAngular&#45;&gt;MpmAng</title>
<path fill="none" stroke="black" d="M350.3,-401.05C300.14,-374.71 220.56,-332.91 171.56,-307.18"/>
<polygon fill="black" stroke="black" points="173.41,-304.2 162.93,-302.65 170.16,-310.4 173.41,-304.2"/>
<text text-anchor="middle" x="283.3" y="-355.5" font-family="sans-serif" font-size="10.00">是</text>
</g>
<!-- MpmNonAng -->
<g id="node5" class="node">
<title>MpmNonAng</title>
<path fill="#f0fdf4" stroke="#22c55e" d="M505.62,-301.5C505.62,-301.5 287.12,-301.5 287.12,-301.5 281.12,-301.5 275.12,-295.5 275.12,-289.5 275.12,-289.5 275.12,-277.5 275.12,-277.5 275.12,-271.5 281.12,-265.5 287.12,-265.5 287.12,-265.5 505.62,-265.5 505.62,-265.5 511.62,-265.5 517.62,-271.5 517.62,-277.5 517.62,-277.5 517.62,-289.5 517.62,-289.5 517.62,-295.5 511.62,-301.5 505.62,-301.5"/>
<text text-anchor="middle" x="396.38" y="-280.32" font-family="sans-serif bold" font-size="14.00">MPM = [ Planar(0), DC(1), 垂直(26) ]</text>
</g>
<!-- CondAngular&#45;&gt;MpmNonAng -->
<g id="edge4" class="edge">
<title>CondAngular&#45;&gt;MpmNonAng</title>
<path fill="none" stroke="black" d="M396.38,-382.64C396.38,-360.12 396.38,-333.1 396.38,-313.11"/>
<polygon fill="black" stroke="black" points="399.88,-313.19 396.38,-303.19 392.88,-313.19 399.88,-313.19"/>
<text text-anchor="middle" x="435" y="-355.5" font-family="sans-serif" font-size="10.00">否 (Planar 或 DC)</text>
</g>
<!-- CondPlanar -->
<g id="node7" class="node">
<title>CondPlanar</title>
<path fill="#fdf4ff" stroke="#d946ef" d="M640.31,-327.36C640.31,-327.36 546.69,-288.14 546.69,-288.14 541.16,-285.82 541.16,-281.18 546.69,-278.86 546.69,-278.86 640.31,-239.64 640.31,-239.64 645.84,-237.32 656.91,-237.32 662.44,-239.64 662.44,-239.64 756.06,-278.86 756.06,-278.86 761.59,-281.18 761.59,-285.82 756.06,-288.14 756.06,-288.14 662.44,-327.36 662.44,-327.36 656.91,-329.68 645.84,-329.68 640.31,-327.36"/>
<text text-anchor="middle" x="651.38" y="-290.45" font-family="sans-serif" font-size="14.00">A 和 B 都</text>
<text text-anchor="middle" x="651.38" y="-270.2" font-family="sans-serif" font-size="14.00">不是 Planar(0) ?</text>
</g>
<!-- BaseMpm&#45;&gt;CondPlanar -->
<g id="edge6" class="edge">
<title>BaseMpm&#45;&gt;CondPlanar</title>
<path fill="none" stroke="black" d="M614,-406.85C619.35,-389.34 627.66,-362.13 635.09,-337.81"/>
<polygon fill="black" stroke="black" points="638.41,-338.92 637.98,-328.33 631.72,-336.87 638.41,-338.92"/>
</g>
<!-- MpmP -->
<g id="node8" class="node">
<title>MpmP</title>
<path fill="#f0fdf4" stroke="#22c55e" d="M644.88,-153.5C644.88,-153.5 529.88,-153.5 529.88,-153.5 523.88,-153.5 517.88,-147.5 517.88,-141.5 517.88,-141.5 517.88,-129.5 517.88,-129.5 517.88,-123.5 523.88,-117.5 529.88,-117.5 529.88,-117.5 644.88,-117.5 644.88,-117.5 650.88,-117.5 656.88,-123.5 656.88,-129.5 656.88,-129.5 656.88,-141.5 656.88,-141.5 656.88,-147.5 650.88,-153.5 644.88,-153.5"/>
<text text-anchor="middle" x="587.38" y="-129.7" font-family="sans-serif bold" font-size="14.00">MPM[2] = Planar(0)</text>
</g>
<!-- CondPlanar&#45;&gt;MpmP -->
<g id="edge7" class="edge">
<title>CondPlanar&#45;&gt;MpmP</title>
<path fill="none" stroke="black" d="M633.72,-242.22C622.83,-217.38 609.15,-186.17 599.48,-164.12"/>
<polygon fill="black" stroke="black" points="602.79,-162.94 595.57,-155.19 596.38,-165.75 602.79,-162.94"/>
<text text-anchor="middle" x="649.42" y="-207.5" font-family="sans-serif" font-size="10.00">是 (都不含 0)</text>
</g>
<!-- CondDC -->
<g id="node9" class="node">
<title>CondDC</title>
<path fill="#fdf4ff" stroke="#d946ef" d="M751.89,-178.17C751.89,-178.17 685.61,-141.33 685.61,-141.33 680.37,-138.42 680.37,-132.58 685.61,-129.67 685.61,-129.67 751.89,-92.83 751.89,-92.83 757.13,-89.92 767.62,-89.92 772.86,-92.83 772.86,-92.83 839.14,-129.67 839.14,-129.67 844.38,-132.58 844.38,-138.42 839.14,-141.33 839.14,-141.33 772.86,-178.17 772.86,-178.17 767.62,-181.08 757.13,-181.08 751.89,-178.17"/>
<text text-anchor="middle" x="762.38" y="-142.45" font-family="sans-serif" font-size="14.00">另一个是否</text>
<text text-anchor="middle" x="762.38" y="-122.2" font-family="sans-serif" font-size="14.00">为 DC(1) ?</text>
</g>
<!-- CondPlanar&#45;&gt;CondDC -->
<g id="edge8" class="edge">
<title>CondPlanar&#45;&gt;CondDC</title>
<path fill="none" stroke="black" d="M678.81,-246.41C694.25,-226.11 713.61,-200.64 729.81,-179.33"/>
<polygon fill="black" stroke="black" points="732.59,-181.46 735.86,-171.38 727.02,-177.22 732.59,-181.46"/>
<text text-anchor="middle" x="738.33" y="-207.5" font-family="sans-serif" font-size="10.00">否 (必然含 0)</text>
</g>
<!-- MpmV -->
<g id="node10" class="node">
<title>MpmV</title>
<path fill="#f0fdf4" stroke="#22c55e" d="M745.25,-36C745.25,-36 635.5,-36 635.5,-36 629.5,-36 623.5,-30 623.5,-24 623.5,-24 623.5,-12 623.5,-12 623.5,-6 629.5,0 635.5,0 635.5,0 745.25,0 745.25,0 751.25,0 757.25,-6 757.25,-12 757.25,-12 757.25,-24 757.25,-24 757.25,-30 751.25,-36 745.25,-36"/>
<text text-anchor="middle" x="690.38" y="-14.82" font-family="sans-serif bold" font-size="14.00">MPM[2] = 垂直(26)</text>
</g>
<!-- CondDC&#45;&gt;MpmV -->
<g id="edge9" class="edge">
<title>CondDC&#45;&gt;MpmV</title>
<path fill="none" stroke="black" d="M740.19,-98.9C729.54,-81.83 717,-61.71 707.17,-45.94"/>
<polygon fill="black" stroke="black" points="710.2,-44.19 701.94,-37.55 704.26,-47.89 710.2,-44.19"/>
<text text-anchor="middle" x="753.68" y="-59.5" font-family="sans-serif" font-size="10.00">是 (即含 0 和 1)</text>
</g>
<!-- MpmD -->
<g id="node11" class="node">
<title>MpmD</title>
<path fill="#f0fdf4" stroke="#22c55e" d="M881,-36C881,-36 787.75,-36 787.75,-36 781.75,-36 775.75,-30 775.75,-24 775.75,-24 775.75,-12 775.75,-12 775.75,-6 781.75,0 787.75,0 787.75,0 881,0 881,0 887,0 893,-6 893,-12 893,-12 893,-24 893,-24 893,-30 887,-36 881,-36"/>
<text text-anchor="middle" x="834.38" y="-12.2" font-family="sans-serif bold" font-size="14.00">MPM[2] = DC(1)</text>
</g>
<!-- CondDC&#45;&gt;MpmD -->
<g id="edge10" class="edge">
<title>CondDC&#45;&gt;MpmD</title>
<path fill="none" stroke="black" d="M784.56,-98.9C795.21,-81.83 807.75,-61.71 817.58,-45.94"/>
<polygon fill="black" stroke="black" points="820.49,-47.89 822.81,-37.55 814.55,-44.19 820.49,-47.89"/>
<text text-anchor="middle" x="851.96" y="-59.5" font-family="sans-serif" font-size="10.00">否 (即含 0 和 角度)</text>
</g>
</g>
</svg>
