<?xml version="1.0" encoding="UTF-8" standalone="no"?>
<!DOCTYPE svg PUBLIC "-//W3C//DTD SVG 1.1//EN"
 "http://www.w3.org/Graphics/SVG/1.1/DTD/svg11.dtd">
<!-- Generated by graphviz version 12.2.1 (20241206.2353)
 -->
<!-- Title: mvd_flow Pages: 1 -->
<svg width="448pt" height="683pt"
 viewBox="0.00 0.00 447.53 682.50" xmlns="http://www.w3.org/2000/svg" xmlns:xlink="http://www.w3.org/1999/xlink">
<g id="graph0" class="graph" transform="scale(1 1) rotate(0) translate(4 678.5)">
<title>mvd_flow</title>
<!-- MVD -->
<g id="node1" class="node">
<title>MVD</title>
<path fill="#f1f5f9" stroke="black" d="M321,-674.5C321,-674.5 218.75,-674.5 218.75,-674.5 212.75,-674.5 206.75,-668.5 206.75,-662.5 206.75,-662.5 206.75,-650.5 206.75,-650.5 206.75,-644.5 212.75,-638.5 218.75,-638.5 218.75,-638.5 321,-638.5 321,-638.5 327,-638.5 333,-644.5 333,-650.5 333,-650.5 333,-662.5 333,-662.5 333,-668.5 327,-674.5 321,-674.5"/>
<text text-anchor="middle" x="269.88" y="-653.33" font-family="sans-serif" font-size="14.00">输入的 MVD 分量</text>
</g>
<!-- Q1 -->
<g id="node2" class="node">
<title>Q1</title>
<path fill="#fef3c7" stroke="black" d="M259.09,-596.24C259.09,-596.24 191.91,-563.51 191.91,-563.51 186.52,-560.88 186.52,-555.62 191.91,-552.99 191.91,-552.99 259.09,-520.26 259.09,-520.26 264.48,-517.63 275.27,-517.63 280.66,-520.26 280.66,-520.26 347.84,-552.99 347.84,-552.99 353.23,-555.62 353.23,-560.88 347.84,-563.51 347.84,-563.51 280.66,-596.24 280.66,-596.24 275.27,-598.87 264.48,-598.87 259.09,-596.24"/>
<text text-anchor="middle" x="269.88" y="-562.58" font-family="sans-serif" font-size="14.00">|MVD| &gt; 0 ?</text>
<text text-anchor="middle" x="269.88" y="-547.58" font-family="sans-serif" font-size="14.00">(零值检测)</text>
</g>
<!-- MVD&#45;&gt;Q1 -->
<g id="edge1" class="edge">
<title>MVD&#45;&gt;Q1</title>
<path fill="none" stroke="black" d="M269.88,-638.29C269.88,-631.14 269.88,-622.42 269.88,-613.41"/>
<polygon fill="black" stroke="black" points="273.38,-613.45 269.88,-603.45 266.38,-613.45 273.38,-613.45"/>
</g>
<!-- Q2 -->
<g id="node3" class="node">
<title>Q2</title>
<path fill="#fef3c7" stroke="black" d="M180.09,-443.74C180.09,-443.74 112.91,-411.01 112.91,-411.01 107.52,-408.38 107.52,-403.12 112.91,-400.49 112.91,-400.49 180.09,-367.76 180.09,-367.76 185.48,-365.13 196.27,-365.13 201.66,-367.76 201.66,-367.76 268.84,-400.49 268.84,-400.49 274.23,-403.12 274.23,-408.38 268.84,-411.01 268.84,-411.01 201.66,-443.74 201.66,-443.74 196.27,-446.37 185.48,-446.37 180.09,-443.74"/>
<text text-anchor="middle" x="190.88" y="-410.07" font-family="sans-serif" font-size="14.00">|MVD| &gt; 1 ?</text>
<text text-anchor="middle" x="190.88" y="-395.07" font-family="sans-serif" font-size="14.00">(大值检测)</text>
</g>
<!-- Q1&#45;&gt;Q2 -->
<g id="edge2" class="edge">
<title>Q1&#45;&gt;Q2</title>
<path fill="none" stroke="black" d="M245.03,-526.72C238.2,-517.5 231.17,-507.13 225.62,-497 218.31,-483.62 211.81,-468.37 206.46,-454.26"/>
<polygon fill="black" stroke="black" points="209.86,-453.36 203.13,-445.17 203.29,-455.76 209.86,-453.36"/>
<text text-anchor="middle" x="276.25" y="-487.5" font-family="sans-serif" font-size="10.00">是</text>
<text text-anchor="middle" x="276.25" y="-472.5" font-family="sans-serif" font-size="10.00">[CABAC Context 查表]</text>
</g>
<!-- End -->
<g id="node4" class="node">
<title>End</title>
<ellipse fill="#dbeafe" stroke="black" cx="348.88" cy="-405.75" rx="51.62" ry="19.98"/>
<text text-anchor="middle" x="348.88" y="-402.57" font-family="sans-serif" font-size="14.00">提前结束</text>
</g>
<!-- Q1&#45;&gt;End -->
<g id="edge3" class="edge">
<title>Q1&#45;&gt;End</title>
<path fill="none" stroke="black" d="M301.39,-529.99C310.8,-520.41 320.34,-509.02 326.88,-497 336.93,-478.52 342.45,-455.45 345.45,-437.25"/>
<polygon fill="black" stroke="black" points="348.87,-438 346.85,-427.6 341.95,-436.99 348.87,-438"/>
<text text-anchor="middle" x="388.9" y="-487.5" font-family="sans-serif" font-size="10.00">否</text>
<text text-anchor="middle" x="388.9" y="-472.5" font-family="sans-serif" font-size="10.00">[CABAC Context 查表]</text>
</g>
<!-- GR -->
<g id="node5" class="node">
<title>GR</title>
<path fill="#f1f5f9" stroke="black" d="M198.62,-296.5C198.62,-296.5 61.12,-296.5 61.12,-296.5 55.12,-296.5 49.12,-290.5 49.12,-284.5 49.12,-284.5 49.12,-272.5 49.12,-272.5 49.12,-266.5 55.12,-260.5 61.12,-260.5 61.12,-260.5 198.62,-260.5 198.62,-260.5 204.62,-260.5 210.62,-266.5 210.62,-272.5 210.62,-272.5 210.62,-284.5 210.62,-284.5 210.62,-290.5 204.62,-296.5 198.62,-296.5"/>
<text text-anchor="middle" x="129.88" y="-275.32" font-family="sans-serif" font-size="14.00">提取残差: L = |MVD| &#45; 2</text>
</g>
<!-- Q2&#45;&gt;GR -->
<g id="edge4" class="edge">
<title>Q2&#45;&gt;GR</title>
<path fill="none" stroke="black" d="M165.1,-374.64C158.22,-365.43 151.33,-354.96 146.38,-344.5 140.95,-333.06 137.16,-319.61 134.59,-307.92"/>
<polygon fill="black" stroke="black" points="138.09,-307.57 132.71,-298.44 131.23,-308.93 138.09,-307.57"/>
<text text-anchor="middle" x="189.12" y="-335" font-family="sans-serif" font-size="10.00">是</text>
<text text-anchor="middle" x="189.12" y="-320" font-family="sans-serif" font-size="10.00">[切换 Context 查表]</text>
</g>
<!-- Sign -->
<g id="node6" class="node">
<title>Sign</title>
<path fill="#f1f5f9" stroke="black" d="M222.75,-109C222.75,-109 131,-109 131,-109 125,-109 119,-103 119,-97 119,-97 119,-85 119,-85 119,-79 125,-73 131,-73 131,-73 222.75,-73 222.75,-73 228.75,-73 234.75,-79 234.75,-85 234.75,-85 234.75,-97 234.75,-97 234.75,-103 228.75,-109 222.75,-109"/>
<text text-anchor="middle" x="176.88" y="-87.83" font-family="sans-serif" font-size="14.00">进入符号位处理</text>
</g>
<!-- Q2&#45;&gt;Sign -->
<g id="edge5" class="edge">
<title>Q2&#45;&gt;Sign</title>
<path fill="none" stroke="black" d="M216.44,-374.71C222.73,-365.59 228.6,-355.14 231.88,-344.5 245.16,-301.35 294.49,-311.29 226.88,-146 222.53,-135.38 215.08,-125.57 207.24,-117.3"/>
<polygon fill="black" stroke="black" points="209.72,-114.83 200.12,-110.33 204.82,-119.83 209.72,-114.83"/>
<text text-anchor="middle" x="301.01" y="-233" font-family="sans-serif" font-size="10.00">否</text>
<text text-anchor="middle" x="301.01" y="-218" font-family="sans-serif" font-size="10.00">[切换 Context 查表]</text>
</g>
<!-- Bypass -->
<g id="node7" class="node">
<title>Bypass</title>
<path fill="#e2e8f0" stroke="black" d="M205.75,-194.5C205.75,-194.5 12,-194.5 12,-194.5 6,-194.5 0,-188.5 0,-182.5 0,-182.5 0,-158 0,-158 0,-152 6,-146 12,-146 12,-146 205.75,-146 205.75,-146 211.75,-146 217.75,-152 217.75,-158 217.75,-158 217.75,-182.5 217.75,-182.5 217.75,-188.5 211.75,-194.5 205.75,-194.5"/>
<text text-anchor="middle" x="108.88" y="-177.2" font-family="sans-serif" font-size="14.00">Golomb&#45;Rice 编码 (Bypass 旁路)</text>
<text text-anchor="middle" x="108.88" y="-156.95" font-family="sans-serif" font-size="14.00">发送截断一元码</text>
</g>
<!-- GR&#45;&gt;Bypass -->
<g id="edge6" class="edge">
<title>GR&#45;&gt;Bypass</title>
<path fill="none" stroke="black" d="M126.5,-260.43C123.6,-245.73 119.31,-224.06 115.7,-205.76"/>
<polygon fill="black" stroke="black" points="119.16,-205.23 113.79,-196.1 112.29,-206.59 119.16,-205.23"/>
</g>
<!-- SignEnc -->
<g id="node8" class="node">
<title>SignEnc</title>
<path fill="#e2e8f0" stroke="black" d="M253.12,-36C253.12,-36 100.62,-36 100.62,-36 94.63,-36 88.62,-30 88.62,-24 88.62,-24 88.62,-12 88.62,-12 88.62,-6 94.62,0 100.62,0 100.62,0 253.12,0 253.12,0 259.12,0 265.12,-6 265.12,-12 265.12,-12 265.12,-24 265.12,-24 265.12,-30 259.12,-36 253.12,-36"/>
<text text-anchor="middle" x="176.88" y="-14.82" font-family="sans-serif" font-size="14.00">发送符号位 (Bypass 旁路)</text>
</g>
<!-- Sign&#45;&gt;SignEnc -->
<g id="edge8" class="edge">
<title>Sign&#45;&gt;SignEnc</title>
<path fill="none" stroke="black" d="M176.88,-72.81C176.88,-65.23 176.88,-56.1 176.88,-47.54"/>
<polygon fill="black" stroke="black" points="180.38,-47.54 176.88,-37.54 173.38,-47.54 180.38,-47.54"/>
</g>
<!-- Bypass&#45;&gt;Sign -->
<g id="edge7" class="edge">
<title>Bypass&#45;&gt;Sign</title>
<path fill="none" stroke="black" d="M129.65,-145.65C137.38,-136.87 146.2,-126.85 154.1,-117.87"/>
<polygon fill="black" stroke="black" points="156.64,-120.28 160.63,-110.46 151.39,-115.65 156.64,-120.28"/>
</g>
</g>
</svg>
