<?xml version="1.0" encoding="UTF-8" standalone="no"?>
<!DOCTYPE svg PUBLIC "-//W3C//DTD SVG 1.1//EN"
 "http://www.w3.org/Graphics/SVG/1.1/DTD/svg11.dtd">
<!-- Generated by graphviz version 12.2.1 (20241206.2353)
 -->
<!-- Pages: 1 -->
<svg width="755pt" height="372pt"
 viewBox="0.00 0.00 754.59 371.80" xmlns="http://www.w3.org/2000/svg" xmlns:xlink="http://www.w3.org/1999/xlink">
<g id="graph0" class="graph" transform="scale(1 1) rotate(0) translate(14.4 357.4)">
<polygon fill="white" stroke="none" points="-14.4,14.4 -14.4,-357.4 740.19,-357.4 740.19,14.4 -14.4,14.4"/>
<g id="clust1" class="cluster">
<title>cluster_Alloc</title>
<path fill="#f8fafc" stroke="#cbd5e1" stroke-width="2" d="M20,-8C20,-8 705.79,-8 705.79,-8 711.79,-8 717.79,-14 717.79,-20 717.79,-20 717.79,-323 717.79,-323 717.79,-329 711.79,-335 705.79,-335 705.79,-335 20,-335 20,-335 14,-335 8,-329 8,-323 8,-323 8,-20 8,-20 8,-14 14,-8 20,-8"/>
<text text-anchor="middle" x="362.9" y="-310.1" font-family="Helvetica, Arial, sans-serif" font-size="22.00">帧级目标比特分配 (Bit Allocation &amp; Intra Stealing)</text>
</g>
<!-- vb -->
<g id="node1" class="node">
<title>vb</title>
<path fill="#e1f5fe" stroke="#0288d1" d="M166.55,-79.7C166.55,-79.7 43.25,-79.7 43.25,-79.7 37.25,-79.7 31.25,-73.7 31.25,-67.7 31.25,-67.7 31.25,-32.3 31.25,-32.3 31.25,-26.3 37.25,-20.3 43.25,-20.3 43.25,-20.3 166.55,-20.3 166.55,-20.3 172.55,-20.3 178.55,-26.3 178.55,-32.3 178.55,-32.3 178.55,-67.7 178.55,-67.7 178.55,-73.7 172.55,-79.7 166.55,-79.7"/>
<text text-anchor="middle" x="104.9" y="-55.4" font-family="Helvetica, Arial, sans-serif" font-size="18.00">基础预算</text>
<text text-anchor="middle" x="104.9" y="-29.15" font-family="Helvetica, Arial, sans-serif" font-size="18.00">(vb&#45;&gt;bitPerPic)</text>
</g>
<!-- Sum -->
<g id="node4" class="node">
<title>Sum</title>
<ellipse fill="#e8f5e9" stroke="#2e7d32" cx="350.9" cy="-62" rx="103.1" ry="42"/>
<text text-anchor="middle" x="350.9" y="-67.4" font-family="Helvetica, Arial, sans-serif" font-size="18.00">目标尺寸</text>
<text text-anchor="middle" x="350.9" y="-41.15" font-family="Helvetica, Arial, sans-serif" font-size="18.00">(targetPicSize)</text>
</g>
<!-- vb&#45;&gt;Sum -->
<g id="edge1" class="edge">
<title>vb&#45;&gt;Sum</title>
<path fill="none" stroke="black" stroke-width="1.8" d="M178.78,-53.58C196.63,-54.46 216.17,-55.42 235.46,-56.37"/>
<polygon fill="black" stroke="black" stroke-width="1.8" points="235.19,-59.86 245.35,-56.86 235.54,-52.87 235.19,-59.86"/>
</g>
<!-- Intra -->
<g id="node2" class="node">
<title>Intra</title>
<path fill="#fce4ec" stroke="#c2185b" d="M151.17,-181.7C151.17,-181.7 58.62,-181.7 58.62,-181.7 52.62,-181.7 46.62,-175.7 46.62,-169.7 46.62,-169.7 46.62,-134.3 46.62,-134.3 46.62,-128.3 52.62,-122.3 58.62,-122.3 58.62,-122.3 151.17,-122.3 151.17,-122.3 157.17,-122.3 163.17,-128.3 163.17,-134.3 163.17,-134.3 163.17,-169.7 163.17,-169.7 163.17,-175.7 157.17,-181.7 151.17,-181.7"/>
<text text-anchor="middle" x="104.9" y="-157.4" font-family="Helvetica, Arial, sans-serif" font-size="18.00">I帧偷取</text>
<text text-anchor="middle" x="104.9" y="-131.15" font-family="Helvetica, Arial, sans-serif" font-size="18.00">(&#45; intraBits)</text>
</g>
<!-- Intra&#45;&gt;Sum -->
<g id="edge2" class="edge">
<title>Intra&#45;&gt;Sum</title>
<path fill="none" stroke="black" stroke-width="1.8" stroke-dasharray="5,2" d="M163.41,-130.79C192.78,-119.95 229.13,-106.54 261.92,-94.45"/>
<polygon fill="black" stroke="black" stroke-width="1.8" points="263.1,-97.75 271.27,-91 260.68,-91.18 263.1,-97.75"/>
</g>
<!-- Err -->
<g id="node3" class="node">
<title>Err</title>
<path fill="#ede7f6" stroke="#7e57c2" d="M177.8,-283.7C177.8,-283.7 32,-283.7 32,-283.7 26,-283.7 20,-277.7 20,-271.7 20,-271.7 20,-236.3 20,-236.3 20,-230.3 26,-224.3 32,-224.3 32,-224.3 177.8,-224.3 177.8,-224.3 183.8,-224.3 189.8,-230.3 189.8,-236.3 189.8,-236.3 189.8,-271.7 189.8,-271.7 189.8,-277.7 183.8,-283.7 177.8,-283.7"/>
<text text-anchor="middle" x="104.9" y="-259.4" font-family="Helvetica, Arial, sans-serif" font-size="18.00">历史误差补偿</text>
<text text-anchor="middle" x="104.9" y="-233.15" font-family="Helvetica, Arial, sans-serif" font-size="18.00">(+ tmp/rcWindow)</text>
</g>
<!-- Err&#45;&gt;Sum -->
<g id="edge3" class="edge">
<title>Err&#45;&gt;Sum</title>
<path fill="none" stroke="black" stroke-width="1.8" stroke-dasharray="5,2" d="M158.74,-223.83C169.25,-217.29 180.05,-210.17 189.8,-203 228.87,-174.26 269.86,-138.03 300.59,-109.49"/>
<polygon fill="black" stroke="black" stroke-width="1.8" points="302.87,-112.15 307.79,-102.76 298.09,-107.03 302.87,-112.15"/>
</g>
<!-- Limit -->
<g id="node5" class="node">
<title>Limit</title>
<path fill="#fff3e0" stroke="#f57c00" d="M693.79,-91.7C693.79,-91.7 523.99,-91.7 523.99,-91.7 517.99,-91.7 511.99,-85.7 511.99,-79.7 511.99,-79.7 511.99,-44.3 511.99,-44.3 511.99,-38.3 517.99,-32.3 523.99,-32.3 523.99,-32.3 693.79,-32.3 693.79,-32.3 699.79,-32.3 705.79,-38.3 705.79,-44.3 705.79,-44.3 705.79,-79.7 705.79,-79.7 705.79,-85.7 699.79,-91.7 693.79,-91.7"/>
<text text-anchor="middle" x="608.89" y="-67.4" font-family="Helvetica, Arial, sans-serif" font-size="18.00">下限保护</text>
<text text-anchor="middle" x="608.89" y="-41.15" font-family="Helvetica, Arial, sans-serif" font-size="18.00">(MAX(96+..., target))</text>
</g>
<!-- Sum&#45;&gt;Limit -->
<g id="edge4" class="edge">
<title>Sum&#45;&gt;Limit</title>
<path fill="none" stroke="black" stroke-width="1.8" d="M454.18,-62C468.97,-62 484.25,-62 499.17,-62"/>
<polygon fill="black" stroke="black" stroke-width="1.8" points="498.87,-65.5 508.87,-62 498.87,-58.5 498.87,-65.5"/>
</g>
</g>
</svg>
