<?xml version="1.0" encoding="UTF-8" standalone="no"?>
<!DOCTYPE svg PUBLIC "-//W3C//DTD SVG 1.1//EN"
 "http://www.w3.org/Graphics/SVG/1.1/DTD/svg11.dtd">
<!-- Generated by graphviz version 12.2.1 (20241206.2353)
 -->
<!-- Pages: 1 -->
<svg width="1318pt" height="425pt"
 viewBox="0.00 0.00 1317.62 424.80" xmlns="http://www.w3.org/2000/svg" xmlns:xlink="http://www.w3.org/1999/xlink">
<g id="graph0" class="graph" transform="scale(1 1) rotate(0) translate(14.4 410.4)">
<polygon fill="white" stroke="none" points="-14.4,14.4 -14.4,-410.4 1303.22,-410.4 1303.22,14.4 -14.4,14.4"/>
<g id="clust1" class="cluster">
<title>cluster_MC</title>
<path fill="none" stroke="#999999" stroke-dasharray="5,2" d="M12,-40C12,-40 220.75,-40 220.75,-40 226.75,-40 232.75,-46 232.75,-52 232.75,-52 232.75,-348 232.75,-348 232.75,-354 226.75,-360 220.75,-360 220.75,-360 12,-360 12,-360 6,-360 0,-354 0,-348 0,-348 0,-52 0,-52 0,-46 6,-40 12,-40"/>
<text text-anchor="middle" x="116.38" y="-337" font-family="Helvetica, Arial, sans-serif" font-size="20.00">MC 插值引擎 (串行输出)</text>
</g>
<g id="clust2" class="cluster">
<title>cluster_Buffer</title>
<path fill="#fff8e1" stroke="#ffb300" stroke-width="2" d="M261.75,-8C261.75,-8 515.5,-8 515.5,-8 521.5,-8 527.5,-14 527.5,-20 527.5,-20 527.5,-376 527.5,-376 527.5,-382 521.5,-388 515.5,-388 515.5,-388 261.75,-388 261.75,-388 255.75,-388 249.75,-382 249.75,-376 249.75,-376 249.75,-20 249.75,-20 249.75,-14 255.75,-8 261.75,-8"/>
<text text-anchor="middle" x="388.62" y="-365" font-family="Helvetica, Arial, sans-serif" font-size="20.00">预测数据缓冲池 (Pred Buffer)</text>
</g>
<g id="clust3" class="cluster">
<title>cluster_RDO</title>
<path fill="#e8f5e9" stroke="#2e7d32" stroke-width="2" d="M1054.57,-52C1054.57,-52 1276.82,-52 1276.82,-52 1282.82,-52 1288.82,-58 1288.82,-64 1288.82,-64 1288.82,-360 1288.82,-360 1288.82,-366 1282.82,-372 1276.82,-372 1276.82,-372 1054.57,-372 1054.57,-372 1048.57,-372 1042.57,-366 1042.57,-360 1042.57,-360 1042.57,-64 1042.57,-64 1042.57,-58 1048.57,-52 1054.57,-52"/>
<text text-anchor="middle" x="1165.69" y="-349" font-family="Helvetica, Arial, sans-serif" font-size="20.00">RDO 引擎 (宏观并发起跑)</text>
</g>
<!-- MC8 -->
<g id="node1" class="node">
<title>MC8</title>
<path fill="#e1f5fe" stroke="#0288d1" d="M174.53,-306.32C174.53,-306.32 57.22,-306.32 57.22,-306.32 51.22,-306.32 45.22,-300.32 45.22,-294.32 45.22,-294.32 45.22,-277.68 45.22,-277.68 45.22,-271.68 51.22,-265.68 57.22,-265.68 57.22,-265.68 174.53,-265.68 174.53,-265.68 180.53,-265.68 186.53,-271.68 186.53,-277.68 186.53,-277.68 186.53,-294.32 186.53,-294.32 186.53,-300.32 180.53,-306.32 174.53,-306.32"/>
<text text-anchor="middle" x="115.88" y="-282.02" font-family="Helvetica, Arial, sans-serif" font-size="18.00">CU8 插值出图</text>
</g>
<!-- B8 -->
<g id="node5" class="node">
<title>B8</title>
<path fill="#fff3e0" stroke="#f57c00" d="M440.77,-329.87C440.77,-332.67 417.18,-334.95 388.12,-334.95 359.07,-334.95 335.48,-332.67 335.48,-329.87 335.48,-329.87 335.48,-284.13 335.48,-284.13 335.48,-281.33 359.07,-279.05 388.12,-279.05 417.18,-279.05 440.77,-281.33 440.77,-284.13 440.77,-284.13 440.77,-329.87 440.77,-329.87"/>
<path fill="none" stroke="#f57c00" d="M440.77,-329.87C440.77,-327.06 417.18,-324.78 388.12,-324.78 359.07,-324.78 335.48,-327.06 335.48,-329.87"/>
<text text-anchor="middle" x="388.12" y="-303.02" font-family="Helvetica, Arial, sans-serif" font-size="18.00">CU8 缓存</text>
</g>
<!-- MC8&#45;&gt;B8 -->
<g id="edge1" class="edge">
<title>MC8&#45;&gt;B8</title>
<path fill="none" stroke="black" stroke-width="1.8" d="M186.82,-291.44C228.83,-294.7 281.88,-298.82 322.83,-302"/>
<polygon fill="black" stroke="black" stroke-width="1.8" points="322.44,-305.48 332.68,-302.77 322.98,-298.51 322.44,-305.48"/>
</g>
<!-- MC16 -->
<g id="node2" class="node">
<title>MC16</title>
<path fill="#e1f5fe" stroke="#0288d1" d="M179.4,-236.32C179.4,-236.32 52.35,-236.32 52.35,-236.32 46.35,-236.32 40.35,-230.32 40.35,-224.32 40.35,-224.32 40.35,-207.68 40.35,-207.68 40.35,-201.68 46.35,-195.68 52.35,-195.68 52.35,-195.68 179.4,-195.68 179.4,-195.68 185.4,-195.68 191.4,-201.68 191.4,-207.68 191.4,-207.68 191.4,-224.32 191.4,-224.32 191.4,-230.32 185.4,-236.32 179.4,-236.32"/>
<text text-anchor="middle" x="115.88" y="-212.03" font-family="Helvetica, Arial, sans-serif" font-size="18.00">CU16 插值出图</text>
</g>
<!-- B16 -->
<g id="node6" class="node">
<title>B16</title>
<path fill="#fff3e0" stroke="#f57c00" d="M445.65,-244.87C445.65,-247.67 419.87,-249.95 388.12,-249.95 356.38,-249.95 330.6,-247.67 330.6,-244.87 330.6,-244.87 330.6,-199.13 330.6,-199.13 330.6,-196.33 356.38,-194.05 388.12,-194.05 419.87,-194.05 445.65,-196.33 445.65,-199.13 445.65,-199.13 445.65,-244.87 445.65,-244.87"/>
<path fill="none" stroke="#f57c00" d="M445.65,-244.87C445.65,-242.06 419.87,-239.78 388.12,-239.78 356.38,-239.78 330.6,-242.06 330.6,-244.87"/>
<text text-anchor="middle" x="388.12" y="-218.03" font-family="Helvetica, Arial, sans-serif" font-size="18.00">CU16 缓存</text>
</g>
<!-- MC16&#45;&gt;B16 -->
<g id="edge2" class="edge">
<title>MC16&#45;&gt;B16</title>
<path fill="none" stroke="black" stroke-width="1.8" d="M191.8,-217.66C231.23,-218.54 279.27,-219.61 317.84,-220.46"/>
<polygon fill="black" stroke="black" stroke-width="1.8" points="317.73,-223.96 327.8,-220.68 317.88,-216.96 317.73,-223.96"/>
</g>
<!-- MC32 -->
<g id="node3" class="node">
<title>MC32</title>
<path fill="#e1f5fe" stroke="#0288d1" d="M179.4,-166.32C179.4,-166.32 52.35,-166.32 52.35,-166.32 46.35,-166.32 40.35,-160.32 40.35,-154.32 40.35,-154.32 40.35,-137.67 40.35,-137.67 40.35,-131.67 46.35,-125.67 52.35,-125.67 52.35,-125.67 179.4,-125.67 179.4,-125.67 185.4,-125.67 191.4,-131.67 191.4,-137.67 191.4,-137.67 191.4,-154.32 191.4,-154.32 191.4,-160.32 185.4,-166.32 179.4,-166.32"/>
<text text-anchor="middle" x="115.88" y="-142.03" font-family="Helvetica, Arial, sans-serif" font-size="18.00">CU32 插值出图</text>
</g>
<!-- B32 -->
<g id="node7" class="node">
<title>B32</title>
<path fill="#fff3e0" stroke="#f57c00" d="M445.65,-159.87C445.65,-162.67 419.87,-164.95 388.12,-164.95 356.38,-164.95 330.6,-162.67 330.6,-159.87 330.6,-159.87 330.6,-114.13 330.6,-114.13 330.6,-111.33 356.38,-109.05 388.12,-109.05 419.87,-109.05 445.65,-111.33 445.65,-114.13 445.65,-114.13 445.65,-159.87 445.65,-159.87"/>
<path fill="none" stroke="#f57c00" d="M445.65,-159.87C445.65,-157.06 419.87,-154.78 388.12,-154.78 356.38,-154.78 330.6,-157.06 330.6,-159.87"/>
<text text-anchor="middle" x="388.12" y="-133.03" font-family="Helvetica, Arial, sans-serif" font-size="18.00">CU32 缓存</text>
</g>
<!-- MC32&#45;&gt;B32 -->
<g id="edge3" class="edge">
<title>MC32&#45;&gt;B32</title>
<path fill="none" stroke="black" stroke-width="1.8" d="M191.8,-143.5C231.23,-142.19 279.27,-140.59 317.84,-139.31"/>
<polygon fill="black" stroke="black" stroke-width="1.8" points="317.93,-142.81 327.8,-138.98 317.69,-135.81 317.93,-142.81"/>
</g>
<!-- MC64 -->
<g id="node4" class="node">
<title>MC64</title>
<path fill="#e1f5fe" stroke="#0288d1" d="M179.4,-96.33C179.4,-96.33 52.35,-96.33 52.35,-96.33 46.35,-96.33 40.35,-90.33 40.35,-84.33 40.35,-84.33 40.35,-67.67 40.35,-67.67 40.35,-61.67 46.35,-55.67 52.35,-55.67 52.35,-55.67 179.4,-55.67 179.4,-55.67 185.4,-55.67 191.4,-61.67 191.4,-67.67 191.4,-67.67 191.4,-84.33 191.4,-84.33 191.4,-90.33 185.4,-96.33 179.4,-96.33"/>
<text text-anchor="middle" x="115.88" y="-72.03" font-family="Helvetica, Arial, sans-serif" font-size="18.00">CU64 插值出图</text>
</g>
<!-- B64 -->
<g id="node8" class="node">
<title>B64</title>
<path fill="#fff3e0" stroke="#f57c00" d="M445.65,-74.87C445.65,-77.67 419.87,-79.95 388.12,-79.95 356.38,-79.95 330.6,-77.67 330.6,-74.87 330.6,-74.87 330.6,-29.13 330.6,-29.13 330.6,-26.33 356.38,-24.05 388.12,-24.05 419.87,-24.05 445.65,-26.33 445.65,-29.13 445.65,-29.13 445.65,-74.87 445.65,-74.87"/>
<path fill="none" stroke="#f57c00" d="M445.65,-74.87C445.65,-72.06 419.87,-69.78 388.12,-69.78 356.38,-69.78 330.6,-72.06 330.6,-74.87"/>
<text text-anchor="middle" x="388.12" y="-48.02" font-family="Helvetica, Arial, sans-serif" font-size="18.00">CU64 缓存</text>
</g>
<!-- MC64&#45;&gt;B64 -->
<g id="edge4" class="edge">
<title>MC64&#45;&gt;B64</title>
<path fill="none" stroke="black" stroke-width="1.8" d="M191.8,-69.35C231.32,-65.84 279.48,-61.56 318.09,-58.13"/>
<polygon fill="black" stroke="black" stroke-width="1.8" points="318.16,-61.64 327.81,-57.27 317.54,-54.67 318.16,-61.64"/>
</g>
<!-- Sync -->
<g id="node9" class="node">
<title>Sync</title>
<path fill="#fce4ec" stroke="#c2185b" d="M896.91,-179.77C896.91,-179.77 829.64,-225.75 829.64,-225.75 824.69,-229.14 813.74,-232.52 807.74,-232.52 807.74,-232.52 657.58,-232.52 657.58,-232.52 651.58,-232.52 640.63,-229.14 635.67,-225.75 635.67,-225.75 568.41,-179.77 568.41,-179.77 563.45,-176.39 563.45,-169.61 568.41,-166.23 568.41,-166.23 635.67,-120.25 635.67,-120.25 640.63,-116.86 651.58,-113.48 657.58,-113.48 657.58,-113.48 807.74,-113.48 807.74,-113.48 813.74,-113.48 824.69,-116.86 829.64,-120.25 829.64,-120.25 896.91,-166.23 896.91,-166.23 901.86,-169.61 901.86,-176.39 896.91,-179.77"/>
<text text-anchor="middle" x="732.66" y="-183.25" font-family="Helvetica, Arial, sans-serif" font-size="20.00">全局 Sync</text>
<text text-anchor="middle" x="732.66" y="-154" font-family="Helvetica, Arial, sans-serif" font-size="20.00">同步点 (Data Ready)</text>
</g>
<!-- B8&#45;&gt;Sync -->
<g id="edge5" class="edge">
<title>B8&#45;&gt;Sync</title>
<path fill="none" stroke="black" stroke-width="1.8" stroke-dasharray="5,2" d="M441.2,-292.4C467.35,-284.67 499.37,-274.6 527.5,-264 557.07,-252.86 588.49,-239.6 617.59,-226.69"/>
<polygon fill="black" stroke="black" stroke-width="1.8" points="618.85,-229.96 626.56,-222.69 616,-223.57 618.85,-229.96"/>
</g>
<!-- B16&#45;&gt;Sync -->
<g id="edge6" class="edge">
<title>B16&#45;&gt;Sync</title>
<path fill="none" stroke="black" stroke-width="1.8" stroke-dasharray="5,2" d="M446.07,-213.85C481.7,-208.76 529.47,-201.92 575.73,-195.31"/>
<polygon fill="black" stroke="black" stroke-width="1.8" points="575.99,-198.8 585.39,-193.92 575,-191.88 575.99,-198.8"/>
</g>
<!-- B32&#45;&gt;Sync -->
<g id="edge7" class="edge">
<title>B32&#45;&gt;Sync</title>
<path fill="none" stroke="black" stroke-width="1.8" stroke-dasharray="5,2" d="M446.07,-142.99C479.89,-146.54 524.66,-151.24 568.69,-155.87"/>
<polygon fill="black" stroke="black" stroke-width="1.8" points="568.06,-159.33 578.38,-156.89 568.8,-152.36 568.06,-159.33"/>
</g>
<!-- B64&#45;&gt;Sync -->
<g id="edge8" class="edge">
<title>B64&#45;&gt;Sync</title>
<path fill="none" stroke="black" stroke-width="1.8" stroke-dasharray="5,2" d="M445.94,-68.77C471.06,-76.4 500.87,-85.79 527.5,-95 554.21,-104.24 582.65,-114.71 609.57,-124.9"/>
<polygon fill="black" stroke="black" stroke-width="1.8" points="608.27,-128.15 618.86,-128.44 610.76,-121.61 608.27,-128.15"/>
</g>
<!-- R8 -->
<g id="node10" class="node">
<title>R8</title>
<path fill="#c8e6c9" stroke="#2e7d32" d="M1227.22,-318.32C1227.22,-318.32 1103.17,-318.32 1103.17,-318.32 1097.17,-318.32 1091.17,-312.32 1091.17,-306.32 1091.17,-306.32 1091.17,-289.68 1091.17,-289.68 1091.17,-283.68 1097.17,-277.68 1103.17,-277.68 1103.17,-277.68 1227.22,-277.68 1227.22,-277.68 1233.22,-277.68 1239.22,-283.68 1239.22,-289.68 1239.22,-289.68 1239.22,-306.32 1239.22,-306.32 1239.22,-312.32 1233.22,-318.32 1227.22,-318.32"/>
<text text-anchor="middle" x="1165.19" y="-294.02" font-family="Helvetica, Arial, sans-serif" font-size="18.00">CU8 dcost计算</text>
</g>
<!-- Sync&#45;&gt;R8 -->
<g id="edge9" class="edge">
<title>Sync&#45;&gt;R8</title>
<path fill="none" stroke="#c2185b" stroke-width="1.8" d="M849.9,-212.45C875.78,-220.87 903.16,-229.48 928.82,-237 978.06,-251.44 1033.62,-265.92 1078.38,-277.15"/>
<polygon fill="#c2185b" stroke="#c2185b" stroke-width="1.8" points="1077.52,-280.54 1088.07,-279.57 1079.21,-273.75 1077.52,-280.54"/>
<text text-anchor="middle" x="981.69" y="-272.19" font-family="Helvetica, Arial, sans-serif" font-size="14.00" fill="#c2185b"> Fire! 同一拍触发</text>
</g>
<!-- R16 -->
<g id="node11" class="node">
<title>R16</title>
<path fill="#c8e6c9" stroke="#2e7d32" d="M1232.09,-248.32C1232.09,-248.32 1098.29,-248.32 1098.29,-248.32 1092.29,-248.32 1086.29,-242.32 1086.29,-236.32 1086.29,-236.32 1086.29,-219.68 1086.29,-219.68 1086.29,-213.68 1092.29,-207.68 1098.29,-207.68 1098.29,-207.68 1232.09,-207.68 1232.09,-207.68 1238.09,-207.68 1244.09,-213.68 1244.09,-219.68 1244.09,-219.68 1244.09,-236.32 1244.09,-236.32 1244.09,-242.32 1238.09,-248.32 1232.09,-248.32"/>
<text text-anchor="middle" x="1165.19" y="-224.03" font-family="Helvetica, Arial, sans-serif" font-size="18.00">CU16 dcost计算</text>
</g>
<!-- Sync&#45;&gt;R16 -->
<g id="edge10" class="edge">
<title>Sync&#45;&gt;R16</title>
<path fill="none" stroke="#c2185b" stroke-width="1.8" d="M880.02,-191.7C944.16,-199.89 1017.42,-209.25 1073.49,-216.41"/>
<polygon fill="#c2185b" stroke="#c2185b" stroke-width="1.8" points="1072.84,-219.86 1083.2,-217.65 1073.72,-212.91 1072.84,-219.86"/>
<text text-anchor="middle" x="981.69" y="-217.16" font-family="Helvetica, Arial, sans-serif" font-size="14.00" fill="#c2185b"> Fire! 同一拍触发</text>
</g>
<!-- R32 -->
<g id="node12" class="node">
<title>R32</title>
<path fill="#c8e6c9" stroke="#2e7d32" d="M1232.09,-178.32C1232.09,-178.32 1098.29,-178.32 1098.29,-178.32 1092.29,-178.32 1086.29,-172.32 1086.29,-166.32 1086.29,-166.32 1086.29,-149.68 1086.29,-149.68 1086.29,-143.68 1092.29,-137.68 1098.29,-137.68 1098.29,-137.68 1232.09,-137.68 1232.09,-137.68 1238.09,-137.68 1244.09,-143.68 1244.09,-149.68 1244.09,-149.68 1244.09,-166.32 1244.09,-166.32 1244.09,-172.32 1238.09,-178.32 1232.09,-178.32"/>
<text text-anchor="middle" x="1165.19" y="-154.03" font-family="Helvetica, Arial, sans-serif" font-size="18.00">CU32 dcost计算</text>
</g>
<!-- Sync&#45;&gt;R32 -->
<g id="edge11" class="edge">
<title>Sync&#45;&gt;R32</title>
<path fill="none" stroke="#c2185b" stroke-width="1.8" d="M899.19,-167.23C958.4,-165.17 1022.92,-162.92 1073.48,-161.16"/>
<polygon fill="#c2185b" stroke="#c2185b" stroke-width="1.8" points="1073.42,-164.66 1083.29,-160.82 1073.18,-157.67 1073.42,-164.66"/>
<text text-anchor="middle" x="981.69" y="-172.9" font-family="Helvetica, Arial, sans-serif" font-size="14.00" fill="#c2185b"> Fire! 同一拍触发</text>
</g>
<!-- R64 -->
<g id="node13" class="node">
<title>R64</title>
<path fill="#c8e6c9" stroke="#2e7d32" d="M1232.09,-108.33C1232.09,-108.33 1098.29,-108.33 1098.29,-108.33 1092.29,-108.33 1086.29,-102.33 1086.29,-96.33 1086.29,-96.33 1086.29,-79.67 1086.29,-79.67 1086.29,-73.67 1092.29,-67.67 1098.29,-67.67 1098.29,-67.67 1232.09,-67.67 1232.09,-67.67 1238.09,-67.67 1244.09,-73.67 1244.09,-79.67 1244.09,-79.67 1244.09,-96.33 1244.09,-96.33 1244.09,-102.33 1238.09,-108.33 1232.09,-108.33"/>
<text text-anchor="middle" x="1165.19" y="-84.03" font-family="Helvetica, Arial, sans-serif" font-size="18.00">CU64 dcost计算</text>
</g>
<!-- Sync&#45;&gt;R64 -->
<g id="edge12" class="edge">
<title>Sync&#45;&gt;R64</title>
<path fill="none" stroke="#c2185b" stroke-width="1.8" d="M868.41,-146.4C935.19,-133.21 1014.05,-117.64 1073.54,-105.9"/>
<polygon fill="#c2185b" stroke="#c2185b" stroke-width="1.8" points="1074.13,-109.35 1083.26,-103.98 1072.77,-102.48 1074.13,-109.35"/>
<text text-anchor="middle" x="981.69" y="-140" font-family="Helvetica, Arial, sans-serif" font-size="14.00" fill="#c2185b"> Fire! 同一拍触发</text>
</g>
</g>
</svg>
