<?xml version="1.0" encoding="UTF-8" standalone="no"?>
<!DOCTYPE svg PUBLIC "-//W3C//DTD SVG 1.1//EN"
 "http://www.w3.org/Graphics/SVG/1.1/DTD/svg11.dtd">
<!-- Generated by graphviz version 12.2.1 (20241206.2353)
 -->
<!-- Pages: 1 -->
<svg width="1242pt" height="325pt"
 viewBox="0.00 0.00 1242.18 324.80" xmlns="http://www.w3.org/2000/svg" xmlns:xlink="http://www.w3.org/1999/xlink">
<g id="graph0" class="graph" transform="scale(1 1) rotate(0) translate(14.4 310.4)">
<polygon fill="white" stroke="none" points="-14.4,14.4 -14.4,-310.4 1227.78,-310.4 1227.78,14.4 -14.4,14.4"/>
<g id="clust1" class="cluster">
<title>cluster_Fast</title>
<path fill="#f1f8e9" stroke="#33691e" stroke-width="2" d="M351.18,-152C351.18,-152 931.2,-152 931.2,-152 937.2,-152 943.2,-158 943.2,-164 943.2,-164 943.2,-276 943.2,-276 943.2,-282 937.2,-288 931.2,-288 931.2,-288 351.18,-288 351.18,-288 345.18,-288 339.18,-282 339.18,-276 339.18,-276 339.18,-164 339.18,-164 339.18,-158 345.18,-152 351.18,-152"/>
<text text-anchor="middle" x="641.19" y="-265" font-family="Helvetica, Arial, sans-serif" font-size="20.00">快车道 (高速 Data Path)</text>
</g>
<g id="clust2" class="cluster">
<title>cluster_Slow</title>
<path fill="#fff3e0" stroke="#e65100" stroke-width="2" d="M346.3,-8C346.3,-8 931.2,-8 931.2,-8 937.2,-8 943.2,-14 943.2,-20 943.2,-20 943.2,-132 943.2,-132 943.2,-138 937.2,-144 931.2,-144 931.2,-144 346.3,-144 346.3,-144 340.3,-144 334.3,-138 334.3,-132 334.3,-132 334.3,-20 334.3,-20 334.3,-14 340.3,-8 346.3,-8"/>
<text text-anchor="middle" x="638.75" y="-121" font-family="Helvetica, Arial, sans-serif" font-size="20.00">慢车道 (低速 Ctrl Path)</text>
</g>
<!-- MEMD -->
<g id="node1" class="node">
<title>MEMD</title>
<path fill="#ede7f6" stroke="#7e57c2" d="M163.8,-165.45C163.8,-165.45 12,-165.45 12,-165.45 6,-165.45 0,-159.45 0,-153.45 0,-153.45 0,-104.55 0,-104.55 0,-98.55 6,-92.55 12,-92.55 12,-92.55 163.8,-92.55 163.8,-92.55 169.8,-92.55 175.8,-98.55 175.8,-104.55 175.8,-104.55 175.8,-153.45 175.8,-153.45 175.8,-159.45 169.8,-165.45 163.8,-165.45"/>
<text text-anchor="middle" x="87.9" y="-139.25" font-family="Helvetica, Arial, sans-serif" font-size="20.00">MEMD 提前锁定</text>
<text text-anchor="middle" x="87.9" y="-110" font-family="Helvetica, Arial, sans-serif" font-size="20.00">各 Size MV</text>
</g>
<!-- MC -->
<g id="node2" class="node">
<title>MC</title>
<path fill="#c5e1a5" stroke="#33691e" d="M502.48,-234.45C502.48,-234.45 367.18,-234.45 367.18,-234.45 361.18,-234.45 355.18,-228.45 355.18,-222.45 355.18,-222.45 355.18,-179.55 355.18,-179.55 355.18,-173.55 361.18,-167.55 367.18,-167.55 367.18,-167.55 502.48,-167.55 502.48,-167.55 508.48,-167.55 514.48,-173.55 514.48,-179.55 514.48,-179.55 514.48,-222.45 514.48,-222.45 514.48,-228.45 508.48,-234.45 502.48,-234.45"/>
<text text-anchor="middle" x="434.83" y="-210.15" font-family="Helvetica, Arial, sans-serif" font-size="18.00">MC 引擎</text>
<text text-anchor="middle" x="434.83" y="-183.9" font-family="Helvetica, Arial, sans-serif" font-size="18.00">(行交织+缓冲池)</text>
</g>
<!-- MEMD&#45;&gt;MC -->
<g id="edge5" class="edge">
<title>MEMD&#45;&gt;MC</title>
<path fill="none" stroke="#33691e" stroke-width="1.8" stroke-dasharray="5,2" d="M175.94,-147.17C226.84,-157.79 291.02,-171.19 342.63,-181.96"/>
<polygon fill="#33691e" stroke="#33691e" stroke-width="1.8" points="341.61,-185.33 352.11,-183.94 343.04,-178.47 341.61,-185.33"/>
<text text-anchor="middle" x="263.05" y="-184.66" font-family="Helvetica, Arial, sans-serif" font-size="14.00"> 纯物理MV</text>
</g>
<!-- Build -->
<g id="node5" class="node">
<title>Build</title>
<path fill="#ffcc80" stroke="#e65100" d="M507.35,-86.7C507.35,-86.7 362.3,-86.7 362.3,-86.7 356.3,-86.7 350.3,-80.7 350.3,-74.7 350.3,-74.7 350.3,-39.3 350.3,-39.3 350.3,-33.3 356.3,-27.3 362.3,-27.3 362.3,-27.3 507.35,-27.3 507.35,-27.3 513.35,-27.3 519.35,-33.3 519.35,-39.3 519.35,-39.3 519.35,-74.7 519.35,-74.7 519.35,-80.7 513.35,-86.7 507.35,-86.7"/>
<text text-anchor="middle" x="434.83" y="-62.4" font-family="Helvetica, Arial, sans-serif" font-size="18.00">构建语法特征</text>
<text text-anchor="middle" x="434.83" y="-36.15" font-family="Helvetica, Arial, sans-serif" font-size="18.00">(MVD/Merge List)</text>
</g>
<!-- MEMD&#45;&gt;Build -->
<g id="edge6" class="edge">
<title>MEMD&#45;&gt;Build</title>
<path fill="none" stroke="#e65100" stroke-width="1.8" stroke-dasharray="5,2" d="M175.94,-110.83C225.26,-100.54 287.05,-87.64 337.78,-77.05"/>
<polygon fill="#e65100" stroke="#e65100" stroke-width="1.8" points="338.35,-80.51 347.42,-75.04 336.92,-73.65 338.35,-80.51"/>
<text text-anchor="middle" x="263.05" y="-110.61" font-family="Helvetica, Arial, sans-serif" font-size="14.00"> MV语法及邻居状态</text>
</g>
<!-- RDO_D -->
<g id="node3" class="node">
<title>RDO_D</title>
<path fill="#aed581" stroke="#33691e" d="M733.4,-230.7C733.4,-230.7 582.35,-230.7 582.35,-230.7 576.35,-230.7 570.35,-224.7 570.35,-218.7 570.35,-218.7 570.35,-183.3 570.35,-183.3 570.35,-177.3 576.35,-171.3 582.35,-171.3 582.35,-171.3 733.4,-171.3 733.4,-171.3 739.4,-171.3 745.4,-177.3 745.4,-183.3 745.4,-183.3 745.4,-218.7 745.4,-218.7 745.4,-224.7 739.4,-230.7 733.4,-230.7"/>
<text text-anchor="middle" x="657.88" y="-206.4" font-family="Helvetica, Arial, sans-serif" font-size="18.00">RDO Data</text>
<text text-anchor="middle" x="657.88" y="-187.65" font-family="Helvetica, Arial, sans-serif" font-size="18.00">(并发多路 DCT/Q)</text>
</g>
<!-- MC&#45;&gt;RDO_D -->
<g id="edge1" class="edge">
<title>MC&#45;&gt;RDO_D</title>
<path fill="none" stroke="black" stroke-width="1.8" d="M514.69,-201C528.6,-201 543.23,-201 557.61,-201"/>
<polygon fill="black" stroke="black" stroke-width="1.8" points="557.43,-204.5 567.43,-201 557.43,-197.5 557.43,-204.5"/>
</g>
<!-- dcost -->
<g id="node4" class="node">
<title>dcost</title>
<polygon fill="#8bc34a" stroke="#33691e" points="921.2,-234.45 796.4,-234.45 796.4,-167.55 927.2,-167.55 927.2,-228.45 921.2,-234.45"/>
<polyline fill="none" stroke="#33691e" points="921.2,-234.45 921.2,-228.45"/>
<polyline fill="none" stroke="#33691e" points="927.2,-228.45 921.2,-228.45"/>
<text text-anchor="middle" x="861.8" y="-210.15" font-family="Helvetica, Arial, sans-serif" font-size="18.00">产出 dcost</text>
<text text-anchor="middle" x="861.8" y="-183.9" font-family="Helvetica, Arial, sans-serif" font-size="18.00">(失真代价值)</text>
</g>
<!-- RDO_D&#45;&gt;dcost -->
<g id="edge2" class="edge">
<title>RDO_D&#45;&gt;dcost</title>
<path fill="none" stroke="black" stroke-width="1.8" d="M745.68,-201C758.22,-201 771.05,-201 783.38,-201"/>
<polygon fill="black" stroke="black" stroke-width="1.8" points="783.3,-204.5 793.3,-201 783.3,-197.5 783.3,-204.5"/>
</g>
<!-- Merge -->
<g id="node8" class="node">
<title>Merge</title>
<ellipse fill="#fce4ec" stroke="#c2185b" cx="1008.64" cy="-140" rx="30.44" ry="30.44"/>
<text text-anchor="middle" x="1008.64" y="-129.57" font-family="Helvetica, Arial, sans-serif" font-size="24.00">+</text>
</g>
<!-- dcost&#45;&gt;Merge -->
<g id="edge7" class="edge">
<title>dcost&#45;&gt;Merge</title>
<path fill="none" stroke="#33691e" stroke-width="1.8" d="M927.59,-173.71C941.64,-167.8 956.06,-161.72 968.74,-156.38"/>
<polygon fill="#33691e" stroke="#33691e" stroke-width="1.8" points="969.91,-159.69 977.77,-152.58 967.19,-153.24 969.91,-159.69"/>
</g>
<!-- CABAC -->
<g id="node6" class="node">
<title>CABAC</title>
<path fill="#ffb74d" stroke="#e65100" d="M729.65,-90.45C729.65,-90.45 586.1,-90.45 586.1,-90.45 580.1,-90.45 574.1,-84.45 574.1,-78.45 574.1,-78.45 574.1,-35.55 574.1,-35.55 574.1,-29.55 580.1,-23.55 586.1,-23.55 586.1,-23.55 729.65,-23.55 729.65,-23.55 735.65,-23.55 741.65,-29.55 741.65,-35.55 741.65,-35.55 741.65,-78.45 741.65,-78.45 741.65,-84.45 735.65,-90.45 729.65,-90.45"/>
<text text-anchor="middle" x="657.88" y="-66.15" font-family="Helvetica, Arial, sans-serif" font-size="18.00">CABAC 概率模型</text>
<text text-anchor="middle" x="657.88" y="-39.9" font-family="Helvetica, Arial, sans-serif" font-size="18.00">(查表估算比特)</text>
</g>
<!-- Build&#45;&gt;CABAC -->
<g id="edge3" class="edge">
<title>Build&#45;&gt;CABAC</title>
<path fill="none" stroke="black" stroke-width="1.8" d="M519.71,-57C533.27,-57 547.4,-57 561.21,-57"/>
<polygon fill="black" stroke="black" stroke-width="1.8" points="561.06,-60.5 571.06,-57 561.06,-53.5 561.06,-60.5"/>
</g>
<!-- rcost -->
<g id="node7" class="node">
<title>rcost</title>
<polygon fill="#ffa726" stroke="#e65100" points="921.2,-90.45 796.4,-90.45 796.4,-23.55 927.2,-23.55 927.2,-84.45 921.2,-90.45"/>
<polyline fill="none" stroke="#e65100" points="921.2,-90.45 921.2,-84.45"/>
<polyline fill="none" stroke="#e65100" points="927.2,-84.45 921.2,-84.45"/>
<text text-anchor="middle" x="861.8" y="-66.15" font-family="Helvetica, Arial, sans-serif" font-size="18.00">产出 rcost</text>
<text text-anchor="middle" x="861.8" y="-39.9" font-family="Helvetica, Arial, sans-serif" font-size="18.00">(码率代价值)</text>
</g>
<!-- CABAC&#45;&gt;rcost -->
<g id="edge4" class="edge">
<title>CABAC&#45;&gt;rcost</title>
<path fill="none" stroke="black" stroke-width="1.8" d="M741.88,-57C755.7,-57 769.99,-57 783.66,-57"/>
<polygon fill="black" stroke="black" stroke-width="1.8" points="783.29,-60.5 793.29,-57 783.29,-53.5 783.29,-60.5"/>
</g>
<!-- rcost&#45;&gt;Merge -->
<g id="edge8" class="edge">
<title>rcost&#45;&gt;Merge</title>
<path fill="none" stroke="#e65100" stroke-width="1.8" d="M921.71,-90.76C938.31,-100.27 955.9,-110.35 970.8,-118.89"/>
<polygon fill="#e65100" stroke="#e65100" stroke-width="1.8" points="968.84,-121.8 979.26,-123.73 972.32,-115.73 968.84,-121.8"/>
</g>
<!-- J -->
<g id="node9" class="node">
<title>J</title>
<path fill="#f8bbd0" stroke="#c2185b" stroke-width="2" d="M1201.38,-172.32C1201.38,-172.32 1102.08,-172.32 1102.08,-172.32 1096.08,-172.32 1090.08,-166.32 1090.08,-160.32 1090.08,-160.32 1090.08,-119.67 1090.08,-119.67 1090.08,-113.67 1096.08,-107.67 1102.08,-107.67 1102.08,-107.67 1201.38,-107.67 1201.38,-107.67 1207.38,-107.67 1213.38,-113.67 1213.38,-119.67 1213.38,-119.67 1213.38,-160.32 1213.38,-160.32 1213.38,-166.32 1207.38,-172.32 1201.38,-172.32"/>
<text text-anchor="middle" x="1151.73" y="-146.12" font-family="Helvetica, Arial, sans-serif" font-size="20.00">最终代价</text>
<text text-anchor="middle" x="1151.73" y="-116.88" font-family="Helvetica, Arial, sans-serif" font-size="20.00">J = D + λR</text>
</g>
<!-- Merge&#45;&gt;J -->
<g id="edge9" class="edge">
<title>Merge&#45;&gt;J</title>
<path fill="none" stroke="#c2185b" stroke-width="3" d="M1039.56,-140C1050.08,-140 1062.43,-140 1075,-140"/>
<polygon fill="#c2185b" stroke="#c2185b" stroke-width="3" points="1074.66,-143.5 1084.66,-140 1074.66,-136.5 1074.66,-143.5"/>
</g>
</g>
</svg>
