<?xml version="1.0" encoding="UTF-8" standalone="no"?>
<!DOCTYPE svg PUBLIC "-//W3C//DTD SVG 1.1//EN"
 "http://www.w3.org/Graphics/SVG/1.1/DTD/svg11.dtd">
<!-- Generated by graphviz version 12.2.1 (20241206.2353)
 -->
<!-- Pages: 1 -->
<svg width="1050pt" height="322pt"
 viewBox="0.00 0.00 1050.00 321.80" xmlns="http://www.w3.org/2000/svg" xmlns:xlink="http://www.w3.org/1999/xlink">
<g id="graph0" class="graph" transform="scale(1 1) rotate(0) translate(14.4 307.4)">
<polygon fill="white" stroke="none" points="-14.4,14.4 -14.4,-307.4 1035.6,-307.4 1035.6,14.4 -14.4,14.4"/>
<g id="clust1" class="cluster">
<title>cluster_Intra</title>
<path fill="none" stroke="#4a148c" stroke-dasharray="5,2" d="M23.38,-8C23.38,-8 719.4,-8 719.4,-8 725.4,-8 731.4,-14 731.4,-20 731.4,-20 731.4,-132 731.4,-132 731.4,-138 725.4,-144 719.4,-144 719.4,-144 23.37,-144 23.37,-144 17.38,-144 11.38,-138 11.38,-132 11.38,-132 11.38,-20 11.38,-20 11.38,-14 17.38,-8 23.38,-8"/>
<text text-anchor="middle" x="371.39" y="-121" font-family="Helvetica, Arial, sans-serif" font-size="20.00">Intra 预测 (瞬发)</text>
</g>
<g id="clust2" class="cluster">
<title>cluster_Inter</title>
<path fill="none" stroke="#c2185b" stroke-dasharray="5,2" d="M20,-152C20,-152 1001.2,-152 1001.2,-152 1007.2,-152 1013.2,-158 1013.2,-164 1013.2,-164 1013.2,-273 1013.2,-273 1013.2,-279 1007.2,-285 1001.2,-285 1001.2,-285 20,-285 20,-285 14,-285 8,-279 8,-273 8,-273 8,-164 8,-164 8,-158 14,-152 20,-152"/>
<text text-anchor="middle" x="510.6" y="-262" font-family="Helvetica, Arial, sans-serif" font-size="20.00">Inter 预测 (长延迟)</text>
</g>
<!-- I_Mode -->
<g id="node1" class="node">
<title>I_Mode</title>
<path fill="#ede7f6" stroke="#7e57c2" d="M136.42,-90.7C136.42,-90.7 39.37,-90.7 39.37,-90.7 33.37,-90.7 27.37,-84.7 27.37,-78.7 27.37,-78.7 27.37,-43.3 27.37,-43.3 27.37,-37.3 33.37,-31.3 39.37,-31.3 39.37,-31.3 136.42,-31.3 136.42,-31.3 142.42,-31.3 148.42,-37.3 148.42,-43.3 148.42,-43.3 148.42,-78.7 148.42,-78.7 148.42,-84.7 142.42,-90.7 136.42,-90.7"/>
<text text-anchor="middle" x="87.9" y="-66.4" font-family="Helvetica, Arial, sans-serif" font-size="18.00">1. 模式选择</text>
<text text-anchor="middle" x="87.9" y="-40.15" font-family="Helvetica, Arial, sans-serif" font-size="18.00">(Mode)</text>
</g>
<!-- I_Gen -->
<g id="node2" class="node">
<title>I_Gen</title>
<path fill="#e1f5fe" stroke="#0288d1" d="M451.6,-90.45C451.6,-90.45 336.55,-90.45 336.55,-90.45 330.55,-90.45 324.55,-84.45 324.55,-78.45 324.55,-78.45 324.55,-35.55 324.55,-35.55 324.55,-29.55 330.55,-23.55 336.55,-23.55 336.55,-23.55 451.6,-23.55 451.6,-23.55 457.6,-23.55 463.6,-29.55 463.6,-35.55 463.6,-35.55 463.6,-78.45 463.6,-78.45 463.6,-84.45 457.6,-90.45 451.6,-90.45"/>
<text text-anchor="middle" x="394.07" y="-66.15" font-family="Helvetica, Arial, sans-serif" font-size="18.00">2. 纯算术逻辑</text>
<text text-anchor="middle" x="394.07" y="-39.9" font-family="Helvetica, Arial, sans-serif" font-size="18.00">生成像素</text>
</g>
<!-- I_Mode&#45;&gt;I_Gen -->
<g id="edge1" class="edge">
<title>I_Mode&#45;&gt;I_Gen</title>
<path fill="none" stroke="#4a148c" stroke-width="1.8" d="M148.63,-60.21C195.22,-59.6 260.43,-58.74 311.78,-58.07"/>
<polygon fill="#4a148c" stroke="#4a148c" stroke-width="1.8" points="311.5,-61.57 321.45,-57.94 311.41,-54.57 311.5,-61.57"/>
<text text-anchor="middle" x="238.17" y="-66.66" font-family="Helvetica, Arial, sans-serif" font-size="14.00"> 读本地短距Cache</text>
</g>
<!-- I_Pred -->
<g id="node3" class="node">
<title>I_Pred</title>
<path fill="#e8f5e9" stroke="#2e7d32" d="M703.4,-90.7C703.4,-90.7 598.1,-90.7 598.1,-90.7 592.1,-90.7 586.1,-84.7 586.1,-78.7 586.1,-78.7 586.1,-43.3 586.1,-43.3 586.1,-37.3 592.1,-31.3 598.1,-31.3 598.1,-31.3 703.4,-31.3 703.4,-31.3 709.4,-31.3 715.4,-37.3 715.4,-43.3 715.4,-43.3 715.4,-78.7 715.4,-78.7 715.4,-84.7 709.4,-90.7 703.4,-90.7"/>
<text text-anchor="middle" x="650.75" y="-66.4" font-family="Helvetica, Arial, sans-serif" font-size="18.00">3. Pred Data</text>
<text text-anchor="middle" x="650.75" y="-47.65" font-family="Helvetica, Arial, sans-serif" font-size="18.00">立刻就绪</text>
</g>
<!-- I_Gen&#45;&gt;I_Pred -->
<g id="edge2" class="edge">
<title>I_Gen&#45;&gt;I_Pred</title>
<path fill="none" stroke="#4a148c" stroke-width="1.8" d="M463.99,-58.08C497.84,-58.61 538.72,-59.26 573.51,-59.8"/>
<polygon fill="#4a148c" stroke="#4a148c" stroke-width="1.8" points="573.24,-63.3 583.3,-59.96 573.35,-56.3 573.24,-63.3"/>
<text text-anchor="middle" x="524.85" y="-61.18" font-family="Helvetica, Arial, sans-serif" font-size="14.00"> 0~1 Cycle</text>
</g>
<!-- MEMD -->
<g id="node4" class="node">
<title>MEMD</title>
<path fill="#fce4ec" stroke="#c2185b" d="M139.8,-231.7C139.8,-231.7 36,-231.7 36,-231.7 30,-231.7 24,-225.7 24,-219.7 24,-219.7 24,-184.3 24,-184.3 24,-178.3 30,-172.3 36,-172.3 36,-172.3 139.8,-172.3 139.8,-172.3 145.8,-172.3 151.8,-178.3 151.8,-184.3 151.8,-184.3 151.8,-219.7 151.8,-219.7 151.8,-225.7 145.8,-231.7 139.8,-231.7"/>
<text text-anchor="middle" x="87.9" y="-207.4" font-family="Helvetica, Arial, sans-serif" font-size="18.00">1. MEMD</text>
<text text-anchor="middle" x="87.9" y="-188.65" font-family="Helvetica, Arial, sans-serif" font-size="18.00">锁定候选MV</text>
</g>
<!-- SRAM -->
<g id="node5" class="node">
<title>SRAM</title>
<path fill="#fff3e0" stroke="#f57c00" d="M450.1,-231.7C450.1,-231.7 338.05,-231.7 338.05,-231.7 332.05,-231.7 326.05,-225.7 326.05,-219.7 326.05,-219.7 326.05,-184.3 326.05,-184.3 326.05,-178.3 332.05,-172.3 338.05,-172.3 338.05,-172.3 450.1,-172.3 450.1,-172.3 456.1,-172.3 462.1,-178.3 462.1,-184.3 462.1,-184.3 462.1,-219.7 462.1,-219.7 462.1,-225.7 456.1,-231.7 450.1,-231.7"/>
<text text-anchor="middle" x="394.07" y="-207.4" font-family="Helvetica, Arial, sans-serif" font-size="18.00">2. 取参考块</text>
<text text-anchor="middle" x="394.07" y="-181.15" font-family="Helvetica, Arial, sans-serif" font-size="18.00">(SRAM/DDR)</text>
</g>
<!-- MEMD&#45;&gt;SRAM -->
<g id="edge3" class="edge">
<title>MEMD&#45;&gt;SRAM</title>
<path fill="none" stroke="#c2185b" stroke-width="1.8" d="M152.29,-202C199.08,-202 263.09,-202 313.34,-202"/>
<polygon fill="#c2185b" stroke="#c2185b" stroke-width="1.8" points="313.08,-205.5 323.08,-202 313.08,-198.5 313.08,-205.5"/>
<text text-anchor="middle" x="238.17" y="-208.95" font-family="Helvetica, Arial, sans-serif" font-size="14.00"> 发起总线请求</text>
</g>
<!-- MC -->
<g id="node6" class="node">
<title>MC</title>
<path fill="#e1f5fe" stroke="#0288d1" d="M699.27,-231.7C699.27,-231.7 602.22,-231.7 602.22,-231.7 596.22,-231.7 590.22,-225.7 590.22,-219.7 590.22,-219.7 590.22,-184.3 590.22,-184.3 590.22,-178.3 596.22,-172.3 602.22,-172.3 602.22,-172.3 699.27,-172.3 699.27,-172.3 705.27,-172.3 711.27,-178.3 711.27,-184.3 711.27,-184.3 711.27,-219.7 711.27,-219.7 711.27,-225.7 705.27,-231.7 699.27,-231.7"/>
<text text-anchor="middle" x="650.75" y="-207.4" font-family="Helvetica, Arial, sans-serif" font-size="18.00">3. 分数插值</text>
<text text-anchor="middle" x="650.75" y="-181.15" font-family="Helvetica, Arial, sans-serif" font-size="18.00">(8&#45;tap FIR)</text>
</g>
<!-- SRAM&#45;&gt;MC -->
<g id="edge4" class="edge">
<title>SRAM&#45;&gt;MC</title>
<path fill="none" stroke="#c2185b" stroke-width="1.8" d="M462.32,-202C497.78,-202 541.31,-202 577.49,-202"/>
<polygon fill="#c2185b" stroke="#c2185b" stroke-width="1.8" points="577.23,-205.5 587.23,-202 577.23,-198.5 577.23,-205.5"/>
<text text-anchor="middle" x="524.85" y="-208.95" font-family="Helvetica, Arial, sans-serif" font-size="14.00"> 数据返回</text>
</g>
<!-- Inter_Pred -->
<g id="node7" class="node">
<title>Inter_Pred</title>
<path fill="#e8f5e9" stroke="#2e7d32" d="M985.2,-231.7C985.2,-231.7 879.9,-231.7 879.9,-231.7 873.9,-231.7 867.9,-225.7 867.9,-219.7 867.9,-219.7 867.9,-184.3 867.9,-184.3 867.9,-178.3 873.9,-172.3 879.9,-172.3 879.9,-172.3 985.2,-172.3 985.2,-172.3 991.2,-172.3 997.2,-178.3 997.2,-184.3 997.2,-184.3 997.2,-219.7 997.2,-219.7 997.2,-225.7 991.2,-231.7 985.2,-231.7"/>
<text text-anchor="middle" x="932.55" y="-207.4" font-family="Helvetica, Arial, sans-serif" font-size="18.00">4. Pred Data</text>
<text text-anchor="middle" x="932.55" y="-188.65" font-family="Helvetica, Arial, sans-serif" font-size="18.00">缓慢就绪</text>
</g>
<!-- MC&#45;&gt;Inter_Pred -->
<g id="edge5" class="edge">
<title>MC&#45;&gt;Inter_Pred</title>
<path fill="none" stroke="#c2185b" stroke-width="1.8" d="M711.77,-202C753.66,-202 809.92,-202 855.03,-202"/>
<polygon fill="#c2185b" stroke="#c2185b" stroke-width="1.8" points="855.01,-205.5 865.01,-202 855.01,-198.5 855.01,-205.5"/>
<text text-anchor="middle" x="791.65" y="-208.95" font-family="Helvetica, Arial, sans-serif" font-size="14.00"> 数十拍Latency</text>
</g>
</g>
</svg>
