<?xml version="1.0" encoding="UTF-8" standalone="no"?>
<!DOCTYPE svg PUBLIC "-//W3C//DTD SVG 1.1//EN"
 "http://www.w3.org/Graphics/SVG/1.1/DTD/svg11.dtd">
<!-- Generated by graphviz version 12.2.1 (20241206.2353)
 -->
<!-- Pages: 1 -->
<svg width="1365pt" height="276pt"
 viewBox="0.00 0.00 1364.85 275.80" xmlns="http://www.w3.org/2000/svg" xmlns:xlink="http://www.w3.org/1999/xlink">
<g id="graph0" class="graph" transform="scale(1 1) rotate(0) translate(14.4 261.4)">
<polygon fill="white" stroke="none" points="-14.4,14.4 -14.4,-261.4 1350.45,-261.4 1350.45,14.4 -14.4,14.4"/>
<g id="clust1" class="cluster">
<title>cluster_Loop</title>
<path fill="#ffffe0" stroke="#fbc02d" stroke-width="2" d="M20,-8C20,-8 1316.05,-8 1316.05,-8 1322.05,-8 1328.05,-14 1328.05,-20 1328.05,-20 1328.05,-227 1328.05,-227 1328.05,-233 1322.05,-239 1316.05,-239 1316.05,-239 20,-239 20,-239 14,-239 8,-233 8,-227 8,-227 8,-20 8,-20 8,-14 14,-8 20,-8"/>
<text text-anchor="middle" x="668.02" y="-214.1" font-family="Helvetica, Arial, sans-serif" font-size="22.00">IPD 与 RDO 核心计算环路</text>
</g>
<g id="clust2" class="cluster">
<title>cluster_Inputs</title>
<path fill="none" stroke="#999999" stroke-width="2" stroke-dasharray="5,2" d="M32,-29C32,-29 126.6,-29 126.6,-29 132.6,-29 138.6,-35 138.6,-41 138.6,-41 138.6,-175 138.6,-175 138.6,-181 132.6,-187 126.6,-187 126.6,-187 32,-187 32,-187 26,-187 20,-181 20,-175 20,-175 20,-41 20,-41 20,-35 26,-29 32,-29"/>
<text text-anchor="middle" x="79.3" y="-167.8" font-family="Helvetica, Arial, sans-serif" font-size="16.00">输入</text>
</g>
<!-- Mode -->
<g id="node1" class="node">
<title>Mode</title>
<path fill="#f3e5f5" stroke="#ab47bc" d="M118.6,-77.38C118.6,-77.38 40,-77.38 40,-77.38 34,-77.38 28,-71.38 28,-65.38 28,-65.38 28,-48.62 28,-48.62 28,-42.62 34,-36.62 40,-36.62 40,-36.62 118.6,-36.62 118.6,-36.62 124.6,-36.62 130.6,-42.62 130.6,-48.62 130.6,-48.62 130.6,-65.38 130.6,-65.38 130.6,-71.38 124.6,-77.38 118.6,-77.38"/>
<text text-anchor="middle" x="79.3" y="-52.62" font-family="Helvetica, Arial, sans-serif" font-size="20.00">候选模式</text>
</g>
<!-- IPD -->
<g id="node3" class="node">
<title>IPD</title>
<path fill="#e1f5fe" stroke="#0288d1" d="M236.95,-117.88C236.95,-117.88 178.6,-117.88 178.6,-117.88 172.6,-117.88 166.6,-111.88 166.6,-105.88 166.6,-105.88 166.6,-68.11 166.6,-68.11 166.6,-62.12 172.6,-56.12 178.6,-56.12 178.6,-56.12 236.95,-56.12 236.95,-56.12 242.95,-56.12 248.95,-62.12 248.95,-68.11 248.95,-68.11 248.95,-105.88 248.95,-105.88 248.95,-111.88 242.95,-117.88 236.95,-117.88"/>
<text text-anchor="middle" x="207.77" y="-93.12" font-family="Helvetica, Arial, sans-serif" font-size="20.00">1. IPD</text>
<text text-anchor="middle" x="207.77" y="-72.12" font-family="Helvetica, Arial, sans-serif" font-size="20.00">预测块</text>
</g>
<!-- Mode&#45;&gt;IPD -->
<g id="edge8" class="edge">
<title>Mode&#45;&gt;IPD</title>
<path fill="none" stroke="#555555" stroke-width="1.8" d="M131.01,-69.03C138.59,-70.83 146.41,-72.68 154.03,-74.49"/>
<polygon fill="#555555" stroke="#555555" stroke-width="1.8" points="152.97,-77.84 163.51,-76.74 154.59,-71.02 152.97,-77.84"/>
</g>
<!-- Orig -->
<g id="node2" class="node">
<title>Orig</title>
<path fill="#f3e5f5" stroke="#ab47bc" d="M118.6,-147.38C118.6,-147.38 40,-147.38 40,-147.38 34,-147.38 28,-141.38 28,-135.38 28,-135.38 28,-118.62 28,-118.62 28,-112.62 34,-106.62 40,-106.62 40,-106.62 118.6,-106.62 118.6,-106.62 124.6,-106.62 130.6,-112.62 130.6,-118.62 130.6,-118.62 130.6,-135.38 130.6,-135.38 130.6,-141.38 124.6,-147.38 118.6,-147.38"/>
<text text-anchor="middle" x="79.3" y="-122.62" font-family="Helvetica, Arial, sans-serif" font-size="20.00">原始像素</text>
</g>
<!-- Sub -->
<g id="node4" class="node">
<title>Sub</title>
<path fill="#ede7f6" stroke="#7e57c2" d="M323.12,-116.16C323.12,-116.16 294.48,-94.29 294.48,-94.29 289.72,-90.64 289.72,-83.36 294.48,-79.71 294.48,-79.71 323.12,-57.84 323.12,-57.84 327.88,-54.19 337.42,-54.19 342.18,-57.84 342.18,-57.84 370.82,-79.71 370.82,-79.71 375.58,-83.36 375.58,-90.64 370.82,-94.29 370.82,-94.29 342.18,-116.16 342.18,-116.16 337.42,-119.81 327.88,-119.81 323.12,-116.16"/>
<text text-anchor="middle" x="332.65" y="-82.62" font-family="Helvetica, Arial, sans-serif" font-size="20.00">相减</text>
</g>
<!-- Orig&#45;&gt;Sub -->
<g id="edge9" class="edge">
<title>Orig&#45;&gt;Sub</title>
<path fill="none" stroke="#555555" stroke-width="1.8" stroke-dasharray="5,2" d="M130.91,-135.7C164.83,-139.78 210.2,-141.86 248.95,-132 265.57,-127.77 282.47,-119.45 296.61,-111.09"/>
<polygon fill="#555555" stroke="#555555" stroke-width="1.8" points="298.34,-114.14 305,-105.9 294.65,-108.19 298.34,-114.14"/>
</g>
<!-- Dist -->
<g id="node9" class="node">
<title>Dist</title>
<path fill="#f3e5f5" stroke="#ab47bc" d="M1061.65,-99.88C1061.65,-99.88 963.55,-99.88 963.55,-99.88 957.55,-99.88 951.55,-93.88 951.55,-87.88 951.55,-87.88 951.55,-50.12 951.55,-50.12 951.55,-44.12 957.55,-38.12 963.55,-38.12 963.55,-38.12 1061.65,-38.12 1061.65,-38.12 1067.65,-38.12 1073.65,-44.12 1073.65,-50.12 1073.65,-50.12 1073.65,-87.88 1073.65,-87.88 1073.65,-93.88 1067.65,-99.88 1061.65,-99.88"/>
<text text-anchor="middle" x="1012.6" y="-75.12" font-family="Helvetica, Arial, sans-serif" font-size="20.00">6. 失真D</text>
<text text-anchor="middle" x="1012.6" y="-45.88" font-family="Helvetica, Arial, sans-serif" font-size="20.00">(SAD/SSE)</text>
</g>
<!-- Orig&#45;&gt;Dist -->
<g id="edge10" class="edge">
<title>Orig&#45;&gt;Dist</title>
<path fill="none" stroke="#555555" stroke-width="1.8" stroke-dasharray="5,2" d="M130.99,-146.16C181.18,-163.38 260.61,-186 331.65,-186 331.65,-186 331.65,-186 731.75,-186 815.18,-186 902.54,-141.19 957,-107.03"/>
<polygon fill="#555555" stroke="#555555" stroke-width="1.8" points="958.6,-110.15 965.15,-101.82 954.83,-104.26 958.6,-110.15"/>
</g>
<!-- IPD&#45;&gt;Sub -->
<g id="edge1" class="edge">
<title>IPD&#45;&gt;Sub</title>
<path fill="none" stroke="#555555" stroke-width="1.8" d="M249.35,-87C256.51,-87 264.11,-87 271.67,-87"/>
<polygon fill="#555555" stroke="#555555" stroke-width="1.8" points="271.57,-90.5 281.57,-87 271.57,-83.5 271.57,-90.5"/>
</g>
<!-- Add -->
<g id="node7" class="node">
<title>Add</title>
<path fill="#ede7f6" stroke="#7e57c2" d="M721.22,-98.16C721.22,-98.16 692.58,-76.29 692.58,-76.29 687.82,-72.64 687.82,-65.36 692.58,-61.71 692.58,-61.71 721.22,-39.84 721.22,-39.84 725.98,-36.19 735.52,-36.19 740.28,-39.84 740.28,-39.84 768.92,-61.71 768.92,-61.71 773.68,-65.36 773.68,-72.64 768.92,-76.29 768.92,-76.29 740.28,-98.16 740.28,-98.16 735.52,-101.81 725.98,-101.81 721.22,-98.16"/>
<text text-anchor="middle" x="730.75" y="-64.62" font-family="Helvetica, Arial, sans-serif" font-size="20.00">相加</text>
</g>
<!-- IPD&#45;&gt;Add -->
<g id="edge13" class="edge">
<title>IPD&#45;&gt;Add</title>
<path fill="none" stroke="#555555" stroke-width="1.8" stroke-dasharray="5,2" d="M246.04,-55.73C257.76,-47.7 271.25,-40.16 284.95,-36 325.63,-23.64 471.8,-3.94 647.05,-37 661.3,-39.69 676.25,-44.73 689.47,-50.03"/>
<polygon fill="#555555" stroke="#555555" stroke-width="1.8" points="687.96,-53.19 698.54,-53.85 690.68,-46.74 687.96,-53.19"/>
</g>
<!-- TQ -->
<g id="node5" class="node">
<title>TQ</title>
<path fill="#fff3e0" stroke="#f57c00" d="M480.7,-105C480.7,-105 428.35,-105 428.35,-105 422.35,-105 416.35,-99 416.35,-93 416.35,-93 416.35,-81 416.35,-81 416.35,-75 422.35,-69 428.35,-69 428.35,-69 480.7,-69 480.7,-69 486.7,-69 492.7,-75 492.7,-81 492.7,-81 492.7,-93 492.7,-93 492.7,-99 486.7,-105 480.7,-105"/>
<text text-anchor="middle" x="454.52" y="-78.5" font-family="Helvetica, Arial, sans-serif" font-size="20.00">2. T/Q</text>
</g>
<!-- Sub&#45;&gt;TQ -->
<g id="edge2" class="edge">
<title>Sub&#45;&gt;TQ</title>
<path fill="none" stroke="#555555" stroke-width="1.8" d="M381.03,-87C388.4,-87 396.04,-87 403.47,-87"/>
<polygon fill="#555555" stroke="#555555" stroke-width="1.8" points="403.37,-90.5 413.37,-87 403.37,-83.5 403.37,-90.5"/>
</g>
<!-- IQIT -->
<g id="node6" class="node">
<title>IQIT</title>
<path fill="#fff3e0" stroke="#f57c00" d="M619.3,-87C619.3,-87 556.45,-87 556.45,-87 550.45,-87 544.45,-81 544.45,-75 544.45,-75 544.45,-63 544.45,-63 544.45,-57 550.45,-51 556.45,-51 556.45,-51 619.3,-51 619.3,-51 625.3,-51 631.3,-57 631.3,-63 631.3,-63 631.3,-75 631.3,-75 631.3,-81 625.3,-87 619.3,-87"/>
<text text-anchor="middle" x="587.87" y="-60.5" font-family="Helvetica, Arial, sans-serif" font-size="20.00">4. IQ/IT</text>
</g>
<!-- TQ&#45;&gt;IQIT -->
<g id="edge3" class="edge">
<title>TQ&#45;&gt;IQIT</title>
<path fill="none" stroke="#555555" stroke-width="1.8" d="M493.16,-81.84C505.23,-80.19 518.85,-78.32 531.89,-76.54"/>
<polygon fill="#555555" stroke="#555555" stroke-width="1.8" points="532.01,-80.05 541.44,-75.23 531.06,-73.12 532.01,-80.05"/>
</g>
<!-- Rate -->
<g id="node11" class="node">
<title>Rate</title>
<path fill="#f3e5f5" stroke="#ab47bc" d="M635.05,-156.38C635.05,-156.38 540.7,-156.38 540.7,-156.38 534.7,-156.38 528.7,-150.38 528.7,-144.38 528.7,-144.38 528.7,-127.62 528.7,-127.62 528.7,-121.62 534.7,-115.62 540.7,-115.62 540.7,-115.62 635.05,-115.62 635.05,-115.62 641.05,-115.62 647.05,-121.62 647.05,-127.62 647.05,-127.62 647.05,-144.38 647.05,-144.38 647.05,-150.38 641.05,-156.38 635.05,-156.38"/>
<text text-anchor="middle" x="587.87" y="-131.62" font-family="Helvetica, Arial, sans-serif" font-size="20.00">3. 比特率R</text>
</g>
<!-- TQ&#45;&gt;Rate -->
<g id="edge11" class="edge">
<title>TQ&#45;&gt;Rate</title>
<path fill="none" stroke="#555555" stroke-width="1.8" stroke-dasharray="5,2" d="M493.16,-101.04C501.39,-104.11 510.33,-107.45 519.32,-110.8"/>
<polygon fill="#555555" stroke="#555555" stroke-width="1.8" points="517.97,-114.03 528.56,-114.25 520.42,-107.47 517.97,-114.03"/>
</g>
<!-- IQIT&#45;&gt;Add -->
<g id="edge4" class="edge">
<title>IQIT&#45;&gt;Add</title>
<path fill="none" stroke="#555555" stroke-width="1.8" d="M631.52,-69C643.55,-69 656.86,-69 669.71,-69"/>
<polygon fill="#555555" stroke="#555555" stroke-width="1.8" points="669.6,-72.5 679.6,-69 669.6,-65.5 669.6,-72.5"/>
</g>
<!-- Recon -->
<g id="node8" class="node">
<title>Recon</title>
<path fill="#e8f5e9" stroke="#2e7d32" d="M903.55,-99.88C903.55,-99.88 826.45,-99.88 826.45,-99.88 820.45,-99.88 814.45,-93.88 814.45,-87.88 814.45,-87.88 814.45,-50.12 814.45,-50.12 814.45,-44.12 820.45,-38.12 826.45,-38.12 826.45,-38.12 903.55,-38.12 903.55,-38.12 909.55,-38.12 915.55,-44.12 915.55,-50.12 915.55,-50.12 915.55,-87.88 915.55,-87.88 915.55,-93.88 909.55,-99.88 903.55,-99.88"/>
<text text-anchor="middle" x="865" y="-75.12" font-family="Helvetica, Arial, sans-serif" font-size="20.00">5. Recon</text>
<text text-anchor="middle" x="865" y="-54.12" font-family="Helvetica, Arial, sans-serif" font-size="20.00">重建块</text>
</g>
<!-- Add&#45;&gt;Recon -->
<g id="edge5" class="edge">
<title>Add&#45;&gt;Recon</title>
<path fill="none" stroke="#555555" stroke-width="1.8" d="M779.12,-69C786.43,-69 794.08,-69 801.66,-69"/>
<polygon fill="#555555" stroke="#555555" stroke-width="1.8" points="801.56,-72.5 811.56,-69 801.56,-65.5 801.56,-72.5"/>
</g>
<!-- Recon&#45;&gt;Dist -->
<g id="edge6" class="edge">
<title>Recon&#45;&gt;Dist</title>
<path fill="none" stroke="#555555" stroke-width="1.8" d="M915.7,-69C923.13,-69 930.91,-69 938.69,-69"/>
<polygon fill="#555555" stroke="#555555" stroke-width="1.8" points="938.57,-72.5 948.57,-69 938.57,-65.5 938.57,-72.5"/>
</g>
<!-- Cost -->
<g id="node10" class="node">
<title>Cost</title>
<path fill="#fce4ec" stroke="#c2185b" d="M1202.02,-113.04C1202.02,-113.04 1120.48,-74.16 1120.48,-74.16 1115.07,-71.58 1115.07,-66.42 1120.48,-63.84 1120.48,-63.84 1202.02,-24.96 1202.02,-24.96 1207.43,-22.38 1218.27,-22.38 1223.68,-24.96 1223.68,-24.96 1305.22,-63.84 1305.22,-63.84 1310.63,-66.42 1310.63,-71.58 1305.22,-74.16 1305.22,-74.16 1223.68,-113.04 1223.68,-113.04 1218.27,-115.62 1207.43,-115.62 1202.02,-113.04"/>
<text text-anchor="middle" x="1212.85" y="-71" font-family="Helvetica, Arial, sans-serif" font-size="20.00" fill="#880e4f">7. RD Cost</text>
<text text-anchor="middle" x="1212.85" y="-50" font-family="Helvetica, Arial, sans-serif" font-size="20.00" fill="#880e4f">J=D+λR</text>
</g>
<!-- Dist&#45;&gt;Cost -->
<g id="edge7" class="edge">
<title>Dist&#45;&gt;Cost</title>
<path fill="none" stroke="#555555" stroke-width="1.8" d="M1073.89,-69C1081.05,-69 1088.54,-69 1096.16,-69"/>
<polygon fill="#555555" stroke="#555555" stroke-width="1.8" points="1095.92,-72.5 1105.92,-69 1095.92,-65.5 1095.92,-72.5"/>
</g>
<!-- Rate&#45;&gt;Cost -->
<g id="edge12" class="edge">
<title>Rate&#45;&gt;Cost</title>
<path fill="none" stroke="#555555" stroke-width="1.8" d="M647.27,-138.38C738.92,-140.99 921.76,-141.65 1073.65,-114 1096.8,-109.79 1121.41,-102.67 1143.36,-95.33"/>
<polygon fill="#555555" stroke="#555555" stroke-width="1.8" points="1144.35,-98.69 1152.67,-92.13 1142.08,-92.07 1144.35,-98.69"/>
</g>
</g>
</svg>
