<?xml version="1.0" encoding="UTF-8" standalone="no"?>
<!DOCTYPE svg PUBLIC "-//W3C//DTD SVG 1.1//EN"
 "http://www.w3.org/Graphics/SVG/1.1/DTD/svg11.dtd">
<!-- Generated by graphviz version 12.2.1 (20241206.2353)
 -->
<!-- Pages: 1 -->
<svg width="631pt" height="864pt"
 viewBox="0.00 0.00 630.99 864.00" xmlns="http://www.w3.org/2000/svg" xmlns:xlink="http://www.w3.org/1999/xlink">
<g id="graph0" class="graph" transform="scale(0.981322 0.981322) rotate(0) translate(4 876.45)">
<polygon fill="white" stroke="none" points="-4,4 -4,-876.45 639,-876.45 639,4 -4,4"/>
<g id="clust1" class="cluster">
<title>cluster_encoder</title>
<polygon fill="none" stroke="#38bdf8" stroke-dasharray="5,2" points="8,-530.47 8,-864.45 172,-864.45 172,-530.47 8,-530.47"/>
<text text-anchor="middle" x="90" y="-847.15" font-family="Inter" font-size="14.00" fill="#0369a1">编码端流水线 (Encoder)</text>
</g>
<g id="clust2" class="cluster">
<title>cluster_decoder</title>
<polygon fill="none" stroke="#4ade80" stroke-dasharray="5,2" points="197,-8 197,-648.2 627,-648.2 627,-8 197,-8"/>
<text text-anchor="middle" x="412" y="-630.9" font-family="Inter" font-size="14.00" fill="#15803d">解码端微观死循环: Bin&#45;by&#45;Bin Decoding</text>
</g>
<!-- SE_E -->
<g id="node1" class="node">
<title>SE_E</title>
<path fill="#e0f2fe" stroke="#38bdf8" stroke-width="2" d="M118.38,-828.2C118.38,-828.2 53.63,-828.2 53.63,-828.2 47.62,-828.2 41.62,-822.2 41.62,-816.2 41.62,-816.2 41.62,-796.95 41.62,-796.95 41.62,-790.95 47.62,-784.95 53.62,-784.95 53.62,-784.95 118.38,-784.95 118.38,-784.95 124.38,-784.95 130.38,-790.95 130.38,-796.95 130.38,-796.95 130.38,-816.2 130.38,-816.2 130.38,-822.2 124.38,-828.2 118.38,-828.2"/>
<text text-anchor="middle" x="86" y="-810.9" font-family="Inter" font-size="14.00" fill="#0369a1">语法元素</text>
<text text-anchor="middle" x="86" y="-790.65" font-family="Inter" font-size="14.00" fill="#0369a1">e.g. MVD=1</text>
</g>
<!-- BIN_E -->
<g id="node2" class="node">
<title>BIN_E</title>
<path fill="#e0f2fe" stroke="#38bdf8" stroke-width="2" d="M107.88,-733.2C107.88,-733.2 64.12,-733.2 64.12,-733.2 58.12,-733.2 52.12,-727.2 52.12,-721.2 52.12,-721.2 52.12,-701.95 52.12,-701.95 52.12,-695.95 58.12,-689.95 64.12,-689.95 64.12,-689.95 107.88,-689.95 107.88,-689.95 113.88,-689.95 119.88,-695.95 119.88,-701.95 119.88,-701.95 119.88,-721.2 119.88,-721.2 119.88,-727.2 113.88,-733.2 107.88,-733.2"/>
<text text-anchor="middle" x="86" y="-715.9" font-family="Inter" font-size="14.00" fill="#0369a1">Bin 数组</text>
<text text-anchor="middle" x="86" y="-695.65" font-family="Inter" font-size="14.00" fill="#0369a1">[1, 0, 0]</text>
</g>
<!-- SE_E&#45;&gt;BIN_E -->
<g id="edge1" class="edge">
<title>SE_E&#45;&gt;BIN_E</title>
<path fill="none" stroke="#64748b" d="M86,-784C86,-772.5 86,-758.1 86,-745.26"/>
<polygon fill="#64748b" stroke="#64748b" points="89.5,-745.54 86,-735.54 82.5,-745.54 89.5,-745.54"/>
<text text-anchor="middle" x="110.38" y="-756.5" font-family="Inter" font-size="11.00"> 1. 二值化</text>
</g>
<!-- BITS_E -->
<g id="node3" class="node">
<title>BITS_E</title>
<path fill="#fee2e2" stroke="#f87171" stroke-width="2" d="M110.5,-581.72C110.5,-581.72 61.5,-581.72 61.5,-581.72 55.5,-581.72 49.5,-575.72 49.5,-569.72 49.5,-569.72 49.5,-550.47 49.5,-550.47 49.5,-544.47 55.5,-538.47 61.5,-538.47 61.5,-538.47 110.5,-538.47 110.5,-538.47 116.5,-538.47 122.5,-544.47 122.5,-550.47 122.5,-550.47 122.5,-569.72 122.5,-569.72 122.5,-575.72 116.5,-581.72 110.5,-581.72"/>
<text text-anchor="middle" x="86" y="-564.42" font-family="Inter" font-size="14.00" fill="#b91c1c">纯比特流</text>
<text text-anchor="middle" x="86" y="-544.17" font-family="Inter" font-size="14.00" fill="#b91c1c">01011...</text>
</g>
<!-- BIN_E&#45;&gt;BITS_E -->
<g id="edge2" class="edge">
<title>BIN_E&#45;&gt;BITS_E</title>
<path fill="none" stroke="#64748b" d="M86,-689.15C86,-664.18 86,-622.63 86,-593.66"/>
<polygon fill="#64748b" stroke="#64748b" points="89.5,-593.99 86,-583.99 82.5,-593.99 89.5,-593.99"/>
<text text-anchor="middle" x="116" y="-661.5" font-family="Inter" font-size="11.00"> 2. 算术编码</text>
</g>
<!-- BITS_D -->
<g id="node4" class="node">
<title>BITS_D</title>
<path fill="#fee2e2" stroke="#f87171" stroke-width="2" d="M146.62,-453.88C146.62,-453.88 83.38,-453.88 83.38,-453.88 77.38,-453.88 71.38,-447.88 71.38,-441.88 71.38,-441.88 71.38,-422.62 71.38,-422.62 71.38,-416.62 77.38,-410.62 83.38,-410.62 83.38,-410.62 146.62,-410.62 146.62,-410.62 152.62,-410.62 158.62,-416.62 158.62,-422.62 158.62,-422.62 158.62,-441.88 158.62,-441.88 158.62,-447.88 152.62,-453.88 146.62,-453.88"/>
<text text-anchor="middle" x="115" y="-436.57" font-family="Inter" font-size="14.00" fill="#b91c1c">物理比特流</text>
<text text-anchor="middle" x="115" y="-416.32" font-family="Inter" font-size="14.00" fill="#b91c1c">01011...</text>
</g>
<!-- BITS_E&#45;&gt;BITS_D -->
<g id="edge3" class="edge">
<title>BITS_E&#45;&gt;BITS_D</title>
<path fill="none" stroke="#64748b" d="M84.25,-537.75C83.49,-520.34 83.92,-495.32 90.25,-474.5 91.26,-471.17 92.6,-467.83 94.13,-464.58"/>
<polygon fill="#64748b" stroke="#64748b" points="97.14,-466.37 98.8,-455.9 90.98,-463.05 97.14,-466.37"/>
<text text-anchor="middle" x="141.62" y="-479.8" font-family="Inter" font-size="11.00"> 网络传输 / 硬盘存储</text>
</g>
<!-- ARITH -->
<g id="node7" class="node">
<title>ARITH</title>
<path fill="#fef08a" stroke="#eab308" stroke-width="2" d="M347,-356.25C347,-356.25 217,-356.25 217,-356.25 211,-356.25 205,-350.25 205,-344.25 205,-344.25 205,-319.75 205,-319.75 205,-313.75 211,-307.75 217,-307.75 217,-307.75 347,-307.75 347,-307.75 353,-307.75 359,-313.75 359,-319.75 359,-319.75 359,-344.25 359,-344.25 359,-350.25 353,-356.25 347,-356.25"/>
<text text-anchor="middle" x="282" y="-338.95" font-family="Inter" font-size="14.00" fill="#854d0e">3. 算术解码引擎</text>
<text text-anchor="middle" x="282" y="-318.7" font-family="Inter" font-size="14.00" fill="#854d0e">吃进 Bit, 吐出 1 个 Bin</text>
</g>
<!-- BITS_D&#45;&gt;ARITH -->
<g id="edge10" class="edge">
<title>BITS_D&#45;&gt;ARITH</title>
<path fill="none" stroke="#64748b" stroke-dasharray="5,2" d="M151.65,-409.69C175.06,-395.91 205.74,-377.87 231.45,-362.74"/>
<polygon fill="#64748b" stroke="#64748b" points="232.89,-365.95 239.73,-357.87 229.34,-359.92 232.89,-365.95"/>
<text text-anchor="middle" x="236.62" y="-379.55" font-family="Inter" font-size="11.00">提供纯数据</text>
</g>
<!-- FSM -->
<g id="node5" class="node">
<title>FSM</title>
<path fill="#dcfce7" stroke="#4ade80" stroke-width="2" d="M562.27,-568.29C562.27,-568.29 524.29,-603.75 524.29,-603.75 519.91,-607.85 509.52,-611.95 503.52,-611.95 503.52,-611.95 416.48,-611.95 416.48,-611.95 410.48,-611.95 400.09,-607.85 395.71,-603.75 395.71,-603.75 357.73,-568.29 357.73,-568.29 353.34,-564.19 353.34,-556 357.73,-551.91 357.73,-551.91 395.71,-516.44 395.71,-516.44 400.09,-512.35 410.48,-508.25 416.48,-508.25 416.48,-508.25 503.52,-508.25 503.52,-508.25 509.52,-508.25 519.91,-512.35 524.29,-516.44 524.29,-516.44 562.27,-551.91 562.27,-551.91 566.66,-556 566.66,-564.19 562.27,-568.29"/>
<text text-anchor="middle" x="460" y="-574.55" font-family="Inter" font-size="14.00" fill="#15803d">1. 顶层状态机 FSM</text>
<text text-anchor="middle" x="460" y="-554.3" font-family="Inter" font-size="14.00" fill="#15803d">决定当前要解什么</text>
<text text-anchor="middle" x="460" y="-534.05" font-family="Inter" font-size="14.00" fill="#15803d">e.g. MVD</text>
</g>
<!-- CTX -->
<g id="node6" class="node">
<title>CTX</title>
<path fill="#fef08a" stroke="#eab308" stroke-width="2" d="M476.12,-456.5C476.12,-456.5 313.88,-456.5 313.88,-456.5 307.88,-456.5 301.88,-450.5 301.88,-444.5 301.88,-444.5 301.88,-420 301.88,-420 301.88,-414 307.88,-408 313.88,-408 313.88,-408 476.12,-408 476.12,-408 482.12,-408 488.12,-414 488.12,-420 488.12,-420 488.12,-444.5 488.12,-444.5 488.12,-450.5 482.12,-456.5 476.12,-456.5"/>
<text text-anchor="middle" x="395" y="-439.2" font-family="Inter" font-size="14.00" fill="#854d0e">2. Context 模型</text>
<text text-anchor="middle" x="395" y="-418.95" font-family="Inter" font-size="14.00" fill="#854d0e">查表给出下一个 Bin 的概率</text>
</g>
<!-- FSM&#45;&gt;CTX -->
<g id="edge4" class="edge">
<title>FSM&#45;&gt;CTX</title>
<path fill="none" stroke="#64748b" d="M424.02,-507.27C420.69,-501.64 417.53,-495.9 414.75,-490.25 411.3,-483.24 408.18,-475.48 405.5,-468"/>
<polygon fill="#64748b" stroke="#64748b" points="408.9,-467.13 402.38,-458.79 402.27,-469.38 408.9,-467.13"/>
<text text-anchor="middle" x="463.88" y="-479.8" font-family="Inter" font-size="11.00">请求解码下一个 Bin</text>
</g>
<!-- CTX&#45;&gt;ARITH -->
<g id="edge5" class="edge">
<title>CTX&#45;&gt;ARITH</title>
<path fill="none" stroke="#64748b" d="M337.47,-407.23C329.13,-402.27 321.07,-396.54 314.25,-390 307.5,-383.53 301.75,-375.33 297.07,-367.18"/>
<polygon fill="#64748b" stroke="#64748b" points="300.18,-365.57 292.41,-358.36 293.99,-368.84 300.18,-365.57"/>
<text text-anchor="middle" x="352.12" y="-379.55" font-family="Inter" font-size="11.00">提供概率 p0/p1</text>
</g>
<!-- MATCH -->
<g id="node8" class="node">
<title>MATCH</title>
<path fill="#fef08a" stroke="#eab308" stroke-width="2" d="M343.63,-240.16C343.63,-240.16 222.87,-199.34 222.87,-199.34 217.18,-197.42 217.18,-193.58 222.87,-191.66 222.87,-191.66 343.63,-150.84 343.63,-150.84 349.32,-148.92 360.68,-148.92 366.37,-150.84 366.37,-150.84 487.13,-191.66 487.13,-191.66 492.82,-193.58 492.82,-197.42 487.13,-199.34 487.13,-199.34 366.37,-240.16 366.37,-240.16 360.68,-242.08 349.32,-242.08 343.63,-240.16"/>
<text text-anchor="middle" x="355" y="-202.45" font-family="Inter" font-size="14.00" fill="#854d0e">4. 反二值化匹配</text>
<text text-anchor="middle" x="355" y="-182.2" font-family="Inter" font-size="14.00" fill="#854d0e">收集 Bin 并尝试组合</text>
</g>
<!-- ARITH&#45;&gt;MATCH -->
<g id="edge6" class="edge">
<title>ARITH&#45;&gt;MATCH</title>
<path fill="none" stroke="#64748b" d="M295.05,-306.95C304,-290.47 316.2,-267.98 327.27,-247.6"/>
<polygon fill="#64748b" stroke="#64748b" points="330.34,-249.28 332.03,-238.82 324.19,-245.94 330.34,-249.28"/>
<text text-anchor="middle" x="351.12" y="-279.3" font-family="Inter" font-size="11.00">解出 1 个 Bin</text>
<text text-anchor="middle" x="351.12" y="-263.55" font-family="Inter" font-size="11.00">(e.g. &#39;1&#39;)</text>
</g>
<!-- MATCH&#45;&gt;CTX -->
<g id="edge7" class="edge">
<title>MATCH&#45;&gt;CTX</title>
<path fill="none" stroke="#64748b" d="M378.73,-237.03C382.48,-245.07 385.82,-253.62 388,-262 399.7,-307.07 399.61,-361.13 397.83,-395.82"/>
<polygon fill="#64748b" stroke="#64748b" points="394.34,-395.54 397.24,-405.73 401.33,-395.95 394.34,-395.54"/>
<text text-anchor="middle" x="442.17" y="-337.3" font-family="Inter" font-size="11.00">前缀不完整</text>
<text text-anchor="middle" x="442.17" y="-321.55" font-family="Inter" font-size="11.00">继续要下一个 Bin</text>
</g>
<!-- SE_OUT -->
<g id="node9" class="node">
<title>SE_OUT</title>
<path fill="#dcfce7" stroke="#4ade80" stroke-width="2" d="M530,-79.5C530,-79.5 424,-79.5 424,-79.5 418,-79.5 412,-73.5 412,-67.5 412,-67.5 412,-28 412,-28 412,-22 418,-16 424,-16 424,-16 530,-16 530,-16 536,-16 542,-22 542,-28 542,-28 542,-67.5 542,-67.5 542,-73.5 536,-79.5 530,-79.5"/>
<text text-anchor="middle" x="477" y="-62.2" font-family="Inter" font-size="14.00" fill="#15803d">5. 成功解析！</text>
<text text-anchor="middle" x="477" y="-41.95" font-family="Inter" font-size="14.00" fill="#15803d">输出完整语法元素</text>
<text text-anchor="middle" x="477" y="-21.7" font-family="Inter" font-size="14.00" fill="#15803d">e.g. MVD=1</text>
</g>
<!-- MATCH&#45;&gt;SE_OUT -->
<g id="edge8" class="edge">
<title>MATCH&#45;&gt;SE_OUT</title>
<path fill="none" stroke="#64748b" d="M386.42,-156.97C403.84,-136.15 425.51,-110.27 443.28,-89.03"/>
<polygon fill="#64748b" stroke="#64748b" points="445.93,-91.32 449.67,-81.4 440.56,-86.83 445.93,-91.32"/>
<text text-anchor="middle" x="467.81" y="-118.55" font-family="Inter" font-size="11.00">符合码表规则</text>
<text text-anchor="middle" x="467.81" y="-102.8" font-family="Inter" font-size="11.00">组合成功！</text>
</g>
<!-- SE_OUT&#45;&gt;FSM -->
<g id="edge9" class="edge">
<title>SE_OUT&#45;&gt;FSM</title>
<path fill="none" stroke="#64748b" d="M498.31,-80.35C501.3,-85.89 504.02,-91.72 506,-97.5 520.07,-138.6 518,-151.06 518,-194.5 518,-433.25 518,-433.25 518,-433.25 518,-458.68 522.24,-466.56 513,-490.25 512.03,-492.74 510.94,-495.22 509.75,-497.67"/>
<polygon fill="#64748b" stroke="#64748b" points="506.79,-495.79 505.09,-506.25 512.94,-499.13 506.79,-495.79"/>
<text text-anchor="middle" x="568.62" y="-337.3" font-family="Inter" font-size="11.00">通知 FSM</text>
<text text-anchor="middle" x="568.62" y="-321.55" font-family="Inter" font-size="11.00">进入下一个语法元素</text>
</g>
</g>
</svg>
